<?xml version="1.0" encoding="utf-8"?>
<!-- Generator: Adobe Illustrator 28.0.0, SVG Export Plug-In . SVG Version: 6.00 Build 0)  -->
<svg version="1.1" id="all-training-courses" xmlns="http://www.w3.org/2000/svg" xmlns:xlink="http://www.w3.org/1999/xlink"
	 x="0px" y="0px" width="512px" height="512px" viewBox="0 0 512 512" style="enable-background:new 0 0 512 512;"
	 xml:space="preserve">
<style type="text/css">
	.st0{fill:#FFFFFF;}
</style>
<path class="st0" d="M165.6,25.2H87.4c-14.6,0-26.2,11.7-26.2,26.2v78.2c0,14.6,11.7,26.2,26.2,26.2h78.2
	c14.6,0,26.2-11.7,26.2-26.2V51.5C191.9,36.9,180.2,25.2,165.6,25.2L165.6,25.2z M157.4,81.6l-32.1,32.1c-1.9,1.9-4.4,2.9-6.8,2.9
	s-4.9-1-6.8-2.9l-16-16c-3.9-3.9-3.9-10.2,0-14.1s10.2-3.9,14.1,0l9.2,9.2L143.8,68c3.9-3.9,10.2-3.9,14.1,0
	C161.3,71.4,161.3,77.7,157.4,81.6L157.4,81.6L157.4,81.6z"/>
<path class="st0" d="M165.6,190.9H87.4c-14.6,0-26.2,11.7-26.2,26.2v78.2c0,14.6,11.7,26.2,26.2,26.2h78.2
	c14.6,0,26.2-11.7,26.2-26.2v-78.7C191.9,202.6,180.2,190.9,165.6,190.9L165.6,190.9L165.6,190.9z M157.4,246.8l-32.1,32.1
	c-1.9,1.9-4.4,2.9-6.8,2.9s-4.9-1-6.8-2.9l-16-16c-3.9-3.9-3.9-10.2,0-14.1s10.2-3.9,14.1,0l9.2,9.2l24.8-24.8
	c3.9-3.9,10.2-3.9,14.1,0C161.3,237.1,161.3,243.4,157.4,246.8L157.4,246.8L157.4,246.8z"/>
<path class="st0" d="M165.6,356.1H87.4c-14.6,0-26.2,11.7-26.2,26.2v78.2c0,14.6,11.7,26.2,26.2,26.2h78.2
	c14.6,0,26.2-11.7,26.2-26.2v-78.2C191.9,367.8,180.2,356.1,165.6,356.1z M157.4,412.5l-32.1,32.1c-1.9,1.9-4.4,2.9-6.8,2.9
	s-4.9-1-6.8-2.9l-16-16c-3.9-3.9-3.9-10.2,0-14.1s10.2-3.9,14.1,0l9.2,9.2l24.8-24.8c3.9-3.9,10.2-3.9,14.1,0
	C161.3,402.3,161.3,408.6,157.4,412.5L157.4,412.5L157.4,412.5z"/>
<path class="st0" d="M236.6,76.2h200.2c7.8,0,14.1-6.3,14.1-14.1S444.6,48,436.8,48H236.6c-7.8,0-14.1,6.3-14.1,14.1
	S228.8,76.2,236.6,76.2L236.6,76.2z"/>
<path class="st0" d="M236.6,133.1h126.3c7.8,0,14.1-6.3,14.1-14.1s-6.3-14.1-14.1-14.1H236.6c-7.8,0-14.1,6.3-14.1,14.1
	S228.8,133.1,236.6,133.1L236.6,133.1z"/>
<path class="st0" d="M436.7,213.7H236.6c-7.8,0-14.1,6.3-14.1,14.1s6.3,14.1,14.1,14.1h200.2c7.8,0,14.1-6.3,14.1-14.1
	S444.5,213.7,436.7,213.7z"/>
<path class="st0" d="M236.6,298.3h126.3c7.8,0,14.1-6.3,14.1-14.1s-6.3-14.1-14.1-14.1H236.6c-7.8,0-14.1,6.3-14.1,14.1
	S228.8,298.3,236.6,298.3L236.6,298.3z"/>
<path class="st0" d="M436.7,378.9H236.6c-7.8,0-14.1,6.3-14.1,14.1s6.3,14.1,14.1,14.1h200.2c7.8,0,14.1-6.3,14.1-14.1
	S444.5,378.9,436.7,378.9z"/>
<path class="st0" d="M362.9,435.8H236.6c-7.8,0-14.1,6.3-14.1,14.1s6.3,14.1,14.1,14.1h126.3c7.8,0,14.1-6.3,14.1-14.1
	S370.7,435.8,362.9,435.8z"/>
</svg>
