<?xml version="1.0" encoding="UTF-8"?> <svg xmlns="http://www.w3.org/2000/svg" xmlns:xlink="http://www.w3.org/1999/xlink" version="1.1" id="Layer_1" x="0px" y="0px" viewBox="0 0 1236.9 1236.9" style="enable-background:new 0 0 1236.9 1236.9;" xml:space="preserve"> <style type="text/css"> .st0{fill:#614280;} </style> <path class="st0" d="M1198.1,1106.6L884.4,791.2c8.8-12,15-20.4,19.4-26.4l0.5-0.7c3.5-4.6,6.9-9.3,10.2-14.1l0.3-0.4h0 c122.9-176.6,95.7-426.4-66.8-588.8C757.2,70,636.5,20,508.1,20C379.7,20,259,70,168.1,160.8c-90.8,90.8-140.8,211.5-140.8,340 c0,128.4,50,249.2,140.8,340c90.6,90.6,211,140.4,339.1,140.4c76.8,0,153.3-18.6,221.8-54c7.7-4.3,30.5-17.6,48.8-32.4l318.5,311.2 c1.9,1.9,12.2,11.4,27.1,11.4c6.6,0,16.3-1.9,25.8-11.1l15.9-15.4c12.2-11.7,24.9-24,34.1-33.2 C1217.1,1140,1208.5,1117.6,1198.1,1106.6L1198.1,1106.6z M505.8,149.4c193.5,0,351,157.4,351,351c0,193.5-157.4,351-351,351 s-351-157.5-351-351C154.9,306.8,312.3,149.4,505.8,149.4L505.8,149.4z"></path> </svg> 