<?xml version="1.0" encoding="UTF-8"?> <svg xmlns="http://www.w3.org/2000/svg" id="Layer_1" data-name="Layer 1" viewBox="0 0 512 512"><defs><style> .cls-1 { fill: #fff; } </style></defs><path class="cls-1" d="m83.24,137.52v25.36h-25.36c-17.54,0-31.28,13.74-31.28,31.28v180.32c0,17.54,13.74,31.28,31.28,31.28h346.96c17.54,0,31.28-13.74,31.28-31.28v-25.36h25.36c17.54,0,31.28-13.74,31.28-31.28v-180.32c.21-8.24-2.84-16-8.59-21.9-5.81-5.96-13.91-9.39-22.22-9.39H114.52c-17.54,0-31.28,13.74-31.28,31.28Zm-25.36,243.45c-3.12,0-6.48-2.48-6.48-6.48v-180.32c0-3.81,2.66-6.48,6.48-6.48h91.27l-3.76,3.11c-28.09,23.25-44.21,57.34-44.21,93.53s16.11,70.28,44.21,93.53l3.76,3.12H57.88Zm164.27-.47c-53.03,0-96.17-43.14-96.17-96.17s43.14-96.17,96.17-96.17,96.17,43.14,96.17,96.17-43.14,96.17-96.17,96.17Zm189.64-6.01c0,3.82-2.66,6.48-6.48,6.48h-110.15l3.76-3.12c28.09-23.25,44.21-57.34,44.21-93.53s-16.11-70.28-44.21-93.53l-3.76-3.11h110.15c3.81,0,6.48,2.66,6.48,6.48v180.32Zm56.17-236.97v178.56h.47v1.76c0,3.82-2.66,6.48-6.48,6.48h-25.36v-130.16c0-17.54-13.74-31.28-31.28-31.28H108.04v-25.36c0-3.81,2.66-6.48,6.48-6.48h346.96c3.81,0,6.48,2.67,6.48,6.48Z"></path><path class="cls-1" d="m188.78,310.34l9.12-3.53v-14.47h-9.12v-16.53h9.12v-6.2c0-9.73,2.92-17.99,8.39-23.46,5.47-5.47,13.13-8.39,23.22-8.39,13.25,0,22,5.23,28.33,12.28l-14.34,15.68c-3.65-4.38-7.42-6.93-12.4-6.93-6.08,0-9.73,4.13-9.73,10.82v6.2h26.26v16.53h-26.26v13.37h35.62v18.6h-68.2v-13.98Z"></path></svg> 