<?xml version="1.0" encoding="UTF-8"?> <svg xmlns="http://www.w3.org/2000/svg" id="Layer_1" data-name="Layer 1" viewBox="0 0 512 512"><defs><style> .cls-1 { fill: #fff; } </style></defs><path class="cls-1" d="m387.94,238.39c-17.25-17.37-40.19-26.93-64.6-26.93s-47.35,9.56-64.6,26.92l-2.75,2.76-2.74-2.76c-17.25-17.37-40.19-26.93-64.6-26.93s-47.35,9.56-64.6,26.93c-35.54,35.78-35.54,94,0,129.78l120.8,121.63c2.95,2.99,6.9,4.63,11.13,4.63h0c4.23,0,8.19-1.65,11.13-4.63l120.81-121.64c35.54-35.78,35.54-94,0-129.78Zm-22.2,107.69l-109.72,110.44-109.71-110.44c-23.44-23.6-23.44-62,0-85.6,11.29-11.4,26.33-17.67,42.34-17.67h.05c15.99,0,31.03,6.28,42.35,17.68l13.86,13.94c2.95,2.99,6.9,4.63,11.13,4.63s8.19-1.65,11.12-4.62l13.87-13.96c11.32-11.4,26.36-17.68,42.35-17.68s31.03,6.28,42.35,17.68c23.44,23.6,23.44,61.99,0,85.59Zm-109.74-153.6c48.23,0,87.46-39.24,87.46-87.46s-39.24-87.46-87.46-87.46-87.46,39.24-87.46,87.46,39.24,87.46,87.46,87.46Zm0-143.03c30.64,0,55.56,24.92,55.56,55.56s-24.92,55.56-55.56,55.56-55.56-24.92-55.56-55.56,24.92-55.56,55.56-55.56Z"></path></svg> 