<?xml version="1.0" encoding="UTF-8"?> <svg xmlns="http://www.w3.org/2000/svg" id="Layer_1" data-name="Layer 1" viewBox="0 0 512 512"><defs><style> .cls-1 { fill: #fff; stroke: #fff; stroke-miterlimit: 10; stroke-width: 3px; } </style></defs><path class="cls-1" d="m457.42,80.35c-11.95-11.95-26.02-21.11-41.77-27.31-16.36-6.37-33.73-9.21-51.71-8.38-37.41,1.73-74.6,19.04-107.94,50.26-33.34-31.21-70.52-48.58-107.94-50.26-17.98-.84-35.4,2.01-51.71,8.38-15.8,6.14-29.82,15.36-41.77,27.31-11.95,11.95-21.16,26.02-27.31,41.77-6.37,16.36-9.21,33.73-8.38,51.71,1.79,39.65,21.16,79.01,56.01,113.86l9.6,9.6c-4.02,12.79-.95,27.31,9.16,37.41,7.26,7.26,16.75,10.83,26.24,10.83,1.12,0,2.23-.06,3.35-.17-.17,1.29-.33,2.62-.39,3.91-.5,10.44,3.13,20.1,10.27,27.25,6.87,6.87,16.03,10.27,25.41,10.27,1.79,0,3.63-.11,5.42-.39-.17,1.12-.28,2.23-.33,3.35-.56,10.55,3.02,20.27,10.16,27.42,6.81,6.81,15.91,10.22,25.29,10.22,1.95,0,3.91-.17,5.86-.45-1.01,10.61,2.57,21.61,10.72,29.71,7.26,7.26,16.75,10.83,26.24,10.83s19.04-3.63,26.24-10.83l29.43-29.43c6.2-6.2,9.72-14.07,10.61-22.17,1.34.56,2.68,1.01,4.02,1.4,3.29.95,6.76,1.4,10.16,1.4,9.94,0,19.26-3.85,26.24-10.89,7.93-7.93,11.78-18.99,10.67-29.99,1.23.11,2.46.17,3.74.17,9.94,0,19.26-3.85,26.24-10.89,7.93-7.93,11.78-18.99,10.67-29.99,1.23.11,2.51.17,3.74.17,9.94,0,19.26-3.85,26.24-10.89,8.32-8.32,12.12-20.05,10.5-31.49,32.78-34.01,50.98-72.2,52.66-110.56.78-17.98-2.01-35.35-8.43-51.71-6.08-15.47-15.29-29.48-27.24-41.43h0ZM105.47,323.02l-5.92,5.92,5.92-5.92c-7.93-7.93-7.93-20.88,0-28.81l29.43-29.43c7.93-7.93,20.88-7.93,28.81,0,7.93,7.93,7.93,20.88,0,28.81l-29.43,29.43c-7.93,7.93-20.89,7.93-28.81,0Zm39.48,41.82c-7.93-7.93-7.04-21.78,2.01-30.82l32.39-32.39c4.52-4.52,10.27-7.15,16.25-7.43h1.06c5.25,0,10.05,1.9,13.57,5.42,7.93,7.93,7.04,21.78-2.01,30.82l-32.39,32.39c-9.1,9.05-22.95,9.94-30.88,2.01h0Zm40.65,40.71c-3.74-3.74-5.58-8.93-5.3-14.63.33-6.09,3.02-11.95,7.65-16.53l32.83-32.83c4.58-4.58,10.44-7.31,16.53-7.65.39,0,.84-.06,1.23-.06,5.25,0,9.94,1.84,13.4,5.3,7.93,7.93,6.87,21.94-2.34,31.16l-4.36,4.36-.22.22-28.53,28.53c-9.22,8.99-23.01,9.94-30.88,2.12h0Zm100.12,10l-29.43,29.43c-7.93,7.93-20.88,7.93-28.81,0-7.93-7.93-7.93-20.88,0-28.81l.67-.67c.17-.17.33-.28.45-.45l28.53-28.53c7.98-7.71,20.72-7.65,28.59.22,7.93,7.99,7.93,20.89,0,28.82h0Zm51.15-30.21c-3.85,3.85-8.99,5.97-14.41,5.97-1.9,0-3.8-.28-5.58-.78-3.29-.95-6.37-2.74-8.82-5.19l-10.44-10.44c-6.98-6.98-16.08-10.61-25.24-10.83,3.85-13.01,1.12-27.08-8.54-36.74-7.15-7.15-16.86-10.78-27.42-10.16-1.45.06-2.9.22-4.36.5,1.23-10.89-2.07-21.89-10-29.87-7.15-7.15-16.81-10.78-27.25-10.27-2.85.11-5.64.61-8.38,1.34-.11-9.38-3.69-18.76-10.83-25.91-14.46-14.46-38.03-14.46-52.49,0l-29.43,29.43-.28.28-6.65-6.65C16.63,205.87,27.01,131.6,66.38,92.24c38.19-38.19,109.28-49.14,177.51,14.35l-12.23,11.62c-10.67,10.16-18.43,23.06-22.45,37.24-.06.11-.06.22-.06.33l-15.47,64.66c-3.29,13.68,4.19,27.81,17.37,32.83,3.41,1.29,6.98,1.95,10.61,1.95s7.09-.61,10.44-1.9c.39-.11.73-.28,1.12-.45l103.69,103.69c2.4,2.46,4.13,5.36,5.08,8.71,2.06,7.15.05,14.8-5.14,20.05h0Zm40.65-40.65c-3.85,3.85-8.99,5.97-14.41,5.97-1.9,0-3.8-.28-5.58-.78-3.29-.95-6.2-2.62-8.71-5.08l-.11-.11-99.84-99.9c9.44-6.25,19.65-15.8,27.36-30.26l101.29,101.35c2.46,2.46,4.24,5.47,5.19,8.82,2.01,7.09,0,14.74-5.19,19.99h0Zm40.65-40.71c-3.85,3.85-8.99,5.97-14.41,5.97-1.9,0-3.8-.28-5.58-.78-3.29-.95-6.37-2.74-8.82-5.19l-106.21-106.21c1.17-3.85,2.18-7.82,2.96-11.95,1.29-6.65,4.41-12.62,9.1-17.25l8.21-8.21,114.75,114.75c2.46,2.46,4.24,5.47,5.19,8.82,2.01,7.15.06,14.85-5.19,20.04h0Zm15.36-36.63c-1.06-1.4-2.23-2.74-3.46-4.02l-120.72-120.67c-3.29-3.29-8.6-3.29-11.84,0l-14.13,14.07c-7.04,7.04-11.78,15.97-13.68,25.91-.95,5.03-2.29,9.83-3.91,14.29-.06.11-.06.22-.11.33-9.72,26.02-28.81,36.46-39.37,40.37-3.02,1.12-6.31,1.12-9.27,0-5.3-2.01-8.32-7.71-7.04-13.29l15.41-64.49c3.18-11.22,9.32-21.44,17.81-29.48l18.54-17.65.11-.11c70.08-70.08,144.34-59.64,183.66-20.33,37.86,37.64,49.03,107.55-12.01,175.06h0Z"></path></svg> 