<?xml version="1.0" encoding="UTF-8"?> <svg xmlns="http://www.w3.org/2000/svg" xmlns:xlink="http://www.w3.org/1999/xlink" version="1.1" id="Layer_1" x="0px" y="0px" viewBox="0 0 880.35 313.34" style="enable-background:new 0 0 880.35 313.34;" xml:space="preserve"> <style type="text/css"> .st0{fill:#76509B;} .st1{fill:#09416B;} .st2{clip-path:url(#SVGID_00000116949704347232963760000012446131209263620239_);} .st3{fill:none;stroke:#09416B;stroke-width:9.6432;stroke-miterlimit:10;} .st4{fill:none;stroke:#09416B;stroke-width:9.6427;stroke-miterlimit:10;} .st5{fill:none;stroke:#76509B;stroke-width:9.6432;stroke-miterlimit:10;} .st6{fill:none;stroke:#C6B3D8;stroke-width:9.6432;stroke-miterlimit:10;} .st7{fill:none;stroke:#038CAD;stroke-width:9.6427;stroke-miterlimit:10;} .st8{fill:none;stroke:#37B8E0;stroke-width:9.6427;stroke-miterlimit:10;} .st9{fill:none;stroke:#3AAA35;stroke-width:9.6432;stroke-miterlimit:10;} .st10{fill:none;stroke:#FFD600;stroke-width:9.6432;stroke-miterlimit:10;} .st11{fill:none;stroke:#A0C519;stroke-width:9.6432;stroke-miterlimit:10;} .st12{fill:none;stroke:#F9B000;stroke-width:9.6432;stroke-miterlimit:10;} </style> <g> <g> <g> <path class="st0" d="M413.04,117.23c1.29,4.82,1.41,8.82,1.53,8.82h0.23c0,0,0.36-4.12,1.41-8.82l13.76-57.76h15.64l-21.52,83.52 h-17.53l-12.82-49.41c-1.41-5.41-2.12-10.94-2.12-10.94h-0.24c0,0-0.7,5.53-2.11,10.94l-3.83,14.77l-8.99,34.64h-17.53 l-20.94-83.52h15.64l13.17,57.76c1.06,4.7,1.41,8.82,1.41,8.82h0.24c0.12,0,0.24-4,1.53-8.82l15.06-57.76h13.18L413.04,117.23z"></path> <path class="st0" d="M478.75,81.59c18.35,0,33.06,13.06,33.06,31.41c0,18.47-14.7,31.41-32.94,31.41 c-18.35,0-33.06-12.94-33.06-31.41C445.81,94.65,460.52,81.59,478.75,81.59z M478.87,131.7c9.65,0,17.76-7.52,17.76-18.7 c0-11.06-8.12-18.71-17.76-18.71c-9.76,0-17.88,7.65-17.88,18.71C460.98,124.17,469.1,131.7,478.87,131.7z"></path> <path class="st0" d="M520.73,83h14.35v6.94c0,2.23-0.24,4.12-0.24,4.12h0.24c2.59-5.06,9.18-12.47,21.29-12.47 c13.29,0,20.82,6.94,20.82,22.82v38.59h-14.82v-35.52c0-7.29-1.88-12.23-9.53-12.23c-8,0-13.88,5.06-16.11,12.23 c-0.82,2.47-1.06,5.17-1.06,8v27.53h-14.94V83z"></path> <path class="st0" d="M613.2,81.59c13.18,0,17.29,7.65,17.29,7.65h0.24c0,0-0.12-1.53-0.12-3.41V59.47h14.94v83.52h-14.11v-4.94 c0-2.24,0.23-3.88,0.23-3.88h-0.23c0,0-5.06,10.23-18.82,10.23c-16.23,0-26.58-12.82-26.58-31.41 C586.03,93.94,597.32,81.59,613.2,81.59z M616.02,131.82c7.77,0,15.06-5.64,15.06-18.94c0-9.29-4.94-18.47-14.94-18.47 c-8.23,0-15.06,6.7-15.06,18.59C601.08,124.41,607.2,131.82,616.02,131.82z"></path> <path class="st0" d="M685.01,81.59c17.29,0,26.58,12.58,26.58,28.47c0,1.77-0.36,5.77-0.36,5.77h-41.4 c0.94,10.47,9.06,15.88,18,15.88c9.64,0,17.29-6.59,17.29-6.59l5.77,10.7c0,0-9.18,8.59-24.12,8.59 c-19.88,0-32.23-14.35-32.23-31.41C654.54,94.53,667.13,81.59,685.01,81.59z M696.54,105.59c-0.24-8.12-5.29-12.47-11.88-12.47 c-7.65,0-12.94,4.7-14.35,12.47H696.54z"></path> <path class="st0" d="M721.18,83h14.35v10.35c0,2.23-0.24,4.23-0.24,4.23h0.24c2.71-8.59,9.88-15.41,19.06-15.41 c1.41,0,2.71,0.24,2.71,0.24v14.7c0,0-1.53-0.24-3.53-0.24c-6.35,0-13.53,3.65-16.35,12.59c-0.94,2.94-1.29,6.24-1.29,9.76v23.76 h-14.94V83z"></path> </g> <g> <g> <path class="st1" d="M346.41,164.26h7.5v34.83h17.85v6.45h-25.35V164.26z"></path> <path class="st1" d="M388.03,175.19c8.55,0,13.14,6.22,13.14,14.07c0,0.87-0.18,2.85-0.18,2.85h-20.47 c0.46,5.17,4.48,7.85,8.9,7.85c4.77,0,8.55-3.26,8.55-3.26l2.85,5.29c0,0-4.54,4.25-11.92,4.25c-9.83,0-15.93-7.09-15.93-15.53 C372.97,181.59,379.19,175.19,388.03,175.19z M393.73,187.06c-0.12-4.01-2.62-6.16-5.87-6.16c-3.78,0-6.4,2.33-7.09,6.16H393.73 z"></path> <path class="st1" d="M420.98,186.94h0.99v-0.41c0-3.89-2.44-5.23-5.7-5.23c-4.24,0-8.14,2.85-8.14,2.85l-2.79-5.29 c0,0,4.59-3.66,11.63-3.66c7.79,0,12.33,4.3,12.33,11.8v18.55h-6.8v-2.44c0-1.16,0.12-2.09,0.12-2.09h-0.12 c0.06,0-2.27,5.23-9.01,5.23c-5.29,0-10.06-3.31-10.06-9.25C403.42,187.58,416.15,186.94,420.98,186.94z M415.34,200.49 c3.9,0,6.69-4.19,6.69-7.79V192h-1.28c-3.78,0-9.89,0.52-9.89,4.65C410.86,198.63,412.31,200.49,415.34,200.49z"></path> <path class="st1" d="M435.35,175.89h7.09v5.12c0,1.1-0.12,2.09-0.12,2.09h0.12c1.34-4.24,4.89-7.62,9.42-7.62 c0.7,0,1.34,0.12,1.34,0.12v7.27c0,0-0.76-0.12-1.74-0.12c-3.14,0-6.69,1.8-8.08,6.22c-0.46,1.45-0.64,3.08-0.64,4.83v11.75 h-7.38V175.89z"></path> <path class="st1" d="M456.09,175.89h7.09v3.43c0,1.1-0.12,2.04-0.12,2.04h0.12c1.28-2.5,4.54-6.16,10.53-6.16 c6.57,0,10.29,3.43,10.29,11.28v19.07h-7.33v-17.56c0-3.6-0.93-6.05-4.71-6.05c-3.95,0-6.86,2.5-7.97,6.05 c-0.41,1.22-0.52,2.56-0.52,3.95v13.61h-7.38V175.89z"></path> <path class="st1" d="M490.1,164.26h7.33v6.57h-7.33V164.26z M490.1,175.89h7.38v29.65h-7.38V175.89z"></path> <path class="st1" d="M503.75,175.89h7.09v3.43c0,1.1-0.12,2.04-0.12,2.04h0.12c1.28-2.5,4.54-6.16,10.53-6.16 c6.57,0,10.29,3.43,10.29,11.28v19.07h-7.33v-17.56c0-3.6-0.93-6.05-4.71-6.05c-3.95,0-6.86,2.5-7.97,6.05 c-0.41,1.22-0.52,2.56-0.52,3.95v13.61h-7.38V175.89z"></path> <path class="st1" d="M549.16,211.48c4.53,0,8.37-1.92,8.37-7.21v-1.74c0-0.7,0.12-1.57,0.12-1.57h-0.12 c-1.74,2.62-4.3,4.01-8.26,4.01c-8.49,0-13.31-6.86-13.31-15s4.59-14.77,13.14-14.77c6.45,0,8.78,3.78,8.78,3.78h0.17 c0,0-0.06-0.35-0.06-0.81v-2.27h6.92v27.85c0,10.18-7.91,14.01-15.64,14.01c-3.72,0-7.67-1.05-10.52-2.56l2.21-5.64 C540.96,209.56,544.68,211.48,549.16,211.48z M557.71,190.02c0-6.75-3.32-8.55-7.33-8.55c-4.48,0-6.98,3.26-6.98,8.26 c0,5.17,2.67,9.01,7.44,9.01C554.39,198.74,557.71,196.71,557.71,190.02z"></path> </g> <g> <path class="st1" d="M587.37,164.22h15.95c7.74,0,13.16,5.41,13.16,13.45c0,8.03-5.41,13.62-13.16,13.62h-8.44v14.26h-7.51 V164.22z M601.93,184.76c4.37,0,6.93-2.79,6.93-7.1c0-4.25-2.56-6.98-6.81-6.98h-7.16v14.09H601.93z"></path> <path class="st1" d="M635.29,186.92h0.99v-0.41c0-3.9-2.45-5.24-5.71-5.24c-4.25,0-8.15,2.85-8.15,2.85l-2.79-5.3 c0,0,4.6-3.67,11.64-3.67c7.8,0,12.34,4.31,12.34,11.82v18.57h-6.81v-2.45c0-1.16,0.12-2.1,0.12-2.1h-0.12 c0.06,0-2.27,5.24-9.02,5.24c-5.3,0-10.07-3.32-10.07-9.26C617.71,187.56,630.46,186.92,635.29,186.92z M629.64,200.48 c3.9,0,6.69-4.19,6.69-7.8v-0.7h-1.28c-3.78,0-9.9,0.52-9.9,4.66C625.16,198.62,626.61,200.48,629.64,200.48z"></path> <path class="st1" d="M649.67,175.86h7.1v5.12c0,1.1-0.12,2.09-0.12,2.09h0.12c1.34-4.25,4.89-7.62,9.43-7.62 c0.7,0,1.34,0.12,1.34,0.12v7.28c0,0-0.76-0.12-1.75-0.12c-3.14,0-6.69,1.81-8.09,6.23c-0.46,1.46-0.64,3.09-0.64,4.83v11.76 h-7.39V175.86z"></path> <path class="st1" d="M673.03,182.2h-3.84v-5.88h4.02v-8.56h7.22v8.56h6.75v5.88h-6.75v11.53c0,4.89,3.84,5.59,5.88,5.59 c0.82,0,1.34-0.11,1.34-0.11v6.46c0,0-0.87,0.17-2.27,0.17c-4.13,0-12.34-1.22-12.34-11.18V182.2z"></path> <path class="st1" d="M691.73,175.86h7.1v3.43c0,1.1-0.12,2.04-0.12,2.04h0.12c1.28-2.5,4.54-6.17,10.54-6.17 c6.58,0,10.3,3.43,10.3,11.29v19.09h-7.33v-17.58c0-3.61-0.93-6.05-4.71-6.05c-3.96,0-6.87,2.5-7.97,6.05 c-0.41,1.22-0.53,2.56-0.53,3.96v13.62h-7.39V175.86z"></path> <path class="st1" d="M738.88,175.16c8.56,0,13.15,6.23,13.15,14.09c0,0.87-0.18,2.85-0.18,2.85h-20.49 c0.46,5.18,4.48,7.86,8.91,7.86c4.77,0,8.56-3.26,8.56-3.26l2.85,5.3c0,0-4.54,4.25-11.93,4.25c-9.84,0-15.95-7.1-15.95-15.54 C723.81,181.56,730.03,175.16,738.88,175.16z M744.59,187.04c-0.12-4.02-2.62-6.17-5.88-6.17c-3.78,0-6.4,2.33-7.1,6.17H744.59z "></path> <path class="st1" d="M756.78,175.86h7.1v5.12c0,1.1-0.12,2.09-0.12,2.09h0.12c1.34-4.25,4.89-7.62,9.43-7.62 c0.7,0,1.34,0.12,1.34,0.12v7.28c0,0-0.76-0.12-1.75-0.12c-3.14,0-6.69,1.81-8.09,6.23c-0.46,1.46-0.64,3.09-0.64,4.83v11.76 h-7.39V175.86z"></path> <path class="st1" d="M779.23,196.7c0,0,3.26,3.26,8.09,3.26c2.09,0,3.9-0.93,3.9-2.68c0-4.42-14.44-3.84-14.44-13.39 c0-5.53,4.95-8.73,11.35-8.73c6.69,0,9.95,3.38,9.95,3.38l-2.74,5.47c0,0-2.74-2.56-7.28-2.56c-1.92,0-3.78,0.82-3.78,2.68 c0,4.19,14.44,3.67,14.44,13.21c0,4.95-4.31,8.91-11.35,8.91c-7.39,0-11.53-4.37-11.53-4.37L779.23,196.7z"></path> <path class="st1" d="M803.19,164.22h7.39v14.32c0,1.45-0.12,2.5-0.12,2.5h0.12c1.46-2.85,5.06-5.88,10.25-5.88 c6.58,0,10.3,3.43,10.3,11.29v19.09h-7.33v-17.58c0-3.61-0.93-6.05-4.71-6.05c-3.9,0-6.93,2.56-8.03,6.17 c-0.35,1.16-0.47,2.44-0.47,3.84v13.62h-7.39V164.22z"></path> <path class="st1" d="M837.24,164.22h7.33v6.58h-7.33V164.22z M837.24,175.86h7.39v29.69h-7.39V175.86z"></path> <path class="st1" d="M850.9,175.86h6.75v2.15c0,1.11-0.12,2.04-0.12,2.04h0.12c0,0,2.56-4.89,9.55-4.89 c8.03,0,13.15,6.34,13.15,15.54c0,9.43-5.76,15.54-13.56,15.54c-5.88,0-8.5-4.07-8.5-4.07h-0.12c0,0,0.12,1.05,0.12,2.56v12.46 h-7.39V175.86z M865.45,200.02c4.07,0,7.45-3.32,7.45-9.2c0-5.65-3.03-9.31-7.39-9.31c-3.84,0-7.45,2.79-7.45,9.37 C858.06,195.48,860.56,200.02,865.45,200.02z"></path> </g> </g> <g> <path class="st0" d="M346.41,229.29h13.21v3.45h-9.2v5.78h7.43v3.45h-7.43v5.94h9.7v3.45h-13.71V229.29z"></path> <path class="st0" d="M368.37,235.14c3.48,0,4.57,2.02,4.57,2.02H373c0,0-0.03-0.4-0.03-0.9v-6.96h3.95v22.07h-3.73v-1.31 c0-0.59,0.06-1.03,0.06-1.03h-0.06c0,0-1.34,2.7-4.97,2.7c-4.29,0-7.03-3.39-7.03-8.3C361.19,238.4,364.17,235.14,368.37,235.14z M369.12,248.41c2.05,0,3.98-1.49,3.98-5c0-2.46-1.31-4.88-3.95-4.88c-2.18,0-3.98,1.77-3.98,4.91 C365.17,246.45,366.79,248.41,369.12,248.41z"></path> <path class="st0" d="M379.92,235.51h3.95v9.39c0,1.93,0.5,3.23,2.46,3.23c2.86,0,4.45-2.52,4.45-5.35v-7.27h3.95v15.85h-3.79 v-1.8c0-0.62,0.06-1.12,0.06-1.12h-0.06c-0.78,1.65-2.8,3.3-5.5,3.3c-3.39,0-5.5-1.71-5.5-6.03V235.51z"></path> <path class="st0" d="M405.44,235.14c4.13,0,6.09,2.36,6.09,2.36l-1.74,2.7c0,0-1.65-1.71-4.13-1.71c-2.92,0-4.82,2.21-4.82,4.91 c0,2.67,1.93,4.97,4.94,4.97c2.67,0,4.66-2.02,4.66-2.02l1.52,2.8c0,0-2.27,2.58-6.53,2.58c-5.25,0-8.61-3.7-8.61-8.3 C396.83,238.93,400.19,235.14,405.44,235.14z"></path> <path class="st0" d="M422,241.41h0.53v-0.22c0-2.08-1.31-2.8-3.05-2.8c-2.27,0-4.35,1.52-4.35,1.52l-1.49-2.83 c0,0,2.46-1.96,6.22-1.96c4.17,0,6.59,2.3,6.59,6.31v9.92h-3.64v-1.31c0-0.62,0.06-1.12,0.06-1.12h-0.06 c0.03,0-1.21,2.8-4.82,2.8c-2.83,0-5.38-1.77-5.38-4.94C412.61,241.76,419.42,241.41,422,241.41z M418.99,248.66 c2.08,0,3.57-2.24,3.57-4.17v-0.37h-0.68c-2.02,0-5.28,0.28-5.28,2.49C416.59,247.66,417.37,248.66,418.99,248.66z"></path> <path class="st0" d="M429.76,238.9h-2.05v-3.14h2.15v-4.57h3.85v4.57h3.61v3.14h-3.61v6.16c0,2.61,2.05,2.98,3.14,2.98 c0.44,0,0.72-0.06,0.72-0.06v3.45c0,0-0.47,0.09-1.21,0.09c-2.21,0-6.59-0.65-6.59-5.97V238.9z"></path> <path class="st0" d="M446.1,235.14c4.57,0,7.03,3.33,7.03,7.52c0,0.47-0.09,1.52-0.09,1.52h-10.94c0.25,2.77,2.39,4.2,4.76,4.2 c2.55,0,4.57-1.74,4.57-1.74l1.52,2.83c0,0-2.42,2.27-6.37,2.27c-5.25,0-8.52-3.79-8.52-8.3 C438.05,238.55,441.38,235.14,446.1,235.14z M449.15,241.48c-0.06-2.15-1.4-3.3-3.14-3.3c-2.02,0-3.42,1.24-3.79,3.3H449.15z"></path> <path class="st0" d="M463.51,226.87h1.96v29.38h-1.96V226.87z"></path> <path class="st0" d="M477.56,229.29h13.21v3.45h-9.2v5.78H489v3.45h-7.43v5.94h9.7v3.45h-13.71V229.29z"></path> <path class="st0" d="M493.6,235.51h3.79v1.83c0,0.59-0.06,1.09-0.06,1.09h0.06c0.78-1.55,2.67-3.3,5.16-3.3 c2.42,0,3.98,1.12,4.63,3.26h0.06c0.87-1.71,2.92-3.26,5.41-3.26c3.3,0,5.19,1.87,5.19,6.03v10.2h-3.95v-9.45 c0-1.8-0.34-3.17-2.18-3.17c-2.02,0-3.36,1.62-3.82,3.61c-0.16,0.62-0.19,1.31-0.19,2.05v6.96h-3.95v-9.45 c0-1.71-0.28-3.17-2.14-3.17c-2.05,0-3.39,1.62-3.89,3.64c-0.16,0.59-0.19,1.31-0.19,2.02v6.96h-3.95V235.51z"></path> <path class="st0" d="M520.91,235.51h3.61v1.15c0,0.59-0.06,1.09-0.06,1.09h0.06c0,0,1.37-2.61,5.1-2.61 c4.29,0,7.03,3.39,7.03,8.3c0,5.04-3.08,8.3-7.24,8.3c-3.14,0-4.54-2.18-4.54-2.18h-0.06c0,0,0.06,0.56,0.06,1.37v6.65h-3.95 V235.51z M528.68,248.41c2.18,0,3.98-1.77,3.98-4.91c0-3.02-1.62-4.97-3.95-4.97c-2.05,0-3.98,1.49-3.98,5 C524.73,245.98,526.07,248.41,528.68,248.41z"></path> <path class="st0" d="M546.54,235.14c4.85,0,8.74,3.45,8.74,8.3c0,4.88-3.89,8.3-8.7,8.3c-4.85,0-8.74-3.42-8.74-8.3 C537.84,238.59,541.72,235.14,546.54,235.14z M546.57,248.38c2.55,0,4.69-1.99,4.69-4.94c0-2.92-2.15-4.94-4.69-4.94 c-2.58,0-4.73,2.02-4.73,4.94C541.85,246.39,543.99,248.38,546.57,248.38z"></path> <path class="st0" d="M555.15,235.51h4.17l2.77,10.41c0.22,0.84,0.31,1.68,0.31,1.68h0.06c0,0,0.16-0.84,0.37-1.68l2.92-10.38 h3.51l2.92,10.38c0.22,0.84,0.34,1.68,0.34,1.68h0.06c0,0,0.12-0.84,0.34-1.68l2.77-10.41h4.1l-4.82,15.85h-4.38l-2.67-9.05 c-0.25-0.84-0.4-1.71-0.4-1.71h-0.06c0,0-0.12,0.87-0.37,1.71l-2.67,9.05H560L555.15,235.51z"></path> <path class="st0" d="M587.88,235.14c4.57,0,7.03,3.33,7.03,7.52c0,0.47-0.09,1.52-0.09,1.52h-10.94c0.25,2.77,2.39,4.2,4.76,4.2 c2.55,0,4.57-1.74,4.57-1.74l1.52,2.83c0,0-2.42,2.27-6.37,2.27c-5.25,0-8.52-3.79-8.52-8.3 C579.82,238.55,583.15,235.14,587.88,235.14z M590.92,241.48c-0.06-2.15-1.4-3.3-3.14-3.3c-2.02,0-3.42,1.24-3.79,3.3H590.92z"></path> <path class="st0" d="M597.19,235.51h3.79v2.74c0,0.59-0.06,1.12-0.06,1.12h0.06c0.72-2.27,2.61-4.07,5.04-4.07 c0.37,0,0.72,0.06,0.72,0.06v3.89c0,0-0.4-0.06-0.93-0.06c-1.68,0-3.57,0.96-4.32,3.33c-0.25,0.78-0.34,1.65-0.34,2.58v6.28 h-3.95V235.51z"></path> <path class="st0" d="M616.53,226.87h1.96v29.38h-1.96V226.87z"></path> <path class="st0" d="M630.58,229.29h13.21v3.45h-9.2v5.78h7.43v3.45h-7.43v5.94h9.7v3.45h-13.71V229.29z"></path> <path class="st0" d="M646.62,235.51h3.79v1.83c0,0.59-0.06,1.09-0.06,1.09h0.06c0.68-1.34,2.42-3.3,5.63-3.3 c3.51,0,5.5,1.83,5.5,6.03v10.2h-3.92v-9.39c0-1.93-0.5-3.23-2.52-3.23c-2.11,0-3.67,1.34-4.26,3.23 c-0.22,0.65-0.28,1.37-0.28,2.11v7.27h-3.95V235.51z"></path> <path class="st0" d="M670.65,254.53c2.42,0,4.48-1.03,4.48-3.85v-0.93c0-0.37,0.06-0.84,0.06-0.84h-0.06 c-0.93,1.4-2.3,2.15-4.41,2.15c-4.54,0-7.12-3.67-7.12-8.02s2.46-7.9,7.03-7.9c3.45,0,4.69,2.02,4.69,2.02h0.09 c0,0-0.03-0.19-0.03-0.44v-1.21h3.7v14.89c0,5.44-4.23,7.49-8.36,7.49c-1.99,0-4.1-0.56-5.63-1.37l1.18-3.02 C666.27,253.51,668.26,254.53,670.65,254.53z M675.22,243.06c0-3.61-1.77-4.57-3.92-4.57c-2.39,0-3.73,1.74-3.73,4.41 c0,2.77,1.43,4.82,3.98,4.82C673.45,247.73,675.22,246.64,675.22,243.06z"></path> <path class="st0" d="M690.42,241.41h0.53v-0.22c0-2.08-1.31-2.8-3.05-2.8c-2.27,0-4.35,1.52-4.35,1.52l-1.49-2.83 c0,0,2.46-1.96,6.22-1.96c4.17,0,6.59,2.3,6.59,6.31v9.92h-3.64v-1.31c0-0.62,0.06-1.12,0.06-1.12h-0.06 c0.03,0-1.21,2.8-4.82,2.8c-2.83,0-5.38-1.77-5.38-4.94C681.04,241.76,687.84,241.41,690.42,241.41z M687.41,248.66 c2.08,0,3.57-2.24,3.57-4.17v-0.37h-0.68c-2.02,0-5.28,0.28-5.28,2.49C685.02,247.66,685.79,248.66,687.41,248.66z"></path> <path class="st0" d="M703.96,254.53c2.42,0,4.48-1.03,4.48-3.85v-0.93c0-0.37,0.06-0.84,0.06-0.84h-0.06 c-0.93,1.4-2.3,2.15-4.41,2.15c-4.54,0-7.12-3.67-7.12-8.02s2.46-7.9,7.03-7.9c3.45,0,4.69,2.02,4.69,2.02h0.09 c0,0-0.03-0.19-0.03-0.44v-1.21h3.7v14.89c0,5.44-4.23,7.49-8.36,7.49c-1.99,0-4.1-0.56-5.63-1.37l1.18-3.02 C699.58,253.51,701.57,254.53,703.96,254.53z M708.53,243.06c0-3.61-1.77-4.57-3.92-4.57c-2.39,0-3.73,1.74-3.73,4.41 c0,2.77,1.43,4.82,3.98,4.82C706.76,247.73,708.53,246.64,708.53,243.06z"></path> <path class="st0" d="M722.57,235.14c4.57,0,7.03,3.33,7.03,7.52c0,0.47-0.09,1.52-0.09,1.52h-10.94c0.25,2.77,2.39,4.2,4.76,4.2 c2.55,0,4.57-1.74,4.57-1.74l1.52,2.83c0,0-2.42,2.27-6.37,2.27c-5.25,0-8.52-3.79-8.52-8.3 C714.52,238.55,717.84,235.14,722.57,235.14z M725.61,241.48c-0.06-2.15-1.4-3.3-3.14-3.3c-2.02,0-3.42,1.24-3.79,3.3H725.61z"></path> <path class="st0" d="M739.97,226.87h1.96v29.38h-1.96V226.87z"></path> <path class="st0" d="M754.02,229.29h13.21v3.45h-9.2v5.78h7.43v3.45h-7.43v5.94h9.7v3.45h-13.71V229.29z"></path> <path class="st0" d="M770.07,235.51h3.79v1.83c0,0.59-0.06,1.09-0.06,1.09h0.06c0.68-1.34,2.42-3.3,5.63-3.3 c3.51,0,5.5,1.83,5.5,6.03v10.2h-3.92v-9.39c0-1.93-0.5-3.23-2.52-3.23c-2.11,0-3.67,1.34-4.26,3.23 c-0.22,0.65-0.28,1.37-0.28,2.11v7.27h-3.95V235.51z"></path> <path class="st0" d="M788,235.51h3.79v2.74c0,0.59-0.06,1.12-0.06,1.12h0.06c0.72-2.27,2.61-4.07,5.04-4.07 c0.37,0,0.72,0.06,0.72,0.06v3.89c0,0-0.4-0.06-0.93-0.06c-1.68,0-3.57,0.96-4.32,3.33c-0.25,0.78-0.34,1.65-0.34,2.58v6.28H788 V235.51z"></path> <path class="st0" d="M798.84,229.29h3.92v3.51h-3.92V229.29z M798.84,235.51h3.95v15.85h-3.95V235.51z"></path> <path class="st0" d="M813.48,235.14c4.13,0,6.09,2.36,6.09,2.36l-1.74,2.7c0,0-1.65-1.71-4.13-1.71c-2.92,0-4.82,2.21-4.82,4.91 c0,2.67,1.93,4.97,4.94,4.97c2.67,0,4.66-2.02,4.66-2.02l1.52,2.8c0,0-2.27,2.58-6.53,2.58c-5.25,0-8.61-3.7-8.61-8.3 C804.87,238.93,808.23,235.14,813.48,235.14z"></path> <path class="st0" d="M821.69,229.29h3.95v7.65c0,0.78-0.06,1.34-0.06,1.34h0.06c0.78-1.52,2.7-3.14,5.47-3.14 c3.51,0,5.5,1.83,5.5,6.03v10.2h-3.92v-9.39c0-1.93-0.5-3.23-2.52-3.23c-2.08,0-3.7,1.37-4.29,3.3 c-0.19,0.62-0.25,1.31-0.25,2.05v7.27h-3.95V229.29z"></path> </g> </g> <g> <g> <defs> <path id="SVGID_1_" d="M154.29,10.06C72.21,10.06,5.67,76.6,5.67,158.68S72.21,307.3,154.29,307.3s148.62-66.54,148.62-148.62 S236.37,10.06,154.29,10.06z M154.64,217.03c-32.23,0-58.35-26.13-58.35-58.35s26.12-58.35,58.35-58.35s58.35,26.12,58.35,58.35 S186.87,217.03,154.64,217.03z"></path> </defs> <clipPath id="SVGID_00000176739899263772451050000005537335413751582861_"> <use xlink:href="#SVGID_1_" style="overflow:visible;"></use> </clipPath> <g style="clip-path:url(#SVGID_00000176739899263772451050000005537335413751582861_);"> <g> <line class="st3" x1="100.27" y1="295.47" x2="83.86" y2="23.32"></line> <circle class="st3" cx="154.64" cy="158.68" r="62.39"></circle> <line class="st3" x1="173.3" y1="310.49" x2="28.89" y2="74.53"></line> <line class="st3" x1="295.67" y1="217.54" x2="19.71" y2="229.99"></line> <line class="st4" x1="32.6" y1="250.34" x2="165.24" y2="5.79"></line> <line class="st3" x1="131.87" y1="312.02" x2="55.23" y2="42.82"></line> <path class="st3" d="M64.11,35.73"></path> <path class="st3" d="M307.27,172.34"></path> <line class="st3" x1="8.64" y1="202.08" x2="215.44" y2="18.37"></line> <line class="st3" x1="120.1" y1="9.79" x2="65.5" y2="282.66"></line> <line class="st5" x1="10.21" y1="104.33" x2="288.52" y2="87.56"></line> <line class="st6" x1="303.51" y1="128.05" x2="30.57" y2="71.57"></line> <line class="st3" x1="6.09" y1="123.8" x2="221.22" y2="296.52"></line> <line class="st7" x1="211.4" y1="14.01" x2="223.21" y2="294.93"></line> <line class="st3" x1="300.25" y1="110.87" x2="97.95" y2="299.66"></line> <line class="st3" x1="248.47" y1="278.27" x2="2.17" y2="153.86"></line> <line class="st8" x1="188.22" y1="309.29" x2="243.5" y2="34"></line> <line class="st9" x1="308.29" y1="131.59" x2="72.27" y2="285.99"></line> <line class="st10" x1="147.64" y1="2.07" x2="280.4" y2="281.08"></line> <line class="st11" x1="140.06" y1="310.85" x2="282.33" y2="59.29"></line> <line class="st12" x1="297.66" y1="206.38" x2="95.12" y2="18.93"></line> </g> </g> </g> </g> </g> </svg> 