<?xml version="1.0" encoding="UTF-8"?> <svg xmlns="http://www.w3.org/2000/svg" xmlns:xlink="http://www.w3.org/1999/xlink" version="1.1" id="Layer_1" x="0px" y="0px" viewBox="0 0 28 28" style="enable-background:new 0 0 28 28;" xml:space="preserve"> <style type="text/css"> .st0{fill:#FFFFFF;} </style> <path class="st0" d="M15,18.8c0-0.4-0.3-0.8-0.8-0.8H4.8C4.3,18,4,18.3,4,18.8s0.3,0.8,0.8,0.8h9.5C14.7,19.5,15,19.2,15,18.8z M17.2,12.8l2.8,3c0.1,0.1,0.3,0.2,0.5,0.2s0.4-0.1,0.5-0.2l2.8-3c0.1-0.1,0.2-0.3,0.2-0.5c0-0.7-0.8-1-1.3-0.5l-2.2,2.4l-2.2-2.4 c-0.5-0.5-1.3-0.2-1.3,0.5C17,12.4,17.1,12.6,17.2,12.8L17.2,12.8z M15,13.8c0-0.4-0.3-0.8-0.8-0.8H4.8C4.3,13,4,13.3,4,13.8 s0.3,0.8,0.8,0.8h9.5C14.7,14.5,15,14.2,15,13.8z M15,8.8C15,8.3,14.7,8,14.2,8H4.8C4.3,8,4,8.3,4,8.8s0.3,0.8,0.8,0.8h9.5 C14.7,9.5,15,9.2,15,8.8z"></path> </svg> 