<?xml version="1.0" encoding="UTF-8"?> <svg xmlns="http://www.w3.org/2000/svg" xmlns:xlink="http://www.w3.org/1999/xlink" version="1.1" id="Layer_1" x="0px" y="0px" viewBox="0 0 28 28" style="enable-background:new 0 0 28 28;" xml:space="preserve"> <style type="text/css"> .st0{fill:#FFFFFF;} </style> <path class="st0" d="M18,19c-1.5,1.2-3.4,2-5.5,2C7.8,21,4,17.2,4,12.5S7.8,4,12.5,4S21,7.8,21,12.5c0,2.1-0.8,4-2,5.5l4.8,4.8 c0.1,0.1,0.2,0.3,0.2,0.5c0,0.6-0.5,0.8-0.8,0.8c-0.2,0-0.4-0.1-0.5-0.2C22.7,23.8,18,19,18,19z M12.5,5.5c-3.9,0-7,3.1-7,7 s3.1,7,7,7s7-3.1,7-7S16.4,5.5,12.5,5.5z"></path> </svg> 