<?xml version="1.0" encoding="UTF-8"?> <svg xmlns="http://www.w3.org/2000/svg" id="Layer_1" data-name="Layer 1" viewBox="0 0 512 512"><defs><style> .cls-1 { fill: #fff; stroke: #fff; stroke-linecap: round; stroke-linejoin: round; } </style></defs><path class="cls-1" d="m423.42,25.2c-6.64,1.33-10.91,7.76-9.58,14.36l7.35,36.73-5.15,5.15-4.15-20.78c-1.31-6.61-7.75-10.9-14.36-9.58-6.64,1.33-10.9,7.76-9.58,14.36l7.35,36.73-5.15,5.15-4.15-20.78c-1.31-6.61-7.75-10.9-14.36-9.58-6.64,1.33-10.9,7.76-9.58,14.36l7.35,36.73-21.71,21.71c-76.58-67.6-193.81-65.01-267.01,8.19-76.11,76.11-76.11,199.97,0,276.08,76.11,76.11,199.96,76.11,276.08,0,73.19-73.19,75.79-190.43,8.19-267.01l21.71-21.71,36.73,7.35c4.15.84,8.24-.56,11.03-3.35,1.64-1.64,2.84-3.77,3.33-6.23,1.33-6.61-2.96-13.04-9.58-14.36l-20.78-4.15,5.15-5.15,36.73,7.35c4.15.84,8.24-.56,11.03-3.35,1.64-1.64,2.84-3.77,3.33-6.23,1.33-6.61-2.96-13.04-9.58-14.36l-20.78-4.15,5.15-5.15,36.73,7.35c4.15.84,8.24-.56,11.03-3.35,1.64-1.64,2.84-3.77,3.33-6.23,1.33-6.61-2.96-13.04-9.58-14.36l-24.76-4.95c.09-3.24-1.04-6.5-3.51-8.96-2.47-2.47-5.73-3.61-8.96-3.51l-4.95-24.76c-1.32-6.62-7.75-10.9-14.36-9.58h0Zm-83.89,391.57c-66.6,66.6-174.96,66.6-241.57,0-66.6-66.6-66.6-174.96,0-241.57,63.69-63.69,165.47-66.31,232.5-8.19l-25.88,25.88c-52.68-43.91-131.32-41.23-180.74,8.19-52.32,52.32-52.32,137.48,0,189.8,52.32,52.32,137.48,52.32,189.8,0,49.42-49.42,52.1-128.05,8.19-180.74l25.88-25.88c58.12,67.02,55.5,168.81-8.19,232.5h0Zm-78.42-180.4c-28.57-20.31-68.52-17.75-94.12,7.85-28.55,28.55-28.55,74.98,0,103.53,28.55,28.55,74.98,28.55,103.53,0,25.6-25.6,28.16-65.55,7.85-94.12l26.16-26.16c34.45,43.07,31.77,106.26-8.12,146.15-42.81,42.81-112.48,42.81-155.29,0-42.81-42.81-42.81-112.48,0-155.29,39.89-39.89,103.08-42.57,146.15-8.12l-26.16,26.16Zm-33.73,68.24l33.28-33.28c10.98,18.7,8.63,43.14-7.4,59.17-19.03,19.03-49.99,19.03-69.02,0-19.03-19.03-19.03-49.99,0-69.02,16.03-16.03,40.47-18.38,59.17-7.4l-33.28,33.28c-4.76,4.76-4.76,12.49,0,17.25,4.76,4.76,12.49,4.76,17.25,0h0Z"></path></svg> 