<?xml version="1.0" encoding="UTF-8"?> <svg xmlns="http://www.w3.org/2000/svg" id="Layer_1" data-name="Layer 1" viewBox="0 0 512 512"><defs><style> .cls-1 { fill: #fff; stroke: #fff; stroke-linecap: round; stroke-linejoin: round; } </style></defs><path class="cls-1" d="m437.35,269.21c13.39-11.24,21.91-28.1,21.91-46.9,0-33.75-27.47-61.22-61.22-61.22s-61.22,27.47-61.22,61.22c0,18.79,8.52,35.66,21.9,46.9-11.22,5.4-21.14,13.08-29.22,22.39-10.38-8.31-22.15-14.98-34.98-19.42,22.99-13.35,38.49-38.23,38.49-66.66,0-42.46-34.55-77-77.01-77s-77,34.54-77,77c0,28.42,15.49,53.31,38.47,66.66-12.82,4.45-24.59,11.11-34.97,19.42-8.08-9.31-18.01-16.98-29.23-22.39,13.39-11.24,21.92-28.1,21.92-46.9,0-33.75-27.47-61.22-61.24-61.22s-61.21,27.47-61.21,61.22c0,18.79,8.52,35.66,21.9,46.9-30.41,14.68-51.44,45.83-51.44,81.79,0,11.1,8.98,20.08,20.08,20.08h95.59c-.45,4.13-.75,8.27-.75,12.5,0,11.09,8.99,20.09,20.09,20.09h195.56c11.1,0,20.1-9,20.1-20.09,0-4.23-.31-8.37-.75-12.5h95.58c11.1,0,20.09-8.97,20.09-20.08,0-35.96-21.04-67.11-51.45-81.79h0Zm-80.45-46.9c0-22.73,18.42-41.14,41.14-41.14s41.14,18.42,41.14,41.14-18.43,41.13-41.14,41.13c-22.72,0-41.14-18.41-41.14-41.13h0Zm-157.82-16.79c0-31.43,25.48-56.92,56.92-56.92s56.92,25.5,56.92,56.92-25.5,56.93-56.92,56.93c-31.45,0-56.92-25.49-56.92-56.93h0Zm-126.28,16.79c0-22.73,18.42-41.14,41.14-41.14s41.15,18.42,41.15,41.14-18.42,41.13-41.15,41.13c-22.72,0-41.14-18.41-41.14-41.13h0Zm-29.52,128.69c0-39.02,31.64-70.68,70.66-70.68,21.67,0,41.02,9.77,53.99,25.11-11.53,12.97-20.2,28.48-25.12,45.57H43.28Zm310.49,32.57h-195.55c0-4.23.31-8.39.82-12.5.88-6.94,2.5-13.67,4.76-20.08,3.57-10.08,8.74-19.39,15.21-27.67,4.39-5.6,9.37-10.73,14.87-15.27,16.9-13.92,38.53-22.28,62.13-22.28s45.22,8.36,62.13,22.28c5.49,4.52,10.46,9.67,14.87,15.27,6.47,8.27,11.64,17.59,15.2,27.67,2.27,6.41,3.88,13.14,4.76,20.08.52,4.11.8,8.27.8,12.5h0Zm15.42-32.57c-4.93-17.09-13.61-32.6-25.12-45.57,12.95-15.34,32.31-25.11,53.97-25.11,39.03,0,70.67,31.65,70.67,70.68h-99.52Z"></path></svg> 