<?xml version="1.0" encoding="UTF-8"?> <svg xmlns="http://www.w3.org/2000/svg" id="Layer_1" data-name="Layer 1" viewBox="0 0 512 512"><defs><style> .cls-1 { fill: #fff; } </style></defs><path class="cls-1" d="m312.24,59.68h-112.48c-20.76,0-37.02,16.26-37.02,37.02v31.49H57.02c-20.76,0-37.02,16.26-37.02,37.02v250.07c0,20.76,16.26,37.02,37.02,37.02h397.95c20.76,0,37.03-16.26,37.03-37.02v-250.07c0-20.76-16.26-37.02-37.02-37.02h-105.71v-31.49c0-20.76-16.26-37.02-37.02-37.02Zm-149.5,364.26H57.02c-5.01,0-8.65-3.64-8.65-8.65v-250.07c0-5.01,3.64-8.65,8.65-8.65h105.71v267.37Zm158.72,0h-130.35V156.57h130.35v267.37Zm0-295.75h-130.35v-31.49c0-5.01,3.64-8.65,8.65-8.65h113.05c5.01,0,8.65,3.64,8.65,8.65v31.49Zm133.51,28.37c5.01,0,8.65,3.64,8.65,8.65v250.07c0,5.01-3.64,8.65-8.65,8.65h-105.71V156.57h105.71Z"></path></svg> 