<?xml version="1.0" encoding="UTF-8"?> <svg xmlns="http://www.w3.org/2000/svg" id="Layer_1" data-name="Layer 1" viewBox="0 0 512 512"><defs><style> .cls-1 { fill: #fff; stroke: #fff; stroke-linecap: round; stroke-linejoin: round; } </style></defs><path class="cls-1" d="m484.06,44.1c-3.07-3.07-7.16-4.77-11.51-4.77H142.87c-4.35,0-8.44,1.69-11.51,4.77-3.08,3.07-4.77,7.16-4.77,11.51v177.65H39.45c-4.35,0-8.44,1.69-11.51,4.77-3.07,3.07-4.77,7.16-4.77,11.51v155.14c0,18.16,7.07,35.23,19.91,48.07,12.84,12.84,29.91,19.92,48.08,19.92h316.75c21.61,0,41.93-8.42,57.22-23.7,15.28-15.28,23.7-35.61,23.7-57.22V55.61c0-4.35-1.69-8.44-4.76-11.51ZM126.6,404.68c0,12.62-6.79,24.38-17.72,30.69-10.93,6.31-24.51,6.31-35.44,0-10.93-6.31-17.72-18.07-17.72-30.69v-138.87h70.87v138.87Zm329.68-12.93c0,12.92-5.03,25.07-14.17,34.2-9.14,9.14-21.28,14.17-34.2,14.17H149.18c6.47-10.62,9.97-22.98,9.97-35.44V71.88h297.13v319.87Zm-229.37-108.74h161.61c4.28,0,8.48-1.74,11.51-4.77,3.08-3.07,4.77-7.16,4.77-11.51v-118.43c0-4.35-1.69-8.44-4.77-11.51-3.08-3.08-7.16-4.77-11.51-4.77h-161.61c-4.28,0-8.48,1.74-11.51,4.77-3.08,3.07-4.77,7.16-4.77,11.51v118.43c0,4.35,1.69,8.44,4.77,11.51,3.08,3.08,7.16,4.77,11.51,4.77Zm16.28-118.43h129.05v85.87h-129.05v-85.87Zm161.61,169.91h-194.16v32.55h194.16v-32.55Z"></path></svg> 