<?xml version="1.0" encoding="UTF-8"?> <svg xmlns="http://www.w3.org/2000/svg" id="Layer_1" data-name="Layer 1" viewBox="0 0 512 512"><defs><style> .cls-1 { fill: #fff; stroke: #fff; stroke-linecap: round; stroke-linejoin: round; } </style></defs><path class="cls-1" d="m20,56.97v308.14h188.6l47.4,94.79,47.41-94.79h188.6V56.97H20Zm443.38,279.52h-177.67s-29.71,59.43-29.71,59.43l-29.71-59.43H48.61V85.58s414.77,0,414.77,0v250.92Zm-313.42-106.34c6.39,0,12.4-2.49,16.93-7.02,4.53-4.53,7.02-10.54,7.02-16.93,0-13.2-10.74-23.94-23.94-23.94s-23.94,10.74-23.94,23.94,10.74,23.94,23.94,23.94Zm67.47,0c6.39,0,12.4-2.49,16.93-7.02,4.53-4.53,7.02-10.54,7.02-16.93,0-13.2-10.74-23.94-23.94-23.94s-23.94,10.74-23.94,23.94,10.74,23.94,23.94,23.94Zm67.47,0c6.39,0,12.4-2.49,16.93-7.02s7.02-10.54,7.02-16.93c0-13.2-10.74-23.94-23.94-23.94s-23.94,10.74-23.94,23.94,10.74,23.94,23.94,23.94Zm67.47,0c13.2,0,23.94-10.74,23.94-23.94s-10.74-23.94-23.94-23.94-23.94,10.74-23.94,23.94,10.74,23.94,23.94,23.94Z"></path></svg> 