<?xml version="1.0" encoding="UTF-8"?> <svg xmlns="http://www.w3.org/2000/svg" id="Layer_1" data-name="Layer 1" viewBox="0 0 512 512"><defs><style> .cls-1 { fill: #fff; stroke: #fff; stroke-linecap: round; stroke-linejoin: round; } </style></defs><path class="cls-1" d="m477.94,276.98h-70.85V118.81c0-5.33-3.17-10.56-7.89-13.02l-137.15-71.37c-.96-.5-1.97-.89-3-1.16l3.2-1.6-8.81,1.12c-1.81.23-3.54.79-5.13,1.65L114.61,105.97c-4.65,2.51-7.67,7.55-7.7,12.84v158.17H35.9c-7.67,0-14.67,6.99-14.67,14.67v173c0,7.67,6.99,14.67,14.67,14.67h442.04c7.67,0,14.67-6.99,14.67-14.67v-173c0-7.67-6.99-14.67-14.67-14.67ZM106.92,449.99h-56.34v-143.67h56.34v143.67Zm183.04,0h-66.04v-80.84h66.04v80.84Zm87.81,0h-58.48v-95.52c0-7.67-6.99-14.67-14.67-14.67h-95.38c-7.67,0-14.67,6.99-14.67,14.67v95.52h-58.31V127.61l119.03-63.66,122.48,63.84v215.49s0,106.71,0,106.71Zm85.52,0h-56.18v-143.67h56.18v143.67Zm-206.33-297.73c-32.64,0-59.19,26.55-59.19,59.19s26.55,59.24,59.19,59.24,59.24-26.58,59.24-59.24-26.58-59.19-59.24-59.19Zm0,89.09c-16.74,0-29.85-13.14-29.85-29.91s13.11-29.85,29.85-29.85,29.91,13.11,29.91,29.85-13.14,29.91-29.91,29.91Z"></path></svg> 