<?xml version="1.0" encoding="UTF-8"?> <svg xmlns="http://www.w3.org/2000/svg" xmlns:xlink="http://www.w3.org/1999/xlink" id="Layer_1" data-name="Layer 1" viewBox="0 0 111.41 40.17"><defs><style> .cls-1, .cls-2, .cls-3, .cls-4, .cls-5, .cls-6, .cls-7, .cls-8, .cls-9, .cls-10, .cls-11 { fill: none; } .cls-1, .cls-2, .cls-3, .cls-4, .cls-5, .cls-6, .cls-7, .cls-9, .cls-10, .cls-11 { stroke-miterlimit: 10; } .cls-1, .cls-3, .cls-6 { stroke-width: 1.19px; } .cls-1, .cls-7 { stroke: #09416b; } .cls-2 { stroke: #76509b; } .cls-2, .cls-4, .cls-5, .cls-7, .cls-9, .cls-10, .cls-11 { stroke-width: 1.19px; } .cls-12 { fill: #76509b; } .cls-3 { stroke: #038cad; } .cls-4 { stroke: #3aaa35; } .cls-5 { stroke: #c6b3d8; } .cls-6 { stroke: #37b8e0; } .cls-13 { fill: #6c4595; } .cls-14 { fill: #09416b; } .cls-15 { clip-path: url(#clippath); } .cls-9 { stroke: #ffd600; } .cls-10 { stroke: #f9b000; } .cls-11 { stroke: #a0c519; } </style><clipPath id="clippath"><path class="cls-8" d="m20.28,1.88C10.12,1.88,1.88,10.12,1.88,20.28s8.24,18.4,18.4,18.4,18.4-8.24,18.4-18.4S30.45,1.88,20.28,1.88Zm.04,25.63c-3.99,0-7.23-3.24-7.23-7.23s3.24-7.23,7.23-7.23,7.23,3.24,7.23,7.23-3.24,7.23-7.23,7.23Z"></path></clipPath></defs><g class="cls-15"><g><line class="cls-7" x1="13.59" y1="37.22" x2="11.56" y2="3.52"></line><circle class="cls-7" cx="20.33" cy="20.28" r="7.73"></circle><line class="cls-7" x1="22.64" y1="39.08" x2="4.75" y2="9.86"></line><line class="cls-7" x1="37.79" y1="27.57" x2="3.62" y2="29.12"></line><line class="cls-1" x1="5.21" y1="31.64" x2="21.64" y2="1.35"></line><line class="cls-7" x1="17.51" y1="39.27" x2="8.02" y2="5.94"></line><line class="cls-7" x1="2.25" y1="25.66" x2="27.86" y2="2.91"></line><line class="cls-7" x1="16.05" y1="1.85" x2="9.29" y2="35.64"></line><line class="cls-2" x1="2.44" y1="13.55" x2="36.91" y2="11.48"></line><line class="cls-5" x1="38.76" y1="16.49" x2="4.96" y2="9.5"></line><line class="cls-7" x1="1.93" y1="15.96" x2="28.57" y2="37.36"></line><line class="cls-3" x1="27.36" y1="2.37" x2="28.82" y2="37.16"></line><line class="cls-7" x1="38.36" y1="14.36" x2="13.31" y2="37.74"></line><line class="cls-7" x1="31.95" y1="35.09" x2="1.45" y2="19.69"></line><line class="cls-6" x1="24.49" y1="38.94" x2="31.33" y2="4.84"></line><line class="cls-4" x1="39.35" y1="16.93" x2="10.13" y2="36.05"></line><line class="cls-9" x1="19.46" y1=".89" x2="35.9" y2="35.44"></line><line class="cls-11" x1="18.52" y1="39.13" x2="36.14" y2="7.98"></line><line class="cls-10" x1="38.04" y1="26.19" x2="12.96" y2="2.98"></line></g></g><g><g><path class="cls-12" d="m52.33,15.15c.16.6.17,1.09.19,1.09h.03s.04-.51.17-1.09l1.7-7.15h1.94l-2.67,10.34h-2.17l-1.59-6.12c-.17-.67-.26-1.35-.26-1.35h-.03s-.09.68-.26,1.35l-.47,1.83-1.11,4.29h-2.17l-2.59-10.34h1.94l1.63,7.15c.13.58.17,1.09.17,1.09h.03s.03-.5.19-1.09l1.86-7.15h1.63l1.84,7.15Z"></path><path class="cls-12" d="m60.46,10.74c2.27,0,4.09,1.62,4.09,3.89s-1.82,3.89-4.08,3.89-4.09-1.6-4.09-3.89,1.82-3.89,4.08-3.89Zm.01,6.21c1.19,0,2.2-.93,2.2-2.32s-1.01-2.32-2.2-2.32-2.21.95-2.21,2.32,1.01,2.32,2.21,2.32Z"></path><path class="cls-12" d="m65.66,10.91h1.78v.86c0,.28-.03.51-.03.51h.03c.32-.63,1.14-1.54,2.64-1.54,1.65,0,2.58.86,2.58,2.83v4.78h-1.84v-4.4c0-.9-.23-1.51-1.18-1.51s-1.72.63-2,1.51c-.1.31-.13.64-.13.99v3.41h-1.85v-7.43Z"></path><path class="cls-12" d="m77.12,10.74c1.63,0,2.14.95,2.14.95h.03s-.01-.19-.01-.42v-3.26h1.85v10.34h-1.75v-.61c0-.28.03-.48.03-.48h-.03s-.63,1.27-2.33,1.27c-2.01,0-3.29-1.59-3.29-3.89s1.4-3.89,3.36-3.89Zm.35,6.22c.96,0,1.86-.7,1.86-2.35,0-1.15-.61-2.29-1.85-2.29-1.02,0-1.86.83-1.86,2.3s.76,2.33,1.85,2.33Z"></path><path class="cls-12" d="m86.01,10.74c2.14,0,3.29,1.56,3.29,3.53,0,.22-.04.71-.04.71h-5.13c.12,1.3,1.12,1.97,2.23,1.97,1.19,0,2.14-.82,2.14-.82l.71,1.33s-1.14,1.06-2.99,1.06c-2.46,0-3.99-1.78-3.99-3.89,0-2.29,1.56-3.89,3.77-3.89Zm1.43,2.97c-.03-1.01-.66-1.54-1.47-1.54-.95,0-1.6.58-1.78,1.54h3.25Z"></path><path class="cls-12" d="m90.49,10.91h1.78v1.28c0,.28-.03.52-.03.52h.03c.34-1.06,1.22-1.91,2.36-1.91.17,0,.34.03.34.03v1.82s-.19-.03-.44-.03c-.79,0-1.68.45-2.02,1.56-.12.36-.16.77-.16,1.21v2.94h-1.85v-7.43Z"></path></g><g><g><path class="cls-14" d="m44.08,20.98h.93v4.31h2.21v.8h-3.14v-5.11Z"></path><path class="cls-14" d="m49.23,22.33c1.06,0,1.63.77,1.63,1.74,0,.11-.02.35-.02.35h-2.53c.06.64.55.97,1.1.97.59,0,1.06-.4,1.06-.4l.35.66s-.56.53-1.48.53c-1.22,0-1.97-.88-1.97-1.92,0-1.13.77-1.92,1.87-1.92Zm.71,1.47c-.01-.5-.32-.76-.73-.76-.47,0-.79.29-.88.76h1.61Z"></path><path class="cls-14" d="m53.31,23.78h.12v-.05c0-.48-.3-.65-.71-.65-.53,0-1.01.35-1.01.35l-.35-.66s.57-.45,1.44-.45c.96,0,1.53.53,1.53,1.46v2.3h-.84v-.3c0-.14.01-.26.01-.26h-.01s-.28.65-1.12.65c-.66,0-1.25-.41-1.25-1.15,0-1.17,1.58-1.25,2.17-1.25Zm-.7,1.68c.48,0,.83-.52.83-.96v-.09h-.16c-.47,0-1.22.06-1.22.58,0,.24.18.48.55.48Z"></path><path class="cls-14" d="m55.09,22.42h.88v.63c0,.14-.01.26-.01.26h.01c.17-.53.61-.94,1.17-.94.09,0,.17.01.17.01v.9s-.09-.01-.22-.01c-.39,0-.83.22-1,.77-.06.18-.08.38-.08.6v1.45h-.91v-3.67Z"></path><path class="cls-14" d="m57.66,22.42h.88v.42c0,.14-.01.25-.01.25h.01c.16-.31.56-.76,1.3-.76.81,0,1.27.42,1.27,1.4v2.36h-.91v-2.17c0-.45-.12-.75-.58-.75s-.85.31-.99.75c-.05.15-.06.32-.06.49v1.69h-.91v-3.67Z"></path><path class="cls-14" d="m61.87,20.98h.91v.81h-.91v-.81Zm0,1.44h.91v3.67h-.91v-3.67Z"></path><path class="cls-14" d="m63.56,22.42h.88v.42c0,.14-.01.25-.01.25h.01c.16-.31.56-.76,1.3-.76.81,0,1.27.42,1.27,1.4v2.36h-.91v-2.17c0-.45-.12-.75-.58-.75s-.85.31-.99.75c-.05.15-.06.32-.06.49v1.69h-.91v-3.67Z"></path><path class="cls-14" d="m69.18,26.82c.56,0,1.04-.24,1.04-.89v-.22c0-.09.01-.19.01-.19h-.01c-.22.32-.53.5-1.02.5-1.05,0-1.65-.85-1.65-1.86s.57-1.83,1.63-1.83c.8,0,1.09.47,1.09.47h.02s0-.04,0-.1v-.28h.86v3.45c0,1.26-.98,1.74-1.94,1.74-.46,0-.95-.13-1.3-.32l.27-.7s.46.24,1.02.24Zm1.06-2.66c0-.84-.41-1.06-.91-1.06-.55,0-.86.4-.86,1.02s.33,1.12.92,1.12c.44,0,.85-.25.85-1.08Z"></path></g><g><path class="cls-14" d="m73.92,20.97h1.97c.96,0,1.63.67,1.63,1.67s-.67,1.69-1.63,1.69h-1.05v1.77h-.93v-5.12Zm1.8,2.54c.54,0,.86-.35.86-.88s-.32-.86-.84-.86h-.89v1.74h.87Z"></path><path class="cls-14" d="m79.85,23.78h.12v-.05c0-.48-.3-.65-.71-.65-.53,0-1.01.35-1.01.35l-.35-.66s.57-.45,1.44-.45c.97,0,1.53.53,1.53,1.46v2.3h-.84v-.3c0-.14.01-.26.01-.26h-.01s-.28.65-1.12.65c-.66,0-1.25-.41-1.25-1.15,0-1.17,1.58-1.25,2.18-1.25Zm-.7,1.68c.48,0,.83-.52.83-.97v-.09h-.16c-.47,0-1.23.06-1.23.58,0,.25.18.48.56.48Z"></path><path class="cls-14" d="m81.63,22.41h.88v.63c0,.14-.01.26-.01.26h.01c.17-.53.61-.94,1.17-.94.09,0,.17.01.17.01v.9s-.09-.01-.22-.01c-.39,0-.83.22-1,.77-.06.18-.08.38-.08.6v1.46h-.92v-3.68Z"></path><path class="cls-14" d="m84.52,23.2h-.48v-.73h.5v-1.06h.89v1.06h.84v.73h-.84v1.43c0,.61.48.69.73.69.1,0,.17-.01.17-.01v.8s-.11.02-.28.02c-.51,0-1.53-.15-1.53-1.38v-1.54Z"></path><path class="cls-14" d="m86.84,22.41h.88v.43c0,.14-.01.25-.01.25h.01c.16-.31.56-.76,1.3-.76.81,0,1.28.43,1.28,1.4v2.36h-.91v-2.18c0-.45-.12-.75-.58-.75s-.85.31-.99.75c-.05.15-.07.32-.07.49v1.69h-.92v-3.68Z"></path><path class="cls-14" d="m92.68,22.33c1.06,0,1.63.77,1.63,1.74,0,.11-.02.35-.02.35h-2.54c.06.64.56.97,1.1.97.59,0,1.06-.4,1.06-.4l.35.66s-.56.53-1.48.53c-1.22,0-1.98-.88-1.98-1.92,0-1.13.77-1.92,1.87-1.92Zm.71,1.47c-.01-.5-.32-.76-.73-.76-.47,0-.79.29-.88.76h1.61Z"></path><path class="cls-14" d="m94.9,22.41h.88v.63c0,.14-.01.26-.01.26h.01c.17-.53.61-.94,1.17-.94.09,0,.17.01.17.01v.9s-.09-.01-.22-.01c-.39,0-.83.22-1,.77-.06.18-.08.38-.08.6v1.46h-.92v-3.68Z"></path><path class="cls-14" d="m97.68,24.99s.4.4,1,.4c.26,0,.48-.12.48-.33,0-.55-1.79-.48-1.79-1.66,0-.68.61-1.08,1.41-1.08s1.23.42,1.23.42l-.34.68s-.34-.32-.9-.32c-.24,0-.47.1-.47.33,0,.52,1.79.45,1.79,1.64,0,.61-.53,1.1-1.41,1.1-.92,0-1.43-.54-1.43-.54l.42-.64Z"></path><path class="cls-14" d="m100.64,20.97h.92v1.77c0,.18-.01.31-.01.31h.01c.18-.35.63-.73,1.27-.73.81,0,1.28.43,1.28,1.4v2.36h-.91v-2.18c0-.45-.12-.75-.58-.75s-.86.32-.99.76c-.04.14-.06.3-.06.48v1.69h-.92v-5.12Z"></path><path class="cls-14" d="m104.86,20.97h.91v.81h-.91v-.81Zm0,1.44h.92v3.68h-.92v-3.68Z"></path><path class="cls-14" d="m106.55,22.41h.84v.27c0,.14-.01.25-.01.25h.01s.32-.61,1.18-.61c.99,0,1.63.79,1.63,1.92s-.71,1.92-1.68,1.92c-.73,0-1.05-.5-1.05-.5h-.01s.01.13.01.32v1.54h-.92v-5.12Zm1.8,2.99c.5,0,.92-.41.92-1.14s-.37-1.15-.92-1.15c-.48,0-.92.35-.92,1.16,0,.57.31,1.13.92,1.13Z"></path></g></g><g><path class="cls-13" d="m44.08,29.03h1.64v.43h-1.14v.72h.92v.43h-.92v.74h1.2v.43h-1.7v-2.73Z"></path><path class="cls-13" d="m46.8,29.75c.43,0,.57.25.57.25h0s0-.05,0-.11v-.86h.49v2.73h-.46v-.16c0-.07,0-.13,0-.13h0s-.17.33-.62.33c-.53,0-.87-.42-.87-1.03s.37-1.03.89-1.03Zm.09,1.64c.25,0,.49-.18.49-.62,0-.3-.16-.6-.49-.6-.27,0-.49.22-.49.61s.2.62.49.62Z"></path><path class="cls-13" d="m48.23,29.8h.49v1.16c0,.24.06.4.3.4.35,0,.55-.31.55-.66v-.9h.49v1.96h-.47v-.22c0-.08,0-.14,0-.14h0c-.1.2-.35.41-.68.41-.42,0-.68-.21-.68-.75v-1.26Z"></path><path class="cls-13" d="m51.39,29.75c.51,0,.75.29.75.29l-.22.33s-.2-.21-.51-.21c-.36,0-.6.27-.6.61s.24.62.61.62c.33,0,.58-.25.58-.25l.19.35s-.28.32-.81.32c-.65,0-1.07-.46-1.07-1.03s.42-1.03,1.07-1.03Z"></path><path class="cls-13" d="m53.44,30.53h.07v-.03c0-.26-.16-.35-.38-.35-.28,0-.54.19-.54.19l-.18-.35s.3-.24.77-.24c.52,0,.82.28.82.78v1.23h-.45v-.16c0-.08,0-.14,0-.14h0s-.15.35-.6.35c-.35,0-.67-.22-.67-.61,0-.62.84-.67,1.16-.67Zm-.37.9c.26,0,.44-.28.44-.52v-.05h-.08c-.25,0-.65.03-.65.31,0,.13.1.25.3.25Z"></path><path class="cls-13" d="m54.4,30.22h-.25v-.39h.27v-.57h.48v.57h.45v.39h-.45v.76c0,.32.25.37.39.37.05,0,.09,0,.09,0v.43s-.06.01-.15.01c-.27,0-.82-.08-.82-.74v-.82Z"></path><path class="cls-13" d="m56.42,29.75c.57,0,.87.41.87.93,0,.06-.01.19-.01.19h-1.36c.03.34.3.52.59.52.32,0,.57-.22.57-.22l.19.35s-.3.28-.79.28c-.65,0-1.05-.47-1.05-1.03,0-.6.41-1.03,1-1.03Zm.38.79c0-.27-.17-.41-.39-.41-.25,0-.42.15-.47.41h.86Z"></path><path class="cls-13" d="m58.58,28.73h.24v3.64h-.24v-3.64Z"></path><path class="cls-13" d="m60.32,29.03h1.64v.43h-1.14v.72h.92v.43h-.92v.74h1.2v.43h-1.7v-2.73Z"></path><path class="cls-13" d="m62.3,29.8h.47v.23c0,.07,0,.13,0,.13h0c.1-.19.33-.41.64-.41s.49.14.57.4h0c.11-.21.36-.4.67-.4.41,0,.64.23.64.75v1.26h-.49v-1.17c0-.22-.04-.39-.27-.39-.25,0-.42.2-.47.45-.02.08-.02.16-.02.25v.86h-.49v-1.17c0-.21-.03-.39-.27-.39-.25,0-.42.2-.48.45-.02.07-.02.16-.02.25v.86h-.49v-1.96Z"></path><path class="cls-13" d="m65.69,29.8h.45v.14c0,.07,0,.13,0,.13h0s.17-.32.63-.32c.53,0,.87.42.87,1.03s-.38,1.03-.9,1.03c-.39,0-.56-.27-.56-.27h0s0,.07,0,.17v.82h-.49v-2.73Zm.96,1.6c.27,0,.49-.22.49-.61s-.2-.62-.49-.62c-.25,0-.49.18-.49.62,0,.3.17.6.49.6Z"></path><path class="cls-13" d="m68.86,29.75c.6,0,1.08.43,1.08,1.03s-.48,1.03-1.08,1.03-1.08-.42-1.08-1.03.48-1.03,1.08-1.03Zm0,1.64c.32,0,.58-.25.58-.61s-.27-.61-.58-.61-.59.25-.59.61.27.61.59.61Z"></path><path class="cls-13" d="m69.93,29.8h.52l.34,1.29c.03.1.04.21.04.21h0s.02-.1.05-.21l.36-1.29h.44l.36,1.29c.03.1.04.21.04.21h0s.02-.1.04-.21l.34-1.29h.51l-.6,1.96h-.54l-.33-1.12c-.03-.1-.05-.21-.05-.21h0s-.02.11-.05.21l-.33,1.12h-.55l-.6-1.96Z"></path><path class="cls-13" d="m73.98,29.75c.57,0,.87.41.87.93,0,.06-.01.19-.01.19h-1.36c.03.34.3.52.59.52.32,0,.57-.22.57-.22l.19.35s-.3.28-.79.28c-.65,0-1.05-.47-1.05-1.03,0-.6.41-1.03,1-1.03Zm.38.79c0-.27-.17-.41-.39-.41-.25,0-.42.15-.47.41h.86Z"></path><path class="cls-13" d="m75.13,29.8h.47v.34c0,.07,0,.14,0,.14h0c.09-.28.32-.5.62-.5.05,0,.09,0,.09,0v.48s-.05,0-.12,0c-.21,0-.44.12-.54.41-.03.1-.04.2-.04.32v.78h-.49v-1.96Z"></path><path class="cls-13" d="m77.53,28.73h.24v3.64h-.24v-3.64Z"></path><path class="cls-13" d="m79.27,29.03h1.64v.43h-1.14v.72h.92v.43h-.92v.74h1.2v.43h-1.7v-2.73Z"></path><path class="cls-13" d="m81.25,29.8h.47v.23c0,.07,0,.13,0,.13h0c.08-.17.3-.41.7-.41.44,0,.68.23.68.75v1.26h-.49v-1.16c0-.24-.06-.4-.31-.4s-.45.17-.53.4c-.03.08-.03.17-.03.26v.9h-.49v-1.96Z"></path><path class="cls-13" d="m84.23,32.15c.3,0,.55-.13.55-.48v-.12s0-.1,0-.1h0c-.12.17-.28.27-.55.27-.56,0-.88-.45-.88-.99s.3-.98.87-.98c.43,0,.58.25.58.25h.01s0-.02,0-.05v-.15h.46v1.84c0,.67-.52.93-1.04.93-.25,0-.51-.07-.7-.17l.15-.37s.25.13.54.13Zm.57-1.42c0-.45-.22-.57-.49-.57-.3,0-.46.22-.46.55s.18.6.49.6c.23,0,.45-.13.45-.58Z"></path><path class="cls-13" d="m86.68,30.53h.07v-.03c0-.26-.16-.35-.38-.35-.28,0-.54.19-.54.19l-.18-.35s.3-.24.77-.24c.52,0,.82.28.82.78v1.23h-.45v-.16c0-.08,0-.14,0-.14h0s-.15.35-.6.35c-.35,0-.67-.22-.67-.61,0-.62.84-.67,1.16-.67Zm-.37.9c.26,0,.44-.28.44-.52v-.05h-.08c-.25,0-.65.03-.65.31,0,.13.1.25.3.25Z"></path><path class="cls-13" d="m88.36,32.15c.3,0,.55-.13.55-.48v-.12s0-.1,0-.1h0c-.12.17-.28.27-.55.27-.56,0-.88-.45-.88-.99s.3-.98.87-.98c.43,0,.58.25.58.25h.01s0-.02,0-.05v-.15h.46v1.84c0,.67-.52.93-1.04.93-.25,0-.51-.07-.7-.17l.15-.37s.25.13.54.13Zm.57-1.42c0-.45-.22-.57-.49-.57-.3,0-.46.22-.46.55s.18.6.49.6c.23,0,.45-.13.45-.58Z"></path><path class="cls-13" d="m90.66,29.75c.57,0,.87.41.87.93,0,.06-.01.19-.01.19h-1.36c.03.34.3.52.59.52.32,0,.57-.22.57-.22l.19.35s-.3.28-.79.28c-.65,0-1.05-.47-1.05-1.03,0-.6.41-1.03,1-1.03Zm.38.79c0-.27-.17-.41-.39-.41-.25,0-.42.15-.47.41h.86Z"></path><path class="cls-13" d="m92.81,28.73h.24v3.64h-.24v-3.64Z"></path><path class="cls-13" d="m94.55,29.03h1.64v.43h-1.14v.72h.92v.43h-.92v.74h1.2v.43h-1.7v-2.73Z"></path><path class="cls-13" d="m96.54,29.8h.47v.23c0,.07,0,.13,0,.13h0c.08-.17.3-.41.7-.41.44,0,.68.23.68.75v1.26h-.49v-1.16c0-.24-.06-.4-.31-.4s-.45.17-.53.4c-.03.08-.03.17-.03.26v.9h-.49v-1.96Z"></path><path class="cls-13" d="m98.76,29.8h.47v.34c0,.07,0,.14,0,.14h0c.09-.28.32-.5.62-.5.05,0,.09,0,.09,0v.48s-.05,0-.12,0c-.21,0-.44.12-.54.41-.03.1-.04.2-.04.32v.78h-.49v-1.96Z"></path><path class="cls-13" d="m100.1,29.03h.49v.44h-.49v-.44Zm0,.77h.49v1.96h-.49v-1.96Z"></path><path class="cls-13" d="m101.92,29.75c.51,0,.75.29.75.29l-.22.33s-.2-.21-.51-.21c-.36,0-.6.27-.6.61s.24.62.61.62c.33,0,.58-.25.58-.25l.19.35s-.28.32-.81.32c-.65,0-1.07-.46-1.07-1.03s.42-1.03,1.07-1.03Z"></path><path class="cls-13" d="m102.93,29.03h.49v.95c0,.1,0,.17,0,.17h0c.1-.19.33-.39.68-.39.44,0,.68.23.68.75v1.26h-.49v-1.16c0-.24-.06-.4-.31-.4s-.46.17-.53.41c-.02.08-.03.16-.03.25v.9h-.49v-2.73Z"></path></g></g></svg> 