<?xml version="1.0" encoding="UTF-8"?> <svg xmlns="http://www.w3.org/2000/svg" xmlns:xlink="http://www.w3.org/1999/xlink" version="1.1" id="Layer_1" x="0px" y="0px" width="512px" height="512px" viewBox="0 0 512 512" style="enable-background:new 0 0 512 512;" xml:space="preserve"> <style type="text/css"> .st0{fill:#FFFFFF;stroke:#FFFFFF;stroke-width:3.5;stroke-miterlimit:10;} </style> <path class="st0" d="M486.9,75.3H35.8c-4,0-7.3,3.2-7.3,7.3v36.1c0,4,3.2,7.3,7.3,7.3H57v257.6c0,4,3.2,7.3,7.3,7.3h24.2 c-2.4,6.7-3.8,14-3.8,21.5v14.7c0,4,3.2,7.3,7.3,7.3h338.8c4,0,7.3-3.2,7.2-7.3v-14.7c0-7.5-1.4-14.8-3.8-21.5h24.2 c4,0,7.3-3.3,7.3-7.3V125.9h21.2c4,0,7.3-3.2,7.3-7.3v-36C494.2,78.5,491,75.3,486.9,75.3L486.9,75.3z M212.4,419.8H99.3v-7.5 c0-27.6,22.4-50,50-50h6.5c0,0,0,0,0.1,0s0,0,0.1,0h6.6c27.6,0,50,22.4,50,50L212.4,419.8L212.4,419.8z M127.3,319.3 c0-15.7,12.8-28.5,28.5-28.5s28.5,12.8,28.5,28.5s-12.7,28.4-28.4,28.5h-0.1C140.1,347.8,127.3,335,127.3,319.3L127.3,319.3z M295.8,412.3v7.5h-68.9v-7.5c0-12.2-3.5-23.5-9.4-33.3c9.4-10.5,23-16.7,37.2-16.7h13.2c14.2,0,27.8,6.2,37.2,16.6 C299.2,388.7,295.8,400.1,295.8,412.3L295.8,412.3z M232.9,319.3c0-15.7,12.8-28.5,28.5-28.5s28.5,12.8,28.5,28.5 s-12.8,28.5-28.5,28.5S232.9,335,232.9,319.3L232.9,319.3z M423.5,419.8H310.3l0-7.5c0-27.6,22.4-50,50-50h6.5c0,0,0,0,0,0s0,0,0,0 h6.5c27.6,0,50,22.4,50,50L423.5,419.8L423.5,419.8z M338.5,319.3c0-15.7,12.8-28.5,28.5-28.5s28.5,12.8,28.5,28.5 s-12.7,28.4-28.4,28.5h-0.1C351.2,347.8,338.5,335,338.5,319.3L338.5,319.3z M451.1,376.3h-24.2c-7.6-11.3-18.7-19.9-31.7-24.6 c9-7.9,14.7-19.4,14.7-32.3c0-23.7-19.3-43-43-43s-43,19.3-43,43c0,12.9,5.7,24.4,14.7,32.3c-9.3,3.3-17.7,8.7-24.5,15.7 c-4.8-4.9-10.4-9.1-16.5-12.3c-2.5-1.3-5.2-2.4-7.9-3.4c9-7.9,14.7-19.4,14.7-32.3c0-23.7-19.3-43-43-43s-43,19.3-43,43 c0,12.9,5.7,24.4,14.7,32.3c-2.7,1-5.4,2.1-7.9,3.4c-6.1,3.2-11.7,7.4-16.6,12.3c-6.8-7-15.1-12.4-24.4-15.7 c9-7.9,14.7-19.4,14.7-32.3c0-23.7-19.3-43-43-43s-43,19.3-43,43c0,12.9,5.7,24.4,14.7,32.3c-13,4.7-24.1,13.4-31.8,24.6H71.6V125.9 h379.6L451.1,376.3L451.1,376.3z M479.6,111.3h-21.2c0,0,0,0,0,0H64.3c0,0,0,0,0,0H43.1V89.8h436.6L479.6,111.3L479.6,111.3z M168.4,185.9h66.3c4,0,7.3-3.2,7.3-7.3s-3.2-7.3-7.3-7.3h-66.3c-4,0-7.3,3.2-7.3,7.3S164.3,185.9,168.4,185.9z M136.3,208.7 c-5.5,0-9.9,4.5-9.9,9.9s4.5,9.9,9.9,9.9s9.9-4.5,9.9-9.9S141.7,208.7,136.3,208.7z M136.1,188.5c5.5,0,9.9-4.5,9.9-9.9 s-4.5-9.9-9.9-9.9s-9.9,4.5-9.9,9.9S130.6,188.5,136.1,188.5z M234.9,211.3h-66.3c-4,0-7.3,3.2-7.3,7.3s3.2,7.3,7.3,7.3h66.3 c4,0,7.3-3.2,7.3-7.3S238.9,211.3,234.9,211.3z M346.4,256.1c31.7,0,57.5-25.8,57.5-57.5s-25.8-57.5-57.5-57.5 c-16.6,0-31.5,7.1-42,18.3c-0.1,0.1-0.2,0.2-0.3,0.3c-0.3,0.3-0.5,0.6-0.8,1c-8.9,10.1-14.4,23.4-14.4,37.9 C288.9,230.3,314.7,256.1,346.4,256.1L346.4,256.1z M353.6,156.4c17.8,3.1,31.9,17.1,35,35h-7.5c-2.9-13.8-13.7-24.6-27.5-27.5 V156.4z M367.3,198.6c0,11.6-9.4,20.9-21,20.9s-21-9.4-21-20.9s9.4-20.9,21-20.9S367.3,187,367.3,198.6z M339.1,156.4v7.5 c-5.2,1.1-10,3.4-14.1,6.5l-5.3-5.3C325.2,160.6,331.8,157.6,339.1,156.4L339.1,156.4z M310,175.9l5.4,5.4c-2.9,5.1-4.5,11-4.5,17.3 c0,19.6,15.9,35.5,35.5,35.5c17.1,0,31.4-12.1,34.8-28.2h7.5c-3.5,20.2-21.1,35.7-42.3,35.7c-23.7,0-42.9-19.2-42.9-42.9 C303.4,190.3,305.9,182.5,310,175.9L310,175.9z"></path> </svg> 