<?xml version="1.0" encoding="UTF-8"?> <svg xmlns="http://www.w3.org/2000/svg" xmlns:xlink="http://www.w3.org/1999/xlink" version="1.1" id="Layer_1" x="0px" y="0px" width="512px" height="512px" viewBox="0 0 512 512" style="enable-background:new 0 0 512 512;" xml:space="preserve"> <style type="text/css"> .st0{fill:#FFFFFF;} </style> <path class="st0" d="M256.4,85.7c-28.9,0-56,11.2-76.5,31.7c-20.4,20.4-31.7,47.6-31.7,76.5s11.2,56,31.7,76.5 c20.5,20.5,47.6,31.7,76.5,31.7s56-11.3,76.5-31.7s31.7-47.6,31.7-76.5s-11.3-56.1-31.7-76.5C312.5,96.9,285.3,85.7,256.4,85.7z M256.4,281c-48.1,0-87.1-39.1-87.1-87.1s39.1-87.1,87.1-87.1s87.1,39.1,87.1,87.1S304.4,281,256.4,281z M419,220.7 c-0.2-0.4-0.4-0.8-0.5-1l-1.6-3c-2.5-4.8-5.4-9.9-8.4-14.8c-0.9-1.7-1.8-3.4-2.5-4.9l-0.1-0.2c-0.7-1.8-0.6-4.6,0.2-6.2 c0.9-1.9,2-3.9,2.6-5.2c0.1-0.2,0.2-0.3,0.3-0.5c2.9-4.6,5.5-9.4,7.8-13.8c0.1-0.2,0.2-0.4,0.4-0.7l0.4-0.6c0.2-0.4,0.5-0.8,0.6-1.1 c0.3-0.5,0.6-1,0.8-1.6l0.2-0.5l0.1-0.2c1.5-3.1,2.4-6.1,2.7-9c0.5-4.2-0.1-8.1-1.9-11.6c-0.1-0.3-0.2-0.6-0.5-0.8c0,0,0-0.1,0-0.1 c-2.1-3.8-5.3-7-9.5-9.7c-0.3-0.2-0.6-0.4-0.9-0.6c-0.3-0.1-0.5-0.3-0.8-0.5c-1.1-0.7-2.3-1.4-3.4-2.1l-2.3-1.4 c-2.4-1.4-4.9-2.9-7.4-4.3l-3.2-1.8c-1.1-0.7-2.2-1.4-3.4-2.2c-0.2-0.1-0.4-0.2-0.6-0.3c-0.2-0.1-0.3-0.2-0.6-0.4 c-1-0.6-1.9-1.6-2.9-2.8c0-0.1,0-0.1-0.1-0.2c0.3-0.6,0.4-1.3,0.1-1.9c-0.1-0.3-0.1-0.6-0.1-0.8c-0.1-2-0.2-3.9-0.4-5.8 c0.2-6.2,0.1-12.8-0.3-20.8c-0.2-4.7-1.4-8.8-3.5-12.3c-0.1-0.2-0.2-0.5-0.4-0.7l-0.3-0.5c-0.2-0.2-0.4-0.5-0.6-0.8 c-0.1-0.1-0.2-0.4-0.4-0.6l-0.6-0.7c-0.2-0.3-0.5-0.6-0.8-0.9c-0.1-0.1-0.3-0.3-0.4-0.4l-0.6-0.5c-0.2-0.2-0.5-0.4-0.7-0.6 c-0.1-0.1-0.3-0.2-0.4-0.3c0,0,0,0,0,0c-0.4-0.3-0.9-0.7-1.4-1c-0.1-0.1-0.3-0.2-0.5-0.2c-3.4-2.1-7.5-3.3-12.4-3.6 c-3.6-0.2-7.1-0.3-10.8-0.4h-4.2c-1.5,0-3,0-4.4,0.1h-1.3c-2,0-4.1-0.2-6-0.3c-2-0.2-4.8-2-6.1-3.8c-0.8-1.2-1.6-2.4-2.4-3.6 c-2.9-5.4-6.2-10.7-9.4-15.9l-0.4-0.5c-0.2-0.3-0.3-0.5-0.5-0.8c-0.2-0.3-0.4-0.6-0.5-0.9c-2.7-4.3-6-7.6-9.8-9.6l-0.3-0.2 c-0.2-0.1-0.4-0.2-0.6-0.2c-2.8-1.5-5.8-2.2-9.1-2.2h-0.6c-0.5,0-1,0-1.2,0.1c-3.2,0.2-6.5,1.1-9.9,2.8l-0.3,0.1 c-0.4,0.2-0.8,0.4-1,0.5l-3,1.6c-4.8,2.6-10,5.4-14.8,8.4c-1.6,0.9-3.3,1.7-4.9,2.5l-0.2,0.1c-1.8,0.7-4.6,0.6-6.2-0.2 c-1.8-0.9-3.6-1.8-5.4-2.8c-0.1-0.1-0.2-0.1-0.3-0.2c-3.9-2.4-8.2-4.8-13.7-7.8c-0.2-0.1-0.3-0.2-0.6-0.4l-0.6-0.3 c-0.4-0.2-0.8-0.5-1.1-0.6c-0.5-0.3-1-0.6-1.6-0.8l-0.7-0.3c0,0-0.3-0.2-0.6-0.3l-0.2-0.1l-0.9,2.2l0,0l0.7-2.3 c-2.2-1-4.5-1.7-6.7-2c-0.1,0-0.2,0-0.4,0l-0.4-0.1c-0.1,0-0.3,0-0.5,0h-0.2c-4.1-0.5-7.9,0.2-11.4,2c-0.4,0.1-0.8,0.3-1.1,0.6 c-3.8,2.1-7,5.3-9.6,9.5c-0.2,0.3-0.4,0.6-0.6,0.9c-0.1,0.3-0.3,0.5-0.5,0.8l-0.6,0.9c-3.1,5-6.3,10.2-9.1,15.5 c-0.8,1.2-1.6,2.4-2.4,3.6c-1.3,1.9-4.2,3.7-6.1,3.8c-2,0.2-4,0.2-5.8,0.3c-6.2-0.2-12.8-0.1-20.8,0.3c-4.7,0.2-8.8,1.4-12.3,3.5 c-0.2,0.1-0.5,0.2-0.7,0.4l-0.4,0.3c-0.3,0.2-0.5,0.4-0.8,0.6c-0.1,0.1-0.4,0.2-0.4,0.3l-0.8,0.7c-0.3,0.2-0.6,0.5-0.9,0.8 c-0.1,0.1-0.3,0.3-0.4,0.4l-0.9,1.1c-0.2,0.2-0.4,0.4-0.5,0.6c0,0-0.1,0.1-0.1,0.1c-0.3,0.4-0.6,0.8-0.9,1.3 c-0.1,0.1-0.2,0.3-0.2,0.5c-2.2,3.5-3.4,7.6-3.6,12.4c-0.4,8-0.4,14.7-0.3,20.7c-0.1,2.2-0.2,4.2-0.4,5.9c-0.2,2-2,4.9-3.8,6.1 c-1.3,0.9-2.5,1.7-3.6,2.4c-5.4,2.9-10.7,6.2-15.9,9.4l-0.6,0.4c-0.3,0.2-0.5,0.3-0.8,0.5c-0.3,0.2-0.6,0.4-0.9,0.5 c-4.4,2.7-7.6,6.1-9.7,9.9l-0.1,0.3c-0.1,0.1-0.1,0.3-0.2,0.4c-1.8,3.5-2.5,7.4-2,11.4v0.3c0,0.4,0.1,0.8,0.2,1.2 c0.3,2.2,1,4.5,2,6.7c0,0,0.1,0.2,0.1,0.2c0,0.1,0.1,0.2,0.1,0.3c0,0.1,0.1,0.2,0.1,0.2c0,0.1,0.2,0.4,0.2,0.5l0.2,0.4 c0.3,0.5,0.5,1.1,0.8,1.5c0.2,0.4,0.5,0.9,0.7,1.2l0.6,1c3,5.7,5.4,10,7.8,13.8l0.2,0.4c0.8,1.5,1.8,3.4,2.8,5.4 c0.8,1.6,0.9,4.4,0.2,6.1l0,0.1c-0.9,1.9-1.8,3.7-2.5,4.9c-3.1,4.9-5.9,10.1-8.5,14.9l-1.5,2.8c-0.2,0.4-0.4,0.8-0.6,1.2l-0.2,0.3 c-1.6,3.2-2.5,6.6-2.8,10c0,0.1,0,0.2,0,0.4c0,0.2,0,0.5,0,0.7v0.5c0,3.2,0.7,6.2,2.1,8.9c0.1,0.4,0.3,0.8,0.6,1.1 c2.1,3.8,5.3,7,9.5,9.6c0.3,0.2,0.6,0.4,0.9,0.6c0.3,0.1,0.5,0.3,0.8,0.5l1.1,0.6c5,3.1,10.1,6.3,15.3,9.1c1.2,0.8,2.4,1.5,3.6,2.4 c1.9,1.3,3.7,4.1,3.8,6.1c0.1,2,0.2,4.1,0.4,6v1.3c0,1.4-0.1,2.8-0.1,4.4v4.2c0.1,4.1,0.2,7.6,0.4,10.7c0.2,4.6,1.4,8.8,3.5,12.3 c0.1,0.2,0.2,0.5,0.4,0.7c0.4,0.5,0.6,0.8,0.9,1.2c0,0,0,0,0,0c0.1,0.1,0.2,0.3,0.4,0.5c0.3,0.3,0.6,0.7,0.9,1l0.2,0.2 c0.1,0.1,0.2,0.3,0.4,0.4c0.1,0.1,0.3,0.3,0.4,0.4l0.7,0.6c0.2,0.1,0.3,0.3,0.5,0.4c0.2,0.2,0.4,0.3,0.5,0.4c0,0,0,0,0,0l1.3,0.9 c0.2,0.1,0.4,0.2,0.6,0.3c3.5,2.2,7.6,3.4,12.4,3.6c8,0.4,14.7,0.4,20.7,0.3h0.3c3.6,0.1,5.8,0.2,7.2,0c0.4,0.1,0.8,0.2,1.2,0.4 c1.3,1.1,2.3,2.1,2.9,3l1.1,1.7c0.6,0.9,1.2,1.8,1.7,2.7c0.6,1,1.1,2.1,1.7,3.1l8,13.3c0.2,0.3,0.3,0.5,0.5,0.8 c0.2,0.3,0.4,0.6,0.6,0.9c2.7,4.3,5.9,7.5,9.6,9.5c0.1,0,0.1,0.1,0.2,0.1c0.2,0.1,0.4,0.2,0.6,0.3c2.8,1.5,5.8,2.2,9.1,2.2 c0.9,0,1.8-0.1,2.6-0.2c3.1-0.4,6.2-1.3,9.1-2.7c0,0,0.2-0.1,0.2-0.1l0.4-0.2c0.5-0.3,1.1-0.5,1.6-0.8l1.6-0.9 c0.2-0.1,0.5-0.2,0.6-0.4c5.6-3,9.9-5.4,13.7-7.8l0.4-0.2c1.5-0.8,3.4-1.8,5.4-2.8c1.6-0.8,4.4-0.9,6.2-0.2l0.1,0 c1.9,0.9,3.7,1.9,4.9,2.5c4.9,3.1,10.1,5.9,14.9,8.5l2.9,1.6c0.5,0.3,0.9,0.5,1.4,0.7c3.6,1.8,7.2,2.7,10.8,2.8h0.8 c3.2,0,6.2-0.7,9-2.1c0.2-0.1,0.4-0.2,0.6-0.3c0.1,0,0.2-0.1,0.3-0.2c3.8-2.2,7.1-5.4,9.6-9.6c0.2-0.3,0.4-0.6,0.5-0.9 c0.1-0.3,0.3-0.5,0.5-0.8c0.7-1.1,1.4-2.3,2.1-3.5l1.4-2.3c1.5-2.6,3-5.1,4.5-7.7l0.4-0.8c0.4-0.7,0.8-1.5,1.2-2.2 c0.7-1.1,1.4-2.2,2.1-3.2c0.1-0.2,0.2-0.4,0.3-0.6c0.1-0.2,0.2-0.3,0.4-0.6c0.6-1,1.6-1.9,2.8-2.9c0.4-0.2,0.8-0.3,1.2-0.4 c1.1,0.1,3.1,0.1,7.3,0h1.6c1.5,0,3,0.1,4.4,0.1h4.2c4.1-0.1,7.6-0.2,10.7-0.4c4.7-0.2,8.8-1.4,12.3-3.5c0.2-0.1,0.5-0.2,0.7-0.4 l1.2-1c0,0,0,0,0,0c0.1-0.1,0.3-0.2,0.4-0.3l0,0c0.4-0.3,0.7-0.6,1-0.9l0.2-0.2c0.1-0.1,0.3-0.2,0.4-0.4c0.1-0.1,0.3-0.3,0.4-0.4 l0.6-0.7c0.2-0.2,0.3-0.4,0.3-0.4c0.3-0.3,0.4-0.5,0.5-0.7c0.3-0.4,0.6-0.9,1-1.4c2.3-3.7,3.5-8,3.7-12.8c0.1-3.5,0.3-7.1,0.4-10.8 v-4.2c0-1.5,0-3-0.1-4.4v-1.2c0.1-2.3,0.2-4.3,0.4-6.2c0-0.1,0.1-0.3,0.1-0.4l0.1-0.4c0.1-0.5,0-1.1-0.2-1.6c0-0.1,0-0.1,0.1-0.2 c1.1-1.3,2.1-2.3,3-2.9l1.7-1c0.9-0.6,1.8-1.2,2.8-1.8c1-0.5,2-1.1,3-1.7l7.6-4.5c1.4-0.8,2.7-1.7,4.1-2.5l1.6-1 c0.3-0.2,0.5-0.3,0.8-0.5c0.3-0.2,0.6-0.4,0.9-0.5c4.3-2.7,7.5-5.9,9.5-9.7c0,0,0.1-0.2,0.1-0.2c0.1-0.2,0.2-0.4,0.3-0.6 c1.5-2.8,2.2-5.8,2.3-9.1c0.1-0.2,0.1-0.5,0.1-0.7c-0.1-3.6-1.1-7.2-2.8-10.7L419,220.7L419,220.7z M414.8,169.5L414.8,169.5 L414.8,169.5L414.8,169.5z M400.8,232.3c-0.3,0.2-0.5,0.4-0.7,0.7c-0.2,0.4-0.6,0.8-1.1,1.2l-0.4,0.2c-0.2,0.1-0.4,0.3-0.7,0.4 c-2.4,1.3-4.7,2.7-7.1,4.1l-2.6,1.6c-3.8,2.3-7.7,4.6-11.6,6.9l-0.5,0.3c-0.1,0.1-0.3,0.1-0.4,0.2l-0.3,0.2c-1.8,1-3.4,2.1-4.8,3.2 c-0.3,0.3-0.6,0.5-1,0.8c-2.3,2.1-4,4.7-5.2,7.8c-0.1,0.2-0.2,0.4-0.2,0.5l-0.2,0.5c-0.9,2.7-1.3,5.7-1.2,9c0,3.5-0.1,7.1-0.2,10.6 c-0.1,4.7-0.3,9.5-0.1,14.2c0.1,2-0.2,3.5-0.8,4.1l-0.1,0.1c-0.7,0.6-2.1,0.9-4.2,0.9c-4.7-0.2-9.4,0-14,0.1 c-3.6,0.1-7.2,0.2-10.9,0.2c-3.2,0-6.1,0.4-8.7,1.2c-0.3,0-0.5,0.1-0.6,0.2c-0.2,0.1-0.5,0.1-0.8,0.3c-2.9,1-5.4,2.7-7.6,5.1 c0,0-0.2,0.2-0.2,0.2c0,0-0.5,0.5-0.7,0.8c-1.3,1.6-2.4,3.2-3.3,4.9l-0.7,1.2c-2.2,3.8-4.6,7.7-6.8,11.5c-0.5,0.9-1.1,1.8-1.5,2.6 c-1.4,2.4-2.8,4.7-4.1,7.1c-0.2,0.4-0.4,0.7-0.6,1c-0.5,0.6-0.9,1-1.3,1.2c-0.6,0.3-1.4,0.6-2.9,0c-0.8-0.3-1.6-0.8-2.5-1.4 c-3.8-2.5-7.8-4.7-11.7-6.8c-3.1-1.7-6.3-3.4-9.3-5.3c-4.1-2.5-8-3.8-12.3-3.9h-1.9c-0.2,0-0.4,0-0.5,0.1l-0.2,0c-0.3,0-0.6,0-1,0.1 c-0.2,0-0.4,0-0.6,0.1l-0.6,0.1c-0.2,0-0.4,0.1-0.6,0.1c0,0,0,0-0.1,0c-0.2,0-0.4,0.1-0.6,0.2l0.7,2.3l0,0l-1-2.2l-0.4,0.1 c-0.1,0-0.3,0.1-0.4,0.1c-0.1,0-0.1,0-0.2,0.1c-0.2,0-0.4,0.1-0.6,0.1c-2,0.8-3.8,1.7-5.5,2.7c-1.3,0.8-2.6,1.6-4,2.4 c-3.9,2.2-7.7,4.3-11.4,6.5c-0.2,0.1-0.5,0.3-0.7,0.4c-0.2,0.1-0.3,0.2-0.5,0.3c0,0-0.2,0.1-0.3,0.1c-1.5,0.8-3.1,1.7-4.5,2.5 c-0.7,0.4-1.5,0.8-2.2,1.1l-0.6,0.3c-1,0.2-2,0.2-3.5-2l-0.4-0.8c-0.5-0.9-1-1.8-1.5-2.6c-0.5-0.8-1-1.6-1.4-2.4 c-0.1-0.3-0.3-0.5-0.5-0.8c-0.1-0.2-0.2-0.4-0.4-0.7l-1.7-2.9c-2.4-4-4.9-8.2-7.3-12.4l-0.4-0.6c-0.1-0.1-0.1-0.2-0.2-0.4 c-0.1-0.2-0.1-0.4-0.3-0.5c-0.1-0.2-0.3-0.4-0.4-0.7c0-0.1-0.1-0.1-0.1-0.2c-4.4-7-11-10.5-19.6-10.5c-3.5,0-7.1-0.1-10.6-0.2 c-5.1-0.1-10.4-0.3-15.7-0.1c-3.4,0.2-4.1-0.9-4.3-1.2c-0.4-0.8-0.6-2.1-0.6-3.8c0.2-4.8,0.1-9.5-0.1-14.2l-0.1-12.9 c0-0.4,0-0.8-0.1-1.2c0-0.2,0-0.4-0.1-0.7c0-0.3-0.1-0.6-0.1-0.9l0-0.2c0-0.1,0-0.3,0-0.4c-1.3-7.3-5.3-12.7-12.4-16.5 c-1.9-1.1-3.8-2.1-5.8-3.3c-2.1-1.2-4.2-2.5-6.3-3.8c-2.2-1.3-4.3-2.6-6.5-3.9c-1.3-0.8-2.6-1.6-3.9-2.3c-0.6-0.3-1.1-0.7-1.6-1 l-0.2-0.2c-0.1-0.1-0.2-0.3-0.3-0.5c-0.3-0.6-0.6-1.4,0-2.9c0.1-0.3,0.2-0.6,0.4-0.8c0,0,0.1-0.1,0.1-0.2c0-0.1,0.1-0.1,0.1-0.2 l1.1-1.8c2.4-3.6,4.5-7.5,6.5-11.3c1.1-2.1,2.2-4.1,3.3-6.1l1.9-3.2c0.5-0.8,0.9-1.4,1.2-2.1c1.9-3.6,2.9-7.2,2.9-10.9 c0-3.9-1.1-7.8-3.5-11.8c-2.2-3.7-4.3-7.4-6.4-11.1c-1.7-2.9-3.3-5.9-5-8.8c-0.4-0.6-0.8-1.3-1.2-2.1c-0.1-0.1-0.1-0.2-0.2-0.5 c-0.3-0.5-0.5-1-0.8-1.5l-0.3-0.6c-0.3-0.9-0.4-1.5-0.2-2c0,0,0-0.1,0-0.1c0-0.1,0.1-0.1,0.1-0.2c0.3-0.6,1-1.2,1.7-1.7l1-0.5 c0.9-0.5,1.8-1,2.6-1.5c0.8-0.5,1.6-1,2.4-1.4c0.3-0.1,0.5-0.3,0.8-0.5c0.2-0.1,0.4-0.2,0.7-0.4l0.2-0.1c4.7-2.8,9.5-5.6,14.1-8.3 c0.3-0.1,0.5-0.3,0.8-0.4c0.1-0.1,0.3-0.2,0.5-0.3c1.4-0.8,2.8-1.6,4.2-2.7c3.8-2.9,6.3-6.7,7.5-11.2c0-0.1,0.1-0.2,0.1-0.4 c0.1-0.3,0.2-0.5,0.2-0.8l0.3-1.3c0-0.2,0.1-0.3,0.1-0.5c0.1-0.3,0.1-0.7,0.2-1.1c0-0.1,0-0.2,0-0.3c0-0.2,0.1-0.3,0.1-0.5 c0-0.1,0-0.2,0-0.3c0-0.2,0-0.5,0-0.7l0.1-11.2c0.1-5.2,0.3-10.7,0.1-16c-0.1-1.9,0.2-3.3,0.9-4c0.7-0.7,2.1-1,4-0.9 c5.3,0.2,10.7,0,15.9-0.1l11.3-0.1c0.4,0,0.8,0,1.2-0.1h0.4c0.2,0,0.4,0,0.7-0.1c0.2-0.1,0.4-0.1,0.6-0.1h0.1c0.2,0,0.3,0,0.5-0.1 c0.4-0.1,0.8-0.2,1.3-0.3c0.3,0,0.5-0.1,0.7-0.1c0.2,0,0.4,0,0.6-0.1c4.6-1.3,8.2-3.8,11.1-7.6c1-1.3,1.9-2.6,2.8-4.2 c0.1-0.2,0.3-0.5,0.4-0.7l0.2-0.3c2.8-4.9,5.7-9.7,8.6-14.5c0.1-0.2,0.2-0.4,0.4-0.6c0.2-0.3,0.3-0.5,0.4-0.7c1-1.7,2-3.4,3.1-5.2 l0.3-0.7c0.6-0.9,1.1-1.5,1.7-1.9c0.2,0,0.3-0.1,0.5-0.1c0.2-0.1,0.7-0.3,1.8,0.2l0.7,0.4c0.5,0.2,1,0.5,1.5,0.8 c0.1,0,0.3,0.2,0.3,0.2c0.1,0.1,0.2,0.1,0.2,0.1c0.7,0.4,1.5,0.9,2.1,1.2c3,1.7,6,3.4,9,5.1c3.6,2,7.4,4.1,10.9,6.2 c7.2,4.3,15.2,4.7,22.6,0.7c0.8-0.3,1.5-0.8,2.1-1.2l1.9-1.2c0.3-0.2,0.6-0.3,0.9-0.5l0.4-0.2c2-1.1,4-2.2,6-3.3 c3.8-2.1,7.7-4.2,11.3-6.5l0.5-0.3c0.5-0.3,1-0.6,1.5-0.9l0.3-0.2c0.3-0.2,0.5-0.3,0.7-0.3c1.6-0.6,2.5-0.2,2.9,0 c0.2,0.1,0.3,0.2,0.6,0.4c0.1,0.1,0.2,0.2,0.2,0.2c0.3,0.3,0.6,0.8,1,1.5c0.7,1.3,1.5,2.7,2.3,3.9c1.6,2.8,3.3,5.7,5,8.5 c0.9,1.5,1.8,2.9,2.6,4.4c1.1,1.9,2.2,3.9,3.3,5.8c3.7,6.9,9.2,11,16.5,12.3c0.1,0,0.3,0,0.4,0l1.1,0.1c0.1,0,0.2,0,0.3,0h0.2 c0.3,0.1,0.6,0.1,1,0.1c0.1,0,0.2,0,0.4,0h9.2l3.8,0.1c4.6,0.1,9.4,0.3,14.1,0.1c1.7-0.1,3,0.1,3.6,0.5c0.4,0.2,1.4,0.9,1.4,4.4 c-0.1,5.2,0,10.5,0.1,15.7c0.1,3.5,0.2,7.1,0.2,10.6c0,8.7,3.6,15.2,10.5,19.5c0.2,0.1,0.4,0.2,0.6,0.4c0.1,0.1,0.2,0.1,0.3,0.2 c0.1,0.1,0.3,0.2,0.4,0.2c0.1,0.1,0.3,0.2,0.4,0.2l0.8,0.5c3.8,2.2,7.6,4.4,11.4,6.7l4,2.4c0.2,0.1,0.4,0.2,0.6,0.4 c0.3,0.2,0.5,0.3,0.7,0.4c1.7,1,3.3,2,5,2.9c0,0,0.2,0.1,0.3,0.1l0.7,0.4c2.2,1.4,2.3,2.5,2,3.5c-0.5,1-0.9,1.9-1.4,2.8l-2.7,4.8 c-0.1,0.2-0.2,0.4-0.3,0.5c-0.1,0.2-0.3,0.5-0.3,0.6c-1.1,1.9-2.2,3.9-3.3,5.8c-1.1,1.9-2.1,3.8-3.2,5.7l-1,1.7 c-0.5,0.8-0.9,1.6-1.4,2.4c-1.1,1.7-1.9,3.5-2.7,5.6c0,0.1-0.1,0.3-0.1,0.4l-0.2,0.5c0,0.1-0.1,0.2-0.1,0.3c0,0.1,0,0.1,0,0.2 c-0.1,0.4-0.2,0.7-0.2,0.9c-0.1,0.4-0.2,0.7-0.2,0.9l-0.1,0.8c0,0.1,0,0.1,0,0.2c0,0.2-0.1,0.4-0.1,0.5c0,0.1,0,0.2-0.1,0.5 c0,0.1,0,0.3,0,0.4v2.5c0.1,4,1.4,8,3.9,12.1c1.9,3,3.6,6.2,5.3,9.4c2.1,3.9,4.2,7.9,6.7,11.6c0.6,0.9,1,1.7,1.3,2.4 C400.9,231.1,400.9,231.8,400.8,232.3L400.8,232.3z M391.6,429.4c0-0.2-0.1-0.3-0.1-0.5l-0.1-0.3c-2.8-6.5-5.7-12.9-8.5-19.4 c-7.4-16.7-15-34.1-21.9-51.4c-0.5-1.1-0.9-2.2-1.2-3.2c-1.1-3.3-2-6.5-2.9-9.5c-1-3.5-1.9-7.2-2.6-10.7c-0.2-1.1-1.2-1.9-2.4-1.9 h-8.2c-1.5,0-2.9,0-4.2,0.1l-1.4,0c-0.8,0-1.6,0.5-2,1.2c-0.1,0.2-0.3,0.5-0.5,0.8c0,0.1-0.1,0.1-0.1,0.2c-0.2,0.4-0.5,0.8-0.7,1.2 c-0.3,0.5-0.5,0.9-0.8,1.4c-0.3,0.5-0.4,1.1-0.2,1.7c7.7,34,21.7,63.8,36.6,95.3c-0.5-0.1-0.9-0.1-1.4-0.2l-0.9-0.1 c-7.9-1.2-15.5-2.4-23.1-3.7c-0.3,0-0.6-0.1-0.9-0.2c-0.4-0.1-0.7-0.1-0.9-0.2c-2-0.4-4-0.7-5.9-0.8c-7.1-0.6-13,1.3-17.8,5.6 c-1.8,1.5-3.5,3.4-5.3,5.8c-1,1.4-2.1,2.9-3.4,4.5c-2,2.4-4.1,4.9-6.6,7.7l-2.4,2.8c-1,1.2-2.1,2.3-3.1,3.5 c-1.6-3.1-3.1-6.3-4.5-9.5c-3.9-8.8-7.1-16.8-9.8-24.2c-6-16.7-11-34-13.9-48.7c-0.8-4.4-1.6-9.1-2.2-14.6c-0.1-0.8-0.5-1.4-1.2-1.8 c-3.1-1.7-6.3-3.5-9.3-5.5c-0.8-0.5-1.8-0.5-2.6,0c-2.7,1.8-5.8,3.6-9.3,5.5c-0.7,0.4-1.1,1.1-1.2,1.9c-0.5,4.7-1.3,9.6-2.2,14.5 c-3,15-8,32.3-13.9,48.7c-2.9,7.7-6.1,15.6-9.8,24.2c-1.5,3.3-3.1,6.5-4.6,9.5c-1-1.1-2-2.3-3-3.4l-2.5-2.9 c-2.2-2.6-4.4-5.1-6.6-7.7c-1.4-1.7-2.4-3.1-3.5-4.6c-1.6-2.2-3.4-4.2-5.2-5.7c-4.9-4.4-10.8-6.3-17.9-5.7c-1.9,0.1-3.8,0.4-6,0.8 c-0.5,0.1-1,0.2-1.7,0.3c-8,1.4-16.4,2.7-23.9,3.8c-0.5,0.1-0.9,0.1-1.4,0.2l0.2-0.4c14.8-31.5,28.8-61.2,36.4-95 c0.1-0.6,0.1-1.1-0.2-1.7c-0.2-0.5-0.5-0.9-0.7-1.3c-0.2-0.4-0.5-0.9-0.7-1.3c0-0.1-0.1-0.1-0.1-0.2c-0.2-0.3-0.4-0.5-0.5-0.8 c-0.4-0.7-1.1-1.1-1.9-1.2c-1.7-0.1-3.6-0.2-5.7-0.2h-8.2c-1.1,0-2.1,0.8-2.4,1.9c-0.8,3.8-1.6,7.3-2.6,10.6c-0.9,3-1.8,6.2-2.9,9.4 l-0.2,0.6c-0.3,0.9-0.6,1.8-1,2.7c-6.8,17.4-14.5,34.7-21.9,51.5c-2.8,6.4-5.7,12.8-8.5,19.3v0c-0.5,0.9-0.9,1.8-1.4,2.8 s-0.9,1.8-1.3,2.6c-2.2,4.3-4.6,10.7-0.5,16.9c0.1,0.2,0.3,0.4,0.5,0.7c0.1,0.2,0.3,0.4,0.4,0.6c3.6,4.6,9,6.4,15.9,5.2l7.9-1.3 c6.8-1.1,13.8-2.3,20.6-3.5c4.5-0.7,8.2-1.2,11.6-1.6c1.6-0.2,4.5,1,5.9,2.5c1,1,2,2.1,2.9,3.2l0.9,1c4.2,5.6,9,10.8,13.6,15.9 l2,2.2c0.6,0.7,1.2,1.3,1.8,1.8c3.6,3.7,7.7,5.9,11.8,6.2c6.6,0.9,12.4-2.6,16.2-9.7c0.1-0.2,0.3-0.5,0.5-0.9 c3.8-7.1,6.8-13.6,9.3-20c5-12.8,9.9-25.9,14.6-38.6l1.7-4.6c1.2,3.2,2.4,6.5,3.6,9.7c4.1,11,8.3,22.4,12.7,33.5 c2.5,6.4,5.6,13,9.4,20.2c0,0.1,0.1,0.2,0.1,0.2c0,0.1,0.1,0.1,0.2,0.3c3.5,6.5,8.7,10,14.4,10c0.6,0,1.2,0,1.9-0.1 c4.1-0.4,8.3-2.5,11.8-6.2c0.6-0.6,1.3-1.2,2-2l2.7-3c4.4-4.8,8.9-9.8,12.7-14.9l1-1.2c1-1.1,1.9-2.1,2.9-3.2 c1.4-1.5,4.2-2.7,5.9-2.5c3.9,0.5,7.8,1.1,11.5,1.6c6.8,1.2,13.8,2.4,20.5,3.5c2.7,0.4,5.4,0.9,8.1,1.3c7.1,1.2,12.3-0.5,15.9-5.2 c0.1-0.1,0.2-0.3,0.3-0.4c0,0,0,0,0,0l0.1-0.2c0-0.1,0.1-0.2,0.2-0.2c0.1-0.1,0.1-0.2,0.2-0.2c4.1-6.3,1.7-12.7-0.5-17.1 C393.2,432.5,392.4,430.9,391.6,429.4L391.6,429.4z M309.3,174.1h-36l-11.1-34.3c-0.8-2.3-2.9-3.9-5.4-3.9s-4.6,1.6-5.4,3.9 l-11.1,34.3h-36c-2.4,0-4.6,1.6-5.4,3.9s0.1,4.9,2.1,6.3l29.1,21.1l-11.1,34.3c-0.8,2.3,0.1,4.9,2.1,6.3s4.6,1.4,6.6,0l29.1-21.1 l29.2,21.1c1,0.8,2.1,1.1,3.3,1.1s2.3-0.4,3.3-1.1c1.9-1.4,2.8-3.9,2-6.3l-11.1-34.3l29.2-21.1c1.9-1.4,2.8-3.9,2-6.3 C313.8,175.6,311.7,174.1,309.3,174.1L309.3,174.1z"></path> </svg> 