<?xml version="1.0" encoding="UTF-8"?> <svg xmlns="http://www.w3.org/2000/svg" xmlns:xlink="http://www.w3.org/1999/xlink" version="1.1" id="Layer_1" x="0px" y="0px" width="596px" height="227px" viewBox="0 0 596 227" style="enable-background:new 0 0 596 227;" xml:space="preserve"> <style type="text/css"> .st0{fill-rule:evenodd;clip-rule:evenodd;fill:#A7D6F5;} .st1{fill-rule:evenodd;clip-rule:evenodd;fill:#80B5C0;} .st2{fill-rule:evenodd;clip-rule:evenodd;fill:#CAD510;} .st3{fill-rule:evenodd;clip-rule:evenodd;fill:#52AE32;} .st4{fill-rule:evenodd;clip-rule:evenodd;fill:#005436;} .st5{fill:#FFFFFF;} .st6{fill:#4EA338;} .st7{fill:#BECB25;} .st8{fill:#F4F2BA;} .st9{fill:#005436;} .st10{fill:#4BA337;} </style> <g> <g> <g> <path class="st0" d="M0.9,14.6l1.8,102.5c1.1,44.5,4.6,71,32.4,88.5c16.7,10.5,33.5,17.2,51,20.4c0.2,0,0.4,0,0.6,0 c17.5-3.1,34.4-9.8,51-20.4c27.8-17.5,31.4-44,32.4-88.5l1.8-102.5c0-0.8-0.4-1.5-1.2-1.7C126.3-3,46.7-3,2.1,12.9 C1.4,13.2,0.9,13.8,0.9,14.6L0.9,14.6z"></path> </g> <path class="st1" d="M1.2,30.9l1.5,86.2c1.1,44.5,4.6,71,32.4,88.5c16.7,10.5,33.5,17.2,51,20.4c0.2,0,0.4,0,0.6,0 c17.5-3.1,34.4-9.8,51-20.4c27.8-17.5,31.4-44,32.4-88.5l1.8-102.5c0-0.8-0.4-1.5-1.2-1.7c-2.3-0.8-4.8-1.6-7.3-2.4 c-10.8-0.9-21.8-1.3-33-1.3C83.4,9.2,39.2,17.1,1.2,30.9L1.2,30.9z"></path> <path class="st2" d="M62.2,36.2c-20.9,0-41.3,1.6-60.8,4.5l1.3,76.4c1.1,44.5,4.6,71,32.4,88.5c16.7,10.5,33.5,17.2,51,20.4 c0.2,0,0.4,0,0.6,0c17.5-3.1,34.4-9.8,51-20.4c27.8-17.5,31.4-44,32.4-88.5l1.1-65.8C138.3,41.6,101.3,36.2,62.2,36.2L62.2,36.2z"></path> <path class="st3" d="M112.6,59.6C72.7,59.6,35.1,65.9,2,77.1l0.7,40.1c1.1,44.5,4.6,71,32.4,88.5c16.7,10.5,33.5,17.2,51,20.4 c0.2,0,0.4,0,0.6,0c17.5-3.1,34.4-9.8,51-20.4c27.8-17.5,31.4-44,32.4-88.5l0.9-52.9C152.4,61.2,132.8,59.6,112.6,59.6L112.6,59.6 z"></path> <path class="st4" d="M34,88.7c-10.9,0-21.5,0.9-31.7,2.6l0.4,25.8c1.1,44.5,4.6,71,32.4,88.5c16.7,10.5,33.5,17.2,51,20.4 c0.2,0,0.4,0,0.6,0c17.5-3.1,34.4-9.8,51-20.4c19.8-12.5,27.3-29.5,30.3-54.3C142.3,114,91.9,88.7,34,88.7L34,88.7z"></path> <path class="st5" d="M2.4,13.8C23.6,6.2,54.2,1.9,86.5,1.9c25.7,0,50.3,2.7,69.9,7.7c-8.6-0.5-17.2-0.8-25.8-0.8 C85.4,8.7,41,16.1,2.1,30.1L1.9,14.6C1.9,14.2,2.1,13.9,2.4,13.8L2.4,13.8z M170.6,13.8c0.4,0.1,0.6,0.4,0.6,0.8l-0.6,36 c-34-9.8-70.5-14.8-108.3-14.8c-20.2,0-40.3,1.5-59.8,4.4l-0.2-9.1C41,17.1,85.4,9.7,130.6,9.7c10.2,0,20.5,0.4,30.6,1.1 C164.5,11.7,167.6,12.7,170.6,13.8L170.6,13.8z M167.5,149.6C140.3,111.7,89.4,88.2,34,88.2c-10.3,0-20.7,0.8-30.8,2.5L3,77.3 C37.1,65.8,74,60,112.6,60c19.5,0,38.8,1.5,57.6,4.5l-0.9,52.5C169.1,129,168.6,139.8,167.5,149.6L167.5,149.6z M2.3,41.1 c19.5-2.9,39.6-4.4,59.8-4.4c37.9,0,74.3,5,108.3,14.8l-0.2,12.1c-18.8-3-38.2-4.5-57.7-4.5C74,59.1,37.1,64.9,2.9,76.3L2.3,41.1 L2.3,41.1z M86.5,225.1l-0.2,0c-17.5-3.2-34.1-9.8-50.7-20.2c-28.3-17.8-31-46.3-32-87.8L3.2,91.7C13.3,90,23.7,89.2,34,89.2 c55.5,0,106.5,23.7,133.4,61.8c-2.9,23.7-10.2,41.4-30,53.9c-16.6,10.5-33.2,17.1-50.7,20.2C86.6,225.1,86.6,225.1,86.5,225.1 L86.5,225.1z M171.2,12C149.9,4.4,119,0,86.5,0C54,0,23.1,4.4,1.8,12C0.7,12.4,0,13.4,0,14.6l1.8,102.5c1,42.1,3.8,71,32.9,89.3 C51.4,217.1,68.2,223.8,86,227c0.2,0,0.3,0,0.5,0c0.2,0,0.3,0,0.5,0c17.8-3.2,34.6-9.9,51.4-20.5c29.1-18.3,31.9-47.3,32.9-89.3 L173,14.6C173,13.4,172.3,12.4,171.2,12L171.2,12z"></path> <path class="st6" d="M86.5,199c-3-4.6-4.9-11.1-4.9-18.4c0-7.3,1.9-13.8,4.9-18.4c3,4.6,4.9,11.1,4.9,18.4 C91.4,187.9,89.5,194.5,86.5,199L86.5,199z"></path> <path class="st6" d="M121.2,173.3c-5.3,1.5-12.1,1.2-19-1c-6.9-2.3-12.6-6.1-16-10.4c5.3-1.5,12.1-1.3,19,1 C112.2,165.2,117.8,169.1,121.2,173.3L121.2,173.3z"></path> <path class="st6" d="M51.8,173.3c3.4-4.3,9-8.1,16-10.4c6.9-2.3,13.8-2.5,19-1c-3.4,4.3-9,8.1-16,10.4 C63.9,174.6,57.1,174.8,51.8,173.3L51.8,173.3z"></path> <path class="st6" d="M64.8,132.7c5.1,1.9,10.5,6.1,14.8,12c4.3,5.9,6.6,12.3,6.8,17.8c-5.1-1.9-10.5-6.1-14.8-12 C67.4,144.5,65.1,138.1,64.8,132.7L64.8,132.7z"></path> <path class="st6" d="M108.2,132.7c-0.2,5.5-2.5,11.9-6.8,17.8c-4.3,5.9-9.7,10.1-14.8,12c0.2-5.5,2.5-11.9,6.8-17.8 C97.7,138.7,103.1,134.6,108.2,132.7L108.2,132.7z"></path> <path class="st5" d="M86.6,128.4c16.3,0,16.9,8.3,15,11.7c-2,3.4-4.4,6.6-6.6,10c-7.6,12-10.4,11.3-16.9,0 c-2.2-3.3-4.7-6.5-6.6-10C69.4,136.7,70.7,128.4,86.6,128.4L86.6,128.4z"></path> <path class="st7" d="M101.2,138.4c0.2-2.4-0.2-5.5-5.1-6.6c-2.4-0.6-5.4,0.6-9.5,0.4c-4.1,0.1-7.1-1.1-9.5-0.4 c-4.9,1.2-5.3,4.2-5.1,6.4c-0.2-1.8,0.2-4.9,5.1-6c2.4-0.6,5.4,0.6,9.5,0.4c4.1,0.1,7.1-1.1,9.5-0.4 C100.9,133.3,101.3,136.4,101.2,138.4L101.2,138.4z"></path> <path class="st8" d="M101.2,139.1c0.2-2.4-0.2-5.5-5.1-6.6c-2.4-0.6-5.4,0.6-9.5,0.4c-4.1,0.1-7.1-1.1-9.5-0.4 c-4.9,1.2-5.3,4.2-5.1,6.4c-0.2-1.8,0.4-4.4,5.3-5.6c2.4-0.6,5.2,1.8,9.3,1.6c4.1,0.1,7.1-2.3,9.5-1.6 C100.8,134.5,101.3,137.1,101.2,139.1L101.2,139.1z"></path> <path class="st5" d="M54.5,151.6c5-15.5,13.1-13.5,15.8-10.6c2.6,2.9,4.9,6.3,7.4,9.4c9.1,10.9,7.6,13.4-5.2,16.1 c-3.8,1.1-7.7,2.4-11.5,3.2C57.1,170.5,49.6,166.7,54.5,151.6L54.5,151.6z"></path> <path class="st7" d="M68.5,140.8c-2.2-0.9-5.3-1.5-7.9,2.8c-1.4,2.1-1.1,5.4-2.5,9.2c-1.1,3.9-3.2,6.4-3.4,8.9 c-0.4,5,2.4,6.4,4.5,6.9c-1.8-0.4-4.6-1.7-4.2-6.8c0.1-2.5,2.2-5,3.4-8.9c1.4-3.8,1.2-7.1,2.5-9.2C63.6,139.4,66.6,140,68.5,140.8 L68.5,140.8z"></path> <path class="st8" d="M69.2,141c-2.2-0.9-5.3-1.5-7.9,2.8c-1.4,2.1-1.1,5.4-2.5,9.2c-1.1,3.9-3.2,6.4-3.4,8.9 c-0.4,5,2.4,6.4,4.5,6.9c-1.8-0.4-4.1-1.7-3.7-6.8c0.1-2.5,3.3-4.4,4.4-8.3c1.4-3.8,0-7.4,1.4-9.5C64.7,139.9,67.3,140.2,69.2,141 L69.2,141z"></path> <path class="st5" d="M118.5,152c5,15.5-2.7,18.7-6.5,17.9c-3.9-0.8-7.7-2.2-11.5-3.2c-13.8-3.5-14-6.4-5.2-16.1 c2.5-3.1,4.8-6.5,7.4-9.4C105.3,138.3,113.6,136.9,118.5,152L118.5,152z"></path> <path class="st7" d="M113.5,169c2.4-0.6,5.1-1.9,4.7-6.9c-0.1-2.5-2.2-5-3.4-8.9c-1.4-3.8-1.2-7.1-2.5-9.2 c-2.6-4.3-5.6-3.8-7.7-2.9c1.7-0.7,4.7-1.3,7.3,3c1.4,2.1,1.1,5.4,2.5,9.2c1.1,3.9,3.2,6.4,3.4,8.9 C118.2,167.2,115.5,168.5,113.5,169L113.5,169z"></path> <path class="st8" d="M112.8,169.2c2.4-0.6,5.1-1.9,4.7-6.9c-0.1-2.5-2.2-5-3.4-8.9c-1.4-3.8-1.2-7.1-2.5-9.2 c-2.6-4.3-5.6-3.8-7.7-2.9c1.7-0.7,4.3-1,7,3.3c1.4,2.1-0.1,5.5,1.3,9.4c1.1,3.9,4.4,6,4.5,8.5 C117.1,167.5,114.8,168.8,112.8,169.2L112.8,169.2z"></path> <path class="st5" d="M66.6,189.5c-13.2-9.6-8.8-16.7-5.2-18.3c3.6-1.6,7.5-2.8,11.2-4.2c13.2-5.3,15.1-3,13.7,10 c-0.2,4-0.1,8-0.5,11.9C85.4,192.8,79.4,198.8,66.6,189.5L66.6,189.5z"></path> <path class="st7" d="M60.7,172.8c-1.6,1.9-3,4.5,0.3,8.4c1.6,1.9,4.7,2.7,8,5.2c3.4,2.3,5.1,5.1,7.4,6c4.7,2,6.8-0.3,7.9-2.2 c-0.9,1.6-3,3.8-7.7,1.9c-2.3-0.9-4.1-3.7-7.4-6c-3.2-2.5-6.4-3.3-8-5.2C57.9,177,59.3,174.3,60.7,172.8L60.7,172.8z"></path> <path class="st8" d="M61.1,172.2c-1.6,1.9-3,4.5,0.3,8.4c1.6,1.9,4.7,2.7,8,5.2c3.4,2.3,5.1,5.1,7.4,5.9c4.7,2,6.8-0.3,7.9-2.2 c-0.9,1.6-2.9,3.4-7.6,1.4c-2.3-0.9-3.2-4.5-6.6-6.8c-3.2-2.5-7.1-2.3-8.6-4.2C58.6,176.1,59.8,173.7,61.1,172.2L61.1,172.2z"></path> <path class="st5" d="M106.5,189.6c-13.2,9.6-18.6,3.2-19-0.7c-0.4-3.9-0.3-8-0.5-11.9c-1-14.2,1.8-15.3,13.7-10 c3.7,1.4,7.6,2.5,11.2,4.1C115.5,172.8,119.3,180.3,106.5,189.6L106.5,189.6z"></path> <path class="st7" d="M88.8,190.1c1.3,2.1,3.4,4.3,8,2.3c2.3-0.9,4.1-3.7,7.4-6c3.2-2.5,6.4-3.3,8-5.2c3.3-3.8,1.8-6.5,0.4-8.2 c1.2,1.4,2.7,4.1-0.6,7.9c-1.6,1.9-4.7,2.7-8,5.2c-3.4,2.3-5.1,5.1-7.4,5.9C92,194.1,89.8,191.8,88.8,190.1L88.8,190.1z"></path> <path class="st8" d="M88.4,189.5c1.3,2.1,3.4,4.3,8.1,2.3c2.3-0.9,4.1-3.7,7.4-6c3.2-2.5,6.4-3.3,8-5.2c3.3-3.8,1.8-6.5,0.4-8.2 c1.2,1.4,2.3,3.8-1,7.6c-1.6,1.9-5.3,1.7-8.5,4.1c-3.4,2.3-4.4,6-6.7,6.9C91.3,193,89.4,191.2,88.4,189.5L88.4,189.5z"></path> <path class="st6" d="M86.5,141.4c-1.7,2.6-2.8,6.3-2.8,10.5c0,4.2,1.1,7.9,2.8,10.5c1.7-2.6,2.8-6.3,2.8-10.5 C89.3,147.8,88.2,144,86.5,141.4L86.5,141.4z"></path> <path class="st6" d="M106.3,156.1c-3-0.8-6.9-0.7-10.8,0.6c-4,1.3-7.2,3.5-9.1,5.9c3,0.8,6.9,0.7,10.8-0.6 C101.1,160.7,104.3,158.5,106.3,156.1L106.3,156.1z"></path> <path class="st6" d="M66.7,156.1c1.9,2.4,5.2,4.6,9.1,5.9c3.9,1.3,7.8,1.4,10.8,0.6c-1.9-2.4-5.1-4.6-9.1-5.9 C73.6,155.4,69.7,155.2,66.7,156.1L66.7,156.1z"></path> <path class="st6" d="M74.2,179.2c2.9-1.1,6-3.5,8.4-6.8c2.4-3.4,3.8-7,3.9-10.1c-2.9,1.1-6,3.5-8.4,6.8 C75.6,172.5,74.3,176.1,74.2,179.2L74.2,179.2z"></path> <path class="st6" d="M98.8,179.2c-0.1-3.1-1.5-6.8-3.9-10.1c-2.4-3.4-5.5-5.7-8.4-6.8c0.1,3.1,1.4,6.8,3.9,10.1 C92.9,175.8,95.9,178.2,98.8,179.2L98.8,179.2z"></path> <path class="st5" d="M86.6,180.7c9.1,0,9.4-4.6,8.4-6.5c-1.1-1.9-2.5-3.7-3.7-5.6c-4.2-6.7-5.8-6.3-9.5,0 c-1.2,1.9-2.6,3.6-3.7,5.6C77,176.1,77.7,180.7,86.6,180.7L86.6,180.7z"></path> <path class="st6" d="M86.3,163.8c-1.4,0-2.8,1.9-4.5,4.8c-0.4,0.6-0.9,1.2-1.3,1.9c-0.8,1.2-1.7,2.4-2.4,3.7 c-0.4,0.7-0.6,2,0.1,3.3c0.7,1.2,2.6,3.1,8.3,3.1c5.4,0,7.4-1.6,8.2-3c0.7-1.3,0.5-2.7,0.1-3.4c-0.7-1.3-1.6-2.5-2.4-3.7 c-0.4-0.6-0.8-1.2-1.3-1.8C89,165.3,87.6,163.8,86.3,163.8L86.3,163.8z M86.6,180.8c-5.5,0-7.6-1.7-8.5-3.2 c-0.8-1.4-0.6-2.7-0.1-3.5c0.7-1.3,1.6-2.5,2.4-3.7c0.4-0.6,0.9-1.2,1.3-1.8c1.7-3,3.1-4.9,4.6-4.9c1.3,0,2.7,1.4,5,4.9 c0.4,0.6,0.8,1.2,1.3,1.8c0.8,1.2,1.7,2.5,2.4,3.7c0.5,0.8,0.7,2.3,0,3.6C94.1,179.2,92,180.8,86.6,180.8L86.6,180.8z"></path> <path class="st7" d="M94.7,175.2c0.1,1.4-0.1,3.1-2.9,3.7c-1.3,0.4-3-0.3-5.3-0.2c-2.3-0.1-4,0.6-5.3,0.2c-2.7-0.6-3-2.3-2.9-3.6 c-0.1,1,0.1,2.7,2.9,3.4c1.3,0.4,3-0.3,5.3-0.2c2.3-0.1,4,0.6,5.3,0.2C94.6,178,94.8,176.3,94.7,175.2L94.7,175.2z"></path> <path class="st8" d="M94.7,174.7c0.1,1.4-0.1,3.1-2.9,3.7c-1.3,0.4-3-0.3-5.3-0.3c-2.3-0.1-4,0.6-5.3,0.3c-2.7-0.7-3-2.4-2.9-3.6 c-0.1,1,0.2,2.5,3,3.1c1.3,0.4,2.9-1,5.2-0.9c2.3-0.1,3.9,1.3,5.3,0.9C94.5,177.3,94.8,175.9,94.7,174.7L94.7,174.7z"></path> <path class="st5" d="M68.6,167.8c2.8,8.7,7.3,7.6,8.8,5.9c1.5-1.6,2.8-3.5,4.1-5.2c5.1-6.1,4.2-7.5-2.9-9 c-2.1-0.6-4.3-1.4-6.4-1.8C70.1,157.2,65.9,159.4,68.6,167.8L68.6,167.8z"></path> <path class="st6" d="M71.7,157.7c-1.1,0-2.1,0.6-2.8,1.5c-0.9,1.2-1.7,3.7-0.1,8.5c2,6.1,4.7,7,6.1,7l0,0c1.1,0,2.1-0.6,2.5-1.1 c1-1.1,1.9-2.3,2.8-3.5c0.4-0.6,0.9-1.2,1.4-1.8c2.6-3.1,3.5-4.9,3.1-6.1c-0.5-1.3-2.6-2-6-2.7c-0.7-0.2-1.5-0.4-2.2-0.6 c-1.4-0.4-2.8-0.9-4.3-1.2C72,157.8,71.8,157.7,71.7,157.7L71.7,157.7z M74.8,174.9C74.8,174.9,74.8,174.9,74.8,174.9 c-1.5,0-4.3-0.9-6.3-7.1c-1.6-4.9-0.8-7.4,0.1-8.7c0.7-1,1.8-1.6,3-1.6c0.2,0,0.4,0,0.6,0.1c1.4,0.3,2.9,0.7,4.3,1.2 c0.7,0.2,1.4,0.4,2.1,0.6c3.4,0.7,5.6,1.4,6.1,2.9c0.4,1.3-0.4,3-3.2,6.3c-0.5,0.6-0.9,1.2-1.3,1.7c-0.9,1.2-1.8,2.4-2.8,3.5 C77,174.4,76,174.9,74.8,174.9L74.8,174.9z"></path> <path class="st7" d="M76.5,173.8c-1.3,0.5-2.9,0.8-4.4-1.6c-0.8-1.2-0.6-3-1.4-5.1c-0.6-2.2-1.8-3.6-1.9-5 c-0.2-2.8,1.3-3.5,2.5-3.8c-1,0.2-2.5,1-2.3,3.8c0.1,1.4,1.2,2.8,1.9,5c0.8,2.1,0.6,4,1.4,5.1C73.7,174.6,75.4,174.2,76.5,173.8 L76.5,173.8z"></path> <path class="st8" d="M76.8,173.7c-1.3,0.5-2.9,0.8-4.4-1.6c-0.8-1.2-0.6-3-1.4-5.1c-0.6-2.2-1.8-3.6-1.9-5 c-0.2-2.8,1.3-3.5,2.5-3.8c-1,0.2-2.3,1-2.1,3.8c0.1,1.4,1.8,2.5,2.5,4.7c0.8,2.1,0,4.2,0.8,5.3C74.3,174.3,75.8,174.1,76.8,173.7 L76.8,173.7z"></path> <path class="st5" d="M104.3,167.5c2.8-8.7-1.5-10.4-3.6-10c-2.2,0.5-4.3,1.2-6.4,1.8c-7.7,1.9-7.8,3.6-2.9,9 c1.4,1.7,2.7,3.6,4.1,5.2C97,175.2,101.6,176,104.3,167.5L104.3,167.5z"></path> <path class="st6" d="M101.4,157.6c-0.2,0-0.4,0-0.6,0.1c-1.4,0.3-2.9,0.7-4.3,1.2c-0.7,0.2-1.4,0.4-2.1,0.6c-4,1-5.7,1.9-6.1,3.1 c-0.4,1.3,0.9,3.2,3.2,5.7c0.5,0.6,0.9,1.2,1.4,1.8c0.9,1.2,1.8,2.4,2.8,3.5c0.6,0.6,1.5,1,2.4,1c1.2,0,4.2-0.7,6.3-7 c1.6-4.8,0.8-7.2,0-8.4C103.3,157.7,101.9,157.6,101.4,157.6L101.4,157.6z M98,174.7L98,174.7c-1,0-2-0.4-2.5-1.1 c-1-1.1-1.9-2.3-2.8-3.5c-0.4-0.6-0.9-1.2-1.4-1.8c-2.3-2.6-3.7-4.5-3.3-5.9c0.4-1.3,2.1-2.2,6.2-3.2c0.7-0.2,1.4-0.4,2.1-0.6 c1.4-0.4,2.9-0.9,4.3-1.2c0.2,0,0.4-0.1,0.7-0.1c0.6,0,2,0.2,3,1.6c0.9,1.2,1.6,3.7,0,8.6C102.4,173.8,99.5,174.7,98,174.7 L98,174.7z"></path> <path class="st7" d="M101.5,158.1c1.3,0.3,2.9,1.1,2.6,3.9c-0.1,1.4-1.2,2.8-1.9,5c-0.8,2.1-0.6,4-1.4,5.1 c-1.5,2.4-3.1,2.1-4.3,1.6c0.9,0.4,2.6,0.7,4.1-1.7c0.8-1.2,0.6-3,1.4-5.1c0.6-2.2,1.8-3.6,1.9-5 C104.2,159.1,102.7,158.3,101.5,158.1L101.5,158.1z"></path> <path class="st8" d="M101.2,157.9c1.3,0.3,2.9,1.1,2.6,3.9c-0.1,1.4-1.2,2.8-1.9,5c-0.8,2.1-0.6,4-1.4,5.1 c-1.5,2.4-3.2,2.1-4.3,1.6c0.9,0.4,2.4,0.6,3.9-1.8c0.8-1.2,0-3.1,0.7-5.2c0.6-2.2,2.4-3.4,2.5-4.7 C103.6,158.9,102.3,158.2,101.2,157.9L101.2,157.9z"></path> <path class="st5" d="M75.4,146.7c-7.4,5.4-4.9,9.3-2.9,10.2c2,0.9,4.2,1.5,6.3,2.3c7.4,3,8.4,1.7,7.7-5.6c-0.1-2.2,0-4.5-0.3-6.7 C85.9,144.8,82.5,141.4,75.4,146.7L75.4,146.7z"></path> <path class="st6" d="M82.1,144c-1.9,0-4.1,0.9-6.7,2.8c-4.4,3.2-5.1,5.7-4.9,7.2c0.2,1.5,1.2,2.4,2,2.8c1.3,0.6,2.8,1.1,4.2,1.6 c0.7,0.2,1.4,0.5,2.1,0.7c2.5,1,4.2,1.5,5.3,1.5l0,0c0.7,0,1.3-0.2,1.7-0.6c0.9-1,0.8-3.2,0.5-6.3c0-0.8,0-1.5-0.1-2.3 c0-1.5-0.1-3-0.2-4.4C85.9,145.8,84.7,144,82.1,144L82.1,144z M84.1,160.7L84.1,160.7c-1.2,0-2.8-0.5-5.4-1.5 c-0.7-0.3-1.4-0.5-2.1-0.7c-1.4-0.5-2.8-1-4.2-1.6c-0.9-0.4-1.9-1.4-2.1-3c-0.2-1.6,0.6-4.2,5-7.4c2.6-1.9,4.8-2.8,6.8-2.8 c2.8,0,4,1.9,4.1,3.2c0.2,1.5,0.2,3,0.2,4.4c0,0.7,0,1.5,0.1,2.2c0.3,3.1,0.4,5.4-0.6,6.5C85.5,160.5,84.9,160.7,84.1,160.7 L84.1,160.7z"></path> <path class="st7" d="M72.1,155.9c-0.9-1-1.7-2.5,0.1-4.7c0.9-1.1,2.6-1.5,4.4-2.9c1.9-1.3,2.9-2.8,4.1-3.3 c2.6-1.1,3.8,0.2,4.4,1.2c-0.5-0.9-1.7-2.1-4.3-1c-1.3,0.5-2.3,2.1-4.1,3.3c-1.8,1.4-3.6,1.8-4.4,2.9 C70.5,153.6,71.3,155.1,72.1,155.9L72.1,155.9z"></path> <path class="st8" d="M72.3,156.3c-0.9-1-1.7-2.5,0.1-4.7c0.9-1.1,2.6-1.5,4.4-2.9c1.9-1.3,2.9-2.8,4.1-3.3 c2.6-1.1,3.8,0.2,4.4,1.2c-0.5-0.9-1.6-1.9-4.2-0.8c-1.3,0.5-1.8,2.5-3.7,3.8c-1.8,1.4-3.9,1.3-4.8,2.4 C70.9,154.1,71.6,155.4,72.3,156.3L72.3,156.3z"></path> <path class="st5" d="M97.6,146.6c-7.4-5.4-10.4-1.8-10.6,0.4c-0.2,2.2-0.2,4.4-0.3,6.7c-0.5,7.9,1,8.5,7.6,5.6 c2.1-0.8,4.2-1.4,6.3-2.3C102.7,156,104.8,151.8,97.6,146.6L97.6,146.6z"></path> <path class="st6" d="M91,143.8c-2.6,0-3.7,1.9-3.8,3.1c-0.2,1.5-0.2,3-0.2,4.5c0,0.7,0,1.5-0.1,2.2c-0.3,3.8,0,5.7,0.8,6.5 c0.4,0.4,0.9,0.6,1.5,0.6c1.1,0,2.6-0.5,5.2-1.6c0.7-0.3,1.4-0.5,2.1-0.7c1.4-0.5,2.8-1,4.1-1.6c0.8-0.3,1.7-1.3,1.8-2.7 c0.1-1.3-0.3-4-4.9-7.4C95,144.8,92.8,143.8,91,143.8L91,143.8z M89.2,160.9L89.2,160.9c-0.7,0-1.3-0.2-1.7-0.6 c-0.9-0.9-1.1-2.8-0.8-6.7c0-0.7,0-1.5,0.1-2.2c0-1.5,0.1-3,0.2-4.5c0.1-1.3,1.3-3.3,4-3.3c1.9,0,4.2,1,6.7,2.8 c4.4,3.2,5.2,5.9,5,7.5c-0.2,1.6-1.2,2.5-2,2.9c-1.3,0.6-2.8,1.1-4.2,1.6c-0.7,0.2-1.4,0.5-2.1,0.7 C91.9,160.4,90.3,160.9,89.2,160.9L89.2,160.9z"></path> <path class="st7" d="M87.8,146.3c0.7-1.1,1.9-2.4,4.5-1.3c1.3,0.5,2.3,2,4.1,3.3c1.8,1.4,3.6,1.8,4.4,2.9c1.8,2.1,1,3.6,0.2,4.6 c0.7-0.8,1.5-2.3-0.3-4.4c-0.9-1.1-2.6-1.5-4.4-2.9c-1.9-1.3-2.9-2.8-4.1-3.3C89.5,144.1,88.4,145.3,87.8,146.3L87.8,146.3z"></path> <path class="st8" d="M87.5,146.6c0.7-1.2,1.9-2.4,4.5-1.3c1.3,0.5,2.3,2,4.1,3.3c1.8,1.4,3.6,1.8,4.4,2.9c1.8,2.1,1,3.6,0.2,4.6 c0.7-0.8,1.3-2.1-0.6-4.3c-0.9-1.1-3-0.9-4.7-2.3c-1.9-1.3-2.4-3.4-3.7-3.8C89.2,144.6,88.1,145.7,87.5,146.6L87.5,146.6z"></path> <path class="st7" d="M87.7,155.5c0-0.4-0.2-0.8-0.6-1c-0.4-0.2-0.8-0.2-1.2,0c-0.4,0.2-0.6,0.6-0.6,1c0,0.4,0.2,0.8,0.6,1 c0.4,0.2,0.8,0.2,1.2,0C87.5,156.3,87.7,155.9,87.7,155.5L87.7,155.5z"></path> <path class="st6" d="M86.5,154.4c-0.2,0-0.4,0.1-0.5,0.1c-0.3,0.2-0.5,0.6-0.5,0.9c0,0.4,0.2,0.8,0.5,0.9c0.3,0.2,0.8,0.2,1.1,0 c0.3-0.2,0.5-0.6,0.5-0.9c0-0.4-0.2-0.8-0.5-0.9C86.9,154.4,86.7,154.4,86.5,154.4L86.5,154.4z M86.5,156.8 c-0.2,0-0.4-0.1-0.6-0.2c-0.4-0.2-0.6-0.7-0.6-1.1c0-0.5,0.2-0.9,0.6-1.1c0.4-0.2,0.9-0.2,1.3,0c0.4,0.2,0.6,0.7,0.6,1.1 c0,0.5-0.2,0.9-0.6,1.1C86.9,156.7,86.7,156.8,86.5,156.8L86.5,156.8z"></path> <path class="st7" d="M87.7,169.2c0-0.4-0.2-0.8-0.6-1c-0.4-0.2-0.8-0.2-1.2,0c-0.4,0.2-0.6,0.6-0.6,1c0,0.4,0.2,0.8,0.6,1 c0.4,0.2,0.8,0.2,1.2,0C87.5,170.1,87.7,169.7,87.7,169.2L87.7,169.2z"></path> <path class="st6" d="M86.5,168.1c-0.2,0-0.4,0-0.5,0.1c-0.3,0.2-0.5,0.6-0.5,0.9c0,0.4,0.2,0.8,0.5,0.9c0.3,0.2,0.8,0.2,1.1,0 c0.3-0.2,0.5-0.6,0.5-0.9c0-0.4-0.2-0.8-0.5-0.9C86.9,168.2,86.7,168.1,86.5,168.1L86.5,168.1z M86.5,170.5 c-0.2,0-0.4-0.1-0.6-0.2c-0.4-0.2-0.6-0.7-0.6-1.1c0-0.5,0.2-0.9,0.6-1.1c0.4-0.2,0.9-0.2,1.3,0c0.4,0.2,0.6,0.7,0.6,1.1 c0,0.5-0.2,0.9-0.6,1.1C86.9,170.5,86.7,170.5,86.5,170.5L86.5,170.5z"></path> <path class="st7" d="M79.6,161.2c-0.4,0-0.8,0.2-1,0.6c-0.2,0.4-0.2,0.8,0,1.2c0.2,0.4,0.6,0.6,1,0.6c0.4,0,0.8-0.2,1-0.6 c0.2-0.4,0.2-0.8,0-1.2C80.4,161.4,80.1,161.2,79.6,161.2L79.6,161.2z"></path> <path class="st6" d="M79.6,161.3c-0.4,0-0.8,0.2-0.9,0.5c-0.2,0.3-0.2,0.8,0,1.1c0.2,0.3,0.6,0.5,0.9,0.5h0c0.4,0,0.8-0.2,0.9-0.5 c0.2-0.3,0.2-0.8,0-1.1C80.4,161.5,80,161.3,79.6,161.3L79.6,161.3z M79.6,163.6L79.6,163.6L79.6,163.6c-0.5,0-0.9-0.2-1.1-0.6 c-0.2-0.4-0.2-0.9,0-1.3c0.2-0.4,0.7-0.6,1.1-0.6c0.5,0,0.9,0.2,1.1,0.6c0.2,0.4,0.2,0.9,0,1.3C80.5,163.4,80.1,163.6,79.6,163.6 L79.6,163.6z"></path> <path class="st7" d="M93.4,161.2c-0.4,0-0.8,0.2-1,0.6c-0.2,0.4-0.2,0.8,0,1.2c0.2,0.4,0.6,0.6,1,0.6c0.4,0,0.8-0.2,1-0.6 c0.2-0.4,0.2-0.8,0-1.2C94.2,161.4,93.8,161.2,93.4,161.2L93.4,161.2z"></path> <path class="st6" d="M93.4,161.3c-0.4,0-0.8,0.2-1,0.5c-0.2,0.3-0.2,0.8,0,1.1c0.2,0.3,0.6,0.5,0.9,0.5h0c0.4,0,0.8-0.2,0.9-0.5 c0.2-0.3,0.2-0.8,0-1.1C94.1,161.5,93.8,161.3,93.4,161.3L93.4,161.3z M93.4,163.6L93.4,163.6L93.4,163.6c-0.5,0-0.9-0.2-1.1-0.6 c-0.2-0.4-0.2-0.9,0-1.3c0.2-0.4,0.7-0.6,1.1-0.6c0.5,0,0.9,0.2,1.1,0.6c0.2,0.4,0.2,0.9,0,1.3C94.3,163.4,93.8,163.6,93.4,163.6 L93.4,163.6z"></path> <path class="st7" d="M82.5,156.7c-0.3-0.3-0.7-0.4-1.1-0.3c-0.4,0.1-0.7,0.4-0.8,0.8c-0.1,0.4,0,0.8,0.3,1.1 c0.3,0.3,0.7,0.4,1.2,0.3c0.4-0.1,0.7-0.4,0.8-0.8C82.9,157.4,82.8,157,82.5,156.7L82.5,156.7z"></path> <path class="st6" d="M81.6,156.4c-0.1,0-0.2,0-0.3,0c-0.4,0.1-0.7,0.4-0.8,0.8c-0.1,0.4,0,0.8,0.3,1.1c0.2,0.2,0.5,0.3,0.8,0.3 l0,0c0.1,0,0.2,0,0.3,0c0.4-0.1,0.7-0.4,0.8-0.8c0.1-0.4,0-0.8-0.3-1.1C82.2,156.5,81.9,156.4,81.6,156.4L81.6,156.4z M81.6,158.8 L81.6,158.8c-0.3,0-0.7-0.1-0.9-0.4c-0.3-0.3-0.5-0.8-0.3-1.2c0.1-0.4,0.5-0.8,0.9-0.9c0.4-0.1,0.9,0,1.2,0.3 c0.3,0.3,0.5,0.8,0.3,1.2c-0.1,0.4-0.5,0.8-0.9,0.9C81.9,158.8,81.8,158.8,81.6,158.8L81.6,158.8z"></path> <path class="st7" d="M92.2,166.4c-0.3-0.3-0.7-0.4-1.1-0.3c-0.4,0.1-0.7,0.4-0.8,0.8c-0.1,0.4,0,0.8,0.3,1.1 c0.3,0.3,0.7,0.4,1.2,0.3c0.4-0.1,0.7-0.4,0.8-0.8C92.6,167.1,92.5,166.7,92.2,166.4L92.2,166.4z"></path> <path class="st6" d="M91.4,166.1c-0.1,0-0.2,0-0.3,0c-0.4,0.1-0.7,0.4-0.8,0.8c-0.1,0.4,0,0.8,0.3,1.1c0.2,0.2,0.5,0.3,0.8,0.3 l0,0c0.1,0,0.2,0,0.3,0c0.4-0.1,0.7-0.4,0.8-0.8c0.1-0.4,0-0.8-0.3-1.1C91.9,166.2,91.7,166.1,91.4,166.1L91.4,166.1z M91.4,168.5 L91.4,168.5c-0.3,0-0.7-0.1-0.9-0.4c-0.3-0.3-0.4-0.8-0.3-1.2c0.1-0.4,0.5-0.8,0.9-0.9c0.4-0.1,0.9,0,1.2,0.3 c0.3,0.3,0.4,0.8,0.3,1.2c-0.1,0.4-0.5,0.8-0.9,0.9C91.6,168.5,91.5,168.5,91.4,168.5L91.4,168.5z"></path> <path class="st7" d="M80.8,166.4c-0.3,0.3-0.4,0.7-0.3,1.2c0.1,0.4,0.4,0.7,0.8,0.8c0.4,0.1,0.8,0,1.1-0.3 c0.3-0.3,0.4-0.7,0.3-1.1c-0.1-0.4-0.4-0.7-0.8-0.8C81.5,166,81.1,166.1,80.8,166.4L80.8,166.4z"></path> <path class="st6" d="M81.6,166.1c-0.3,0-0.6,0.1-0.8,0.3c-0.3,0.3-0.4,0.7-0.3,1.1c0.1,0.4,0.4,0.7,0.8,0.8c0.4,0.1,0.8,0,1.1-0.3 c0.3-0.3,0.4-0.7,0.3-1.1c-0.1-0.4-0.4-0.7-0.8-0.8C81.8,166.1,81.7,166.1,81.6,166.1L81.6,166.1z M81.6,168.5L81.6,168.5 c-0.1,0-0.2,0-0.3,0c-0.4-0.1-0.8-0.5-0.9-0.9c-0.1-0.4,0-0.9,0.3-1.2c0.3-0.3,0.8-0.5,1.2-0.3c0.4,0.1,0.8,0.5,0.9,0.9 c0.1,0.4,0,0.9-0.3,1.2C82.3,168.4,82,168.5,81.6,168.5L81.6,168.5z"></path> <path class="st7" d="M90.5,156.7c-0.3,0.3-0.4,0.7-0.3,1.1c0.1,0.4,0.4,0.7,0.8,0.8c0.4,0.1,0.8,0,1.1-0.3 c0.3-0.3,0.4-0.7,0.3-1.1c-0.1-0.4-0.4-0.7-0.8-0.8C91.3,156.2,90.8,156.4,90.5,156.7L90.5,156.7z"></path> <path class="st6" d="M91.4,156.4c-0.3,0-0.6,0.1-0.8,0.3c-0.3,0.3-0.4,0.7-0.3,1.1c0.1,0.4,0.4,0.7,0.8,0.8c0.4,0.1,0.8,0,1.1-0.3 c0.3-0.3,0.4-0.7,0.3-1.1c-0.1-0.4-0.4-0.7-0.8-0.8C91.6,156.4,91.5,156.4,91.4,156.4L91.4,156.4z M91.4,158.8L91.4,158.8 c-0.1,0-0.2,0-0.3,0c-0.4-0.1-0.8-0.5-0.9-0.9c-0.1-0.4,0-0.9,0.3-1.2c0.3-0.3,0.8-0.5,1.2-0.3c0.4,0.1,0.8,0.5,0.9,0.9 c0.1,0.4,0,0.9-0.3,1.2C92,158.7,91.7,158.8,91.4,158.8L91.4,158.8z"></path> <path class="st7" d="M85,155.6c-0.2-0.4-0.5-0.7-0.9-0.7c-0.4-0.1-0.8,0.1-1.1,0.5c-0.3,0.3-0.3,0.8-0.2,1.2 c0.2,0.4,0.5,0.7,0.9,0.7c0.4,0.1,0.8-0.1,1.1-0.5C85.1,156.4,85.1,155.9,85,155.6L85,155.6z"></path> <path class="st6" d="M83.9,154.9c-0.3,0-0.7,0.2-0.9,0.4c-0.2,0.3-0.3,0.7-0.1,1.1c0.1,0.4,0.5,0.6,0.9,0.7c0.4,0.1,0.8-0.1,1-0.4 c0.2-0.3,0.3-0.7,0.1-1.1c-0.1-0.4-0.5-0.6-0.9-0.7C84,154.9,83.9,154.9,83.9,154.9L83.9,154.9z M83.9,157.3L83.9,157.3 c-0.1,0-0.1,0-0.2,0c-0.5-0.1-0.8-0.4-1-0.8c-0.2-0.4-0.1-0.9,0.2-1.3c0.3-0.4,0.7-0.6,1.2-0.5c0.5,0.1,0.8,0.4,1,0.8 c0.2,0.4,0.1,0.9-0.2,1.3C84.6,157.1,84.3,157.3,83.9,157.3L83.9,157.3z"></path> <path class="st7" d="M90.2,168.3c-0.2-0.4-0.5-0.7-0.9-0.7c-0.4-0.1-0.8,0.1-1.1,0.5c-0.3,0.3-0.3,0.8-0.2,1.2 c0.2,0.4,0.5,0.7,0.9,0.7c0.4,0.1,0.8-0.1,1.1-0.5C90.3,169.1,90.4,168.7,90.2,168.3L90.2,168.3z"></path> <path class="st6" d="M89.1,167.6c-0.3,0-0.7,0.2-0.9,0.4c-0.2,0.3-0.3,0.7-0.1,1.1c0.1,0.4,0.5,0.6,0.9,0.7c0.4,0.1,0.8-0.1,1-0.4 c0.2-0.3,0.3-0.7,0.1-1.1c-0.1-0.4-0.5-0.6-0.9-0.7C89.2,167.6,89.2,167.6,89.1,167.6L89.1,167.6z M89.1,170L89.1,170 c-0.1,0-0.1,0-0.2,0c-0.5-0.1-0.8-0.4-1-0.8c-0.2-0.4-0.1-0.9,0.2-1.3c0.3-0.4,0.7-0.6,1.2-0.5c0.5,0.1,0.8,0.4,1,0.8 c0.2,0.4,0.1,0.9-0.2,1.3C89.9,169.8,89.5,170,89.1,170L89.1,170z"></path> <path class="st7" d="M79.7,163.9c-0.4,0.2-0.7,0.5-0.7,0.9c-0.1,0.4,0.1,0.8,0.5,1.1c0.3,0.3,0.8,0.3,1.2,0.2 c0.4-0.2,0.7-0.5,0.7-0.9c0.1-0.4-0.1-0.8-0.5-1.1C80.5,163.8,80.1,163.7,79.7,163.9L79.7,163.9z"></path> <path class="st6" d="M80.1,163.9c-0.1,0-0.3,0-0.4,0.1c-0.4,0.2-0.6,0.5-0.7,0.9c0,0.4,0.1,0.8,0.4,1c0.2,0.1,0.4,0.2,0.7,0.2l0,0 c0.1,0,0.3,0,0.4-0.1c0.4-0.2,0.6-0.5,0.7-0.9c0.1-0.4-0.1-0.8-0.4-1C80.6,164,80.4,163.9,80.1,163.9L80.1,163.9z M80.1,166.3 L80.1,166.3c-0.3,0-0.6-0.1-0.8-0.3c-0.4-0.3-0.6-0.7-0.5-1.2c0.1-0.5,0.4-0.8,0.8-1c0.4-0.2,0.9-0.1,1.3,0.2 c0.4,0.3,0.6,0.7,0.5,1.2c-0.1,0.5-0.4,0.8-0.8,1C80.5,166.3,80.3,166.3,80.1,166.3L80.1,166.3z"></path> <path class="st7" d="M92.4,158.6c-0.4,0.2-0.7,0.5-0.7,0.9c-0.1,0.4,0.1,0.8,0.5,1.1c0.3,0.3,0.8,0.3,1.2,0.2 c0.4-0.2,0.7-0.5,0.7-0.9c0.1-0.4-0.1-0.8-0.5-1.1C93.2,158.5,92.8,158.5,92.4,158.6L92.4,158.6z"></path> <path class="st6" d="M92.9,158.6c-0.1,0-0.3,0-0.4,0.1c-0.4,0.1-0.6,0.5-0.7,0.9c0,0.4,0.1,0.8,0.4,1c0.3,0.2,0.7,0.3,1.1,0.1 c0.4-0.1,0.6-0.5,0.7-0.9c0.1-0.4-0.1-0.8-0.4-1C93.3,158.7,93.1,158.6,92.9,158.6L92.9,158.6z M92.9,161c-0.3,0-0.6-0.1-0.8-0.3 c-0.4-0.3-0.5-0.7-0.5-1.2c0.1-0.5,0.4-0.8,0.8-1c0.4-0.2,0.9-0.1,1.3,0.2c0.4,0.3,0.6,0.7,0.5,1.2c-0.1,0.5-0.4,0.8-0.8,1 C93.2,161,93,161,92.9,161L92.9,161z"></path> <path class="st7" d="M80.6,158.6c-0.4-0.2-0.8-0.1-1.2,0.2c-0.3,0.3-0.5,0.7-0.5,1.1c0.1,0.4,0.3,0.8,0.7,0.9 c0.4,0.2,0.8,0.1,1.2-0.2c0.3-0.3,0.5-0.7,0.5-1.1C81.3,159.2,81,158.8,80.6,158.6L80.6,158.6z"></path> <path class="st6" d="M80.1,158.6c-0.2,0-0.5,0.1-0.7,0.2c-0.3,0.2-0.5,0.6-0.4,1c0.1,0.4,0.3,0.7,0.7,0.9c0.4,0.1,0.8,0.1,1.1-0.1 c0.3-0.2,0.5-0.6,0.4-1s-0.3-0.7-0.7-0.9C80.4,158.7,80.3,158.6,80.1,158.6L80.1,158.6z M80.1,161L80.1,161c-0.2,0-0.3,0-0.5-0.1 c-0.4-0.2-0.7-0.6-0.8-1c-0.1-0.4,0.1-0.9,0.5-1.2c0.4-0.3,0.9-0.3,1.3-0.2c0.4,0.2,0.7,0.6,0.8,1c0.1,0.5-0.1,0.9-0.5,1.2 C80.7,160.9,80.4,161,80.1,161L80.1,161z"></path> <path class="st7" d="M93.3,163.9c-0.4-0.2-0.8-0.1-1.2,0.2c-0.3,0.3-0.5,0.7-0.5,1.1c0.1,0.4,0.3,0.8,0.7,0.9 c0.4,0.2,0.8,0.1,1.2-0.2c0.3-0.3,0.5-0.7,0.5-1.1C94,164.4,93.7,164.1,93.3,163.9L93.3,163.9z"></path> <path class="st6" d="M92.9,163.9c-0.2,0-0.5,0.1-0.7,0.2c-0.3,0.2-0.5,0.6-0.4,1c0.1,0.4,0.3,0.7,0.7,0.9c0.1,0.1,0.3,0.1,0.4,0.1 l0,0c0.2,0,0.5-0.1,0.7-0.2c0.3-0.2,0.5-0.6,0.4-1c-0.1-0.4-0.3-0.7-0.7-0.9C93.1,163.9,93,163.9,92.9,163.9L92.9,163.9z M92.9,166.3L92.9,166.3c-0.2,0-0.3,0-0.5-0.1c-0.4-0.2-0.7-0.6-0.8-1c-0.1-0.5,0.1-0.9,0.5-1.2c0.4-0.3,0.9-0.3,1.3-0.2 c0.4,0.2,0.7,0.6,0.8,1c0.1,0.5-0.1,0.9-0.5,1.2C93.4,166.2,93.1,166.3,92.9,166.3L92.9,166.3z"></path> <path class="st7" d="M82.8,168.3c-0.2,0.4-0.1,0.8,0.2,1.2c0.3,0.3,0.7,0.5,1.1,0.5c0.4-0.1,0.8-0.3,0.9-0.7 c0.2-0.4,0.1-0.8-0.2-1.2c-0.3-0.3-0.7-0.5-1.1-0.5C83.3,167.6,82.9,167.9,82.8,168.3L82.8,168.3z"></path> <path class="st6" d="M83.9,167.6c0,0-0.1,0-0.1,0c-0.4,0.1-0.7,0.3-0.9,0.7c-0.2,0.4-0.1,0.8,0.1,1.1c0.2,0.3,0.5,0.4,0.9,0.4l0,0 c0,0,0.1,0,0.1,0c0.4-0.1,0.7-0.3,0.9-0.7c0.2-0.4,0.1-0.8-0.1-1.1C84.5,167.8,84.2,167.6,83.9,167.6L83.9,167.6z M83.9,170 L83.9,170c-0.4,0-0.8-0.2-1-0.5c-0.3-0.4-0.3-0.9-0.2-1.3c0.2-0.4,0.6-0.7,1-0.8c0.5-0.1,0.9,0.1,1.2,0.5c0.3,0.4,0.3,0.9,0.2,1.3 c-0.2,0.4-0.6,0.7-1,0.8C84,170,83.9,170,83.9,170L83.9,170z"></path> <path class="st7" d="M88,155.6c-0.2,0.4-0.1,0.8,0.2,1.2c0.3,0.3,0.7,0.5,1.1,0.5c0.4-0.1,0.8-0.3,0.9-0.7 c0.2-0.4,0.1-0.8-0.2-1.2c-0.3-0.3-0.7-0.5-1.1-0.5C88.6,154.9,88.2,155.2,88,155.6L88,155.6z"></path> <path class="st6" d="M89.1,154.9c-0.1,0-0.1,0-0.1,0c-0.4,0-0.7,0.3-0.9,0.7c-0.1,0.4-0.1,0.8,0.1,1.1c0.2,0.3,0.5,0.4,0.9,0.4 l0,0c0,0,0.1,0,0.1,0c0.4,0,0.7-0.3,0.9-0.7c0.2-0.4,0.1-0.8-0.1-1.1C89.8,155.1,89.5,154.9,89.1,154.9L89.1,154.9z M89.1,157.3 L89.1,157.3c-0.4,0-0.8-0.2-1-0.5c-0.3-0.4-0.3-0.9-0.2-1.3c0.2-0.4,0.6-0.7,1-0.8c0.5-0.1,0.9,0.1,1.2,0.5 c0.3,0.4,0.3,0.9,0.2,1.3c-0.2,0.4-0.6,0.7-1,0.8C89.2,157.3,89.2,157.3,89.1,157.3L89.1,157.3z"></path> <path class="st7" d="M92.2,162.4c0-3.1-2.6-5.7-5.7-5.7c-3.1,0-5.7,2.5-5.7,5.7c0,3.1,2.5,5.7,5.7,5.7 C89.6,168.1,92.2,165.5,92.2,162.4L92.2,162.4L92.2,162.4z"></path> <path class="st6" d="M86.5,156.8c-3.1,0-5.6,2.5-5.6,5.6c0,3.1,2.5,5.6,5.6,5.6c3.1,0,5.6-2.5,5.6-5.6 C92.1,159.3,89.6,156.8,86.5,156.8L86.5,156.8z M86.5,168.1c-3.2,0-5.8-2.6-5.8-5.8c0-3.2,2.6-5.8,5.8-5.8c3.2,0,5.8,2.6,5.8,5.8 C92.3,165.6,89.7,168.1,86.5,168.1L86.5,168.1z"></path> </g> <g> <path class="st9" d="M198.8,15.1c4.1,0,8.4,0.1,12.8,0.1c3.5,0,6.8,0,10.1,0l-0.5,2.5l-2.4,2.6c1.8,5,4.9,12.4,18.7,44.7h0.3 c2.7-5.1,4.9-10,9-18.7c-4.2-10-8.4-18.8-11.2-24.6c-1.3-1.5-3.2-2.5-7.2-4l0.7-2.6c3.7,0,7.5,0.1,11.3,0.1c2.6,0,5.1,0,7.5,0 l0.1,0.4l0.5,4.6c0.8,2.3,1.6,4.2,6,14.1h0.3c3.1-6.7,4.5-9.4,6.3-13.9l0.3-4.9l0.2-0.4c1.3,0,2.8,0,4.2,0c3.3,0,6.5-0.1,9.6-0.1 l-0.7,2.6c-4.2,1.6-6.6,2.8-8.7,4.7c-1.3,2.1-4,6.6-9.3,16.9c1.3,3.1,5,11.5,10.9,25.2h0.2c3.8-9.5,10.5-27.7,16-43.7l-2.9-3.2 l0.9-2.5c1.9,0,3.8,0,5.8,0c3.7,0,7.4-0.1,11-0.1l-0.8,2.6c-4.2,1.5-6.1,2.8-8.3,5c-2.6,4.7-12.3,28.7-20.3,49.1 c-1.4,2.9-4.1,6.5-6.2,8.5h-1.1c-1.7-3.7-7.3-17-12.7-28.9h-0.2c-4.4,8.6-7.4,14.9-10.1,20.6c-1.6,2.8-4.3,6.5-6.4,8.4h-1.1 c-2.9-6.3-20.1-47.1-25.5-58.3c-1.5-1.7-3.2-2.7-8-4.3L198.8,15.1L198.8,15.1z"></path> <path class="st9" d="M316.3,38.4c-6.9,0-9.6,9.9-9.6,17.8c0,8.6,3.2,19.8,10.7,19.8c7.5,0,9.1-11.2,9.1-18.2 C326.5,49.8,323.7,38.4,316.3,38.4L316.3,38.4L316.3,38.4z M316.8,34.6c13.4,0,22.7,9.1,22.7,22.1c0,13.8-9.6,23-22.9,23 c-12,0-22.9-8.1-22.9-22.1C293.7,43.3,305.3,34.6,316.8,34.6L316.8,34.6L316.8,34.6z"></path> <path class="st9" d="M369.5,75.8l-0.7,2.8c-4,0-8-0.2-11.9-0.2c-4.2,0-8.4,0.2-12.5,0.2l0.5-2.6l5.7-3.2c0.1-3.2,0.2-9.1,0.2-32.5 c0-8.7,0-16.8-0.3-21.5l-5.4-2.6l0.8-2.2c2.8-1.2,12.2-2.5,16.9-2.7c-0.2,8-0.3,18.2-0.3,28.7c0,19.1,0.2,26.8,0.3,33L369.5,75.8 L369.5,75.8z"></path> <path class="st9" d="M404.8,41.2c-1.3-0.9-3.4-1.3-5.1-1.3c-7.1,0-13.7,6.9-13.7,16.8c0,9.6,6.1,16.2,13.6,16.2 c1.4,0,3.2-0.4,5.2-1.6V41.2L404.8,41.2z M416.5,71.2c2.4,3.2,5.4,4.7,7.1,5.5l-0.8,1.6c-0.9,0.6-3.3,1.4-6.3,1.4 c-4.8,0-9.2-1.7-11-5.2l-0.2,0.1c-1.6,1.1-6.7,5.1-11.5,5.1c-8.8,0-20.2-6.7-20.2-21.2c0-16.2,13.8-23.9,24-23.9 c1.5,0,4.3,1,7,2.6l0.1-0.1c0-5.9-0.1-13.2-0.3-18.2l-6.1-2.6l0.7-2c3.9-1.3,11-2.7,17.7-3.1c-0.2,8.1-0.3,18.4-0.3,28.8V71.2 L416.5,71.2z"></path> <path class="st9" d="M448.2,38.2c-5.3,0-6.9,6.6-6.9,11.3c0,5,1.9,11.3,7,11.3c5,0,6.7-6,6.7-11.2 C455.1,45.5,453.7,38.2,448.2,38.2L448.2,38.2L448.2,38.2z M447.8,80.7c-5.9,0-6.8,0.3-7.7,0.9c-1.1,1-2.6,3.3-2.6,5.1 c0,5.4,5.7,8.9,12.2,8.9c7.2,0,13.2-3.2,13.2-9.4c0-2.1-1.3-4.3-4.6-5c-2-0.3-4.4-0.5-10.4-0.5H447.8L447.8,80.7z M463.1,41v0.2 c1.2,1.2,2.9,4.4,2.9,8.1c0,9.2-7.4,15.2-18.4,15.2c-3.4,0-6.5-0.7-9.4-2.1c-0.8,1.1-1.6,2.5-1.6,3.4c0,2,2.3,4.4,4.1,4.6 c5.8-0.3,13.4-0.8,22.3,0c2.9,0.3,4.9,1.3,6.7,3.4c1.5,1.6,2.8,4.5,2.8,7.2c0,5.2-3.5,10.5-9.4,14.3c-4.7,3.2-10.8,5.6-18,5.6 c-10.6,0-17.3-4.4-17.3-10.1c0-1.5,1-2.9,2.2-4.2l6.8-6.4v-0.2c-2.4-1-3.9-2.2-5.8-4.2c-1.4-1.7-2.6-4.6-2.6-6.3 c0-1.7,4.2-6.1,7.1-8.3c-3.4-2.3-5.7-6.2-5.7-11.1c0-8.7,8.4-15.3,19.2-15.3c3.1,0,5.3,0.4,7.7,0.9c2.9,0.5,5,0.9,7.9,1.3l8.4-3.5 l0.4,0.8l-3.9,6.5L463.1,41L463.1,41z"></path> <path class="st9" d="M489.1,65.9c0,5.4,4,7.1,6.8,7.1c1.4,0,3-0.6,4.1-1.7c0.6-0.5,0.8-1.2,0.8-2.1l0.2-12.7 c-2.7,1-6.5,2.5-8.8,3.8C490,61.8,489.1,63.2,489.1,65.9L489.1,65.9L489.1,65.9z M501.1,50.2c0.1-8.3-4.3-10.3-8.4-10.3 c-1.9,0-3.9,0.7-5.1,1.2c-0.4,3.8-1.2,8.9-1.7,11.2l-0.9,0.6c-1.1-0.3-6.3-4.8-7.7-8.9c3.2-2.7,8.9-6,13.4-7.6 c2.5-1,4.6-1.6,6.7-1.6c11.6,0,15,8.8,15,14.6c0,6.8-0.1,15.2-0.2,21.3c1,1.7,4.1,4,7.1,5.1l-0.5,1.4c-1.1,0.9-3.7,2.4-7.5,2.4 c-6.5,0-9.2-3.1-10.1-5.2h-0.2c-4.8,3.8-8.1,5.4-11.3,5.4c-8.3,0-12.5-6.7-12.5-11.9c0-4,1.4-6.4,4-7.8c2.9-1.9,13.3-5.4,19.7-7.1 L501.1,50.2L501.1,50.2z"></path> <path class="st9" d="M553,36l-1.7,3.8l-12.6,1.4c0,5.8-0.1,15-0.1,26.1c0,2.3,0.7,3.5,1.2,4c1,0.8,2.7,1.4,4.6,1.4 c3.6,0,6.2-1.3,7.7-2.4l0.5,0.1l-0.1,3.4c-2.2,3.4-6.9,6-12.7,6c-4.8,0-8.5-1.5-10.8-4.3c-1.5-2-2.1-4.2-2.1-10.1V41.2l-6.1-1.5 l1.4-3.7h4.8c0.7-2.6,3-9.3,4.4-11.5c1.8-1.2,6.3-2.5,7.6-2.5l-0.4,14H553L553,36z"></path> <path class="st9" d="M583.9,52.6c0.2-0.7,0.5-1.8,0.5-3.1c0-6.3-2.3-11.1-6.7-11.1c-6,0-8.8,8.9-8.8,14.1H583.9L583.9,52.6z M568.8,56.8c-0.1,0.5-0.1,0.8-0.1,1.3c-0.1,9.6,5.9,16,13.9,16c1,0,1.8-0.1,2.7-0.4c3-2.3,7-5.1,9.1-6.2l0.6,1.5 c-0.6,3.2-5.2,7.7-6.8,8.8c-1.8,0.7-6.3,2-10.1,2c-13,0-21.7-8.3-21.7-22c0-13.4,10.2-23.1,21.8-23.1c9.9,0,17.8,6.3,17.8,17.3 c0,1.4-0.3,2.7-1,3.1c-0.9,0.5-4.6,1.7-10,1.7H568.8L568.8,56.8z"></path> </g> <g> <path class="st10" d="M219.8,105.3c3.5,0,6.1,1.2,7.6,2.3c1-0.8,3.2-1.7,4.8-2.3l0.7,0.4c-0.3,2-1.5,8.4-2.6,11l-1.1,0.6 c-0.9-1.7-2.1-5.7-2.5-7.1c-0.9-0.7-3.3-1.8-6.3-1.8c-5.7,0-9,3.9-9,8.3c0,3.4,1.4,5.4,4.2,7.1c3,1.8,6.8,3.6,10.8,5.8 c7.1,3.8,8.5,7.8,8.5,11.7c0,11.4-10.7,14.3-16.9,14.3c-5.8,0-12.1-2.8-14.1-4.8c0.4-1.9,2.6-7.9,3.2-9l1.2-0.5 c0.4,0.9,0.8,3,2.2,10.1c0.9,0.5,3.2,1.4,7.1,1.3c6.5-0.1,10.7-3.5,10.7-9.4c0-3.2-1.6-5.5-5.2-7.6c-3.7-2-7.4-3.7-10.8-5.8 c-5-3-6.8-6.9-6.8-11.2C205.4,111.9,210.6,105.3,219.8,105.3L219.8,105.3L219.8,105.3z"></path> <path class="st10" d="M241.3,138.7c0-11.8,10-17.2,18.5-17.2c4.2,0,8.1,1.6,9.2,2.7c-0.4,1.9-1.4,5.4-2.7,7.7l-1.1,0.4 c-0.6-1.4-1.5-4.3-2.3-7.7c-0.4-0.3-1.3-0.5-2.7-0.5c-8,0-12.2,6.6-12.2,13.7c0,8,5,13.7,12.8,13.7c0.6,0,1.5-0.4,2-0.6 c2.5-2.1,4.8-3.5,6-4.1l0.5,1c-0.6,1.9-3.3,5.2-4.6,6.1c-1.1,0.4-4.5,1.2-6.8,1.2C251.2,155,241.3,151,241.3,138.7L241.3,138.7 L241.3,138.7z"></path> <path class="st10" d="M304.3,148.8c0,1.3,0.4,1.6,1.4,2l3.8,1.9l-0.5,1.6c-3,0.1-7.4-0.1-11.5-0.6c0.4-3,0.6-7.7,0.6-18.4 c0-8.2-4.3-9.7-7.8-9.7c-2.7,0-5,0.9-7.1,2.6c0,7.1,0,20.8,0.2,22.1l5.2,2.2l-0.6,1.6c-2.7,0-5.2-0.1-7.9-0.1 c-2.5,0-5,0.1-7.6,0.1l0.5-1.7l3.9-2.2c0.1-0.9,0.2-7.3,0.2-16.7c0-9.1,0-17.3-0.2-25.2l-4.2-1.9l0.4-1.4 c2.1-0.7,5.6-1.5,10.2-2.3c-0.1,6.9-0.2,15.1-0.2,22.8l0.1,0.1c4.6-3.6,7.5-4.3,10-4.3c7.4,0,10.7,6.1,10.7,10.9V148.8 L304.3,148.8z"></path> <path class="st10" d="M329.5,124c-6.1,0-9.1,7.1-9.1,14.1c0,6.8,3.4,14.4,9.8,14.4c6.6,0,8.7-7.7,8.7-13.9 C338.8,131.9,335.8,124,329.5,124L329.5,124L329.5,124z M329.8,121.5c8.9,0,16,6.8,16,16.4c0,10.3-7.1,17.1-16.2,17.1 c-8,0-16.2-5.8-16.2-16.4C313.4,127.7,322.3,121.5,329.8,121.5L329.8,121.5L329.8,121.5z"></path> <path class="st10" d="M368.2,124c-6.1,0-9.1,7.1-9.1,14.1c0,6.8,3.4,14.4,9.8,14.4c6.6,0,8.6-7.7,8.6-13.9 C377.6,131.9,374.6,124,368.2,124L368.2,124L368.2,124z M368.6,121.5c8.9,0,16,6.8,16,16.4c0,10.3-7.1,17.1-16.2,17.1 c-8,0-16.2-5.8-16.2-16.4C352.2,127.7,361.1,121.5,368.6,121.5L368.6,121.5L368.6,121.5z"></path> <path class="st10" d="M405,152.4l-0.7,1.7c-2.7,0-5.1-0.1-7.6-0.1c-2.7,0-5.4,0.1-8.1,0.1l0.4-1.6l4.5-2.1c0.1-3,0.1-7.4,0.1-25 c0-6.5,0-13.7-0.2-17.2l-4.2-1.7l0.7-1.5c2.4-0.8,6.9-1.7,9.9-2.1c-0.1,7.4-0.2,14.4-0.2,22.3c0,14.5,0.1,20,0.1,25.3L405,152.4 L405,152.4z"></path> </g> </g> <g> <path class="st9" d="M214.3,183.6c5.3,0,9.4,4.1,9.4,9.3c0,5.4-4,9.5-9.4,9.5c-5.4,0-9.4-4.2-9.4-9.5 C204.9,187.7,208.9,183.6,214.3,183.6z M214.3,199.4c3.3,0,6-2.8,6-6.5c0-3.6-2.7-6.2-6-6.2c-3.3,0-6,2.7-6,6.2 C208.3,196.6,210.9,199.4,214.3,199.4z"></path> <path class="st9" d="M227.2,191.8h-1.6v-2.6h1.6v-0.6c0-4.3,3.5-4.8,5.3-4.8c0.7,0,1.1,0.1,1.1,0.1v2.8c0,0-0.3-0.1-0.7-0.1 c-0.9,0-2.5,0.2-2.5,2.1v0.5h2.8v2.6h-2.8v10.3h-3.3V191.8z"></path> <path class="st9" d="M246.5,204.7c2,0,3.7-0.8,3.7-3.2v-0.8c0-0.3,0.1-0.7,0.1-0.7h-0.1c-0.8,1.2-1.9,1.8-3.6,1.8 c-3.7,0-5.9-3-5.9-6.6c0-3.6,2-6.5,5.8-6.5c2.8,0,3.9,1.7,3.9,1.7h0.1c0,0,0-0.2,0-0.4v-1h3v12.3c0,4.5-3.5,6.2-6.9,6.2 c-1.6,0-3.4-0.5-4.6-1.1l1-2.5C242.9,203.9,244.6,204.7,246.5,204.7z M250.3,195.3c0-3-1.5-3.8-3.2-3.8c-2,0-3.1,1.4-3.1,3.6 c0,2.3,1.2,4,3.3,4C248.9,199.1,250.3,198.2,250.3,195.3z"></path> <path class="st9" d="M257.1,189h3.1v2.3c0,0.5-0.1,0.9-0.1,0.9h0.1c0.6-1.9,2.2-3.4,4.1-3.4c0.3,0,0.6,0.1,0.6,0.1v3.2 c0,0-0.3-0.1-0.8-0.1c-1.4,0-2.9,0.8-3.6,2.7c-0.2,0.6-0.3,1.4-0.3,2.1v5.2h-3.3V189z"></path> <path class="st9" d="M272.8,188.7c3.8,0,5.8,2.7,5.8,6.2c0,0.4-0.1,1.3-0.1,1.3h-9c0.2,2.3,2,3.5,3.9,3.5c2.1,0,3.8-1.4,3.8-1.4 l1.3,2.3c0,0-2,1.9-5.2,1.9c-4.3,0-7-3.1-7-6.8C266.2,191.6,268.9,188.7,272.8,188.7z M275.3,194c-0.1-1.8-1.2-2.7-2.6-2.7 c-1.7,0-2.8,1-3.1,2.7H275.3z"></path> <path class="st9" d="M287.9,193.9h0.4v-0.2c0-1.7-1.1-2.3-2.5-2.3c-1.9,0-3.6,1.3-3.6,1.3l-1.2-2.3c0,0,2-1.6,5.1-1.6 c3.4,0,5.4,1.9,5.4,5.2v8.2h-3V201c0-0.5,0.1-0.9,0.1-0.9h-0.1c0,0-1,2.3-4,2.3c-2.3,0-4.4-1.5-4.4-4.1 C280.2,194.2,285.8,193.9,287.9,193.9z M285.5,199.9c1.7,0,2.9-1.8,2.9-3.4v-0.3h-0.6c-1.7,0-4.4,0.2-4.4,2 C283.5,199.1,284.1,199.9,285.5,199.9z"></path> <path class="st9" d="M295.5,191.8h-1.7v-2.6h1.8v-3.8h3.2v3.8h3v2.6h-3v5.1c0,2.2,1.7,2.5,2.6,2.5c0.4,0,0.6-0.1,0.6-0.1v2.8 c0,0-0.4,0.1-1,0.1c-1.8,0-5.4-0.5-5.4-4.9V191.8z"></path> <path class="st9" d="M310.9,189h3.1v1.5c0,0.5-0.1,0.9-0.1,0.9h0.1c0.6-1.3,2.2-2.7,4.2-2.7c2,0,3.3,0.9,3.8,2.7h0.1 c0.7-1.4,2.4-2.7,4.5-2.7c2.7,0,4.3,1.5,4.3,5v8.4h-3.3v-7.8c0-1.5-0.3-2.6-1.8-2.6c-1.7,0-2.8,1.3-3.1,3c-0.1,0.5-0.2,1.1-0.2,1.7 v5.7h-3.3v-7.8c0-1.4-0.2-2.6-1.8-2.6c-1.7,0-2.8,1.3-3.2,3c-0.1,0.5-0.2,1.1-0.2,1.7v5.7h-3.3V189z"></path> <path class="st9" d="M339.9,188.7c3.8,0,5.8,2.7,5.8,6.2c0,0.4-0.1,1.3-0.1,1.3h-9c0.2,2.3,2,3.5,3.9,3.5c2.1,0,3.8-1.4,3.8-1.4 l1.3,2.3c0,0-2,1.9-5.2,1.9c-4.3,0-7-3.1-7-6.8C333.3,191.6,336,188.7,339.9,188.7z M342.4,194c-0.1-1.8-1.2-2.7-2.6-2.7 c-1.7,0-2.8,1-3.1,2.7H342.4z"></path> <path class="st9" d="M348.4,189h3.1v2.3c0,0.5-0.1,0.9-0.1,0.9h0.1c0.6-1.9,2.2-3.4,4.1-3.4c0.3,0,0.6,0.1,0.6,0.1v3.2 c0,0-0.3-0.1-0.8-0.1c-1.4,0-2.9,0.8-3.6,2.7c-0.2,0.6-0.3,1.4-0.3,2.1v5.2h-3.3V189z"></path> <path class="st9" d="M358.5,183.9h3.2v2.9h-3.2V183.9z M358.5,189h3.3v13.1h-3.3V189z"></path> <path class="st9" d="M365.9,191.8h-1.7v-2.6h1.8v-3.8h3.2v3.8h3v2.6h-3v5.1c0,2.2,1.7,2.5,2.6,2.5c0.4,0,0.6-0.1,0.6-0.1v2.8 c0,0-0.4,0.1-1,0.1c-1.8,0-5.4-0.5-5.4-4.9V191.8z"></path> <path class="st9" d="M375.3,198.8h3.2l-2.5,6h-2.5L375.3,198.8z"></path> <path class="st9" d="M394.1,188.7c3.4,0,5,1.9,5,1.9l-1.4,2.2c0,0-1.4-1.4-3.4-1.4c-2.4,0-4,1.8-4,4c0,2.2,1.6,4.1,4.1,4.1 c2.2,0,3.8-1.7,3.8-1.7l1.3,2.3c0,0-1.9,2.1-5.4,2.1c-4.3,0-7.1-3-7.1-6.8C387,191.9,389.8,188.7,394.1,188.7z"></path> <path class="st9" d="M401.9,183.9h3.3v6.3c0,0.6-0.1,1.1-0.1,1.1h0.1c0.6-1.3,2.2-2.6,4.5-2.6c2.9,0,4.5,1.5,4.5,5v8.4H411v-7.7 c0-1.6-0.4-2.7-2.1-2.7c-1.7,0-3,1.1-3.5,2.7c-0.2,0.5-0.2,1.1-0.2,1.7v6h-3.3V183.9z"></path> <path class="st9" d="M424.2,193.9h0.4v-0.2c0-1.7-1.1-2.3-2.5-2.3c-1.9,0-3.6,1.3-3.6,1.3l-1.2-2.3c0,0,2-1.6,5.1-1.6 c3.4,0,5.4,1.9,5.4,5.2v8.2h-3V201c0-0.5,0.1-0.9,0.1-0.9h-0.1c0,0-1,2.3-4,2.3c-2.3,0-4.4-1.5-4.4-4.1 C416.5,194.2,422.1,193.9,424.2,193.9z M421.7,199.9c1.7,0,2.9-1.8,2.9-3.4v-0.3h-0.6c-1.7,0-4.4,0.2-4.4,2 C419.8,199.1,420.4,199.9,421.7,199.9z"></path> <path class="st9" d="M431.3,189h3.1v2.3c0,0.5-0.1,0.9-0.1,0.9h0.1c0.6-1.9,2.2-3.4,4.1-3.4c0.3,0,0.6,0.1,0.6,0.1v3.2 c0,0-0.3-0.1-0.8-0.1c-1.4,0-2.9,0.8-3.6,2.7c-0.2,0.6-0.3,1.4-0.3,2.1v5.2h-3.3V189z"></path> <path class="st9" d="M447.9,193.9h0.4v-0.2c0-1.7-1.1-2.3-2.5-2.3c-1.9,0-3.6,1.3-3.6,1.3l-1.2-2.3c0,0,2-1.6,5.1-1.6 c3.4,0,5.4,1.9,5.4,5.2v8.2h-3V201c0-0.5,0.1-0.9,0.1-0.9h-0.1c0,0-1,2.3-4,2.3c-2.3,0-4.4-1.5-4.4-4.1 C440.2,194.2,445.8,193.9,447.9,193.9z M445.5,199.9c1.7,0,2.9-1.8,2.9-3.4v-0.3h-0.6c-1.7,0-4.4,0.2-4.4,2 C443.5,199.1,444.1,199.9,445.5,199.9z"></path> <path class="st9" d="M461.1,188.7c3.4,0,5,1.9,5,1.9l-1.4,2.2c0,0-1.4-1.4-3.4-1.4c-2.4,0-4,1.8-4,4c0,2.2,1.6,4.1,4.1,4.1 c2.2,0,3.8-1.7,3.8-1.7l1.3,2.3c0,0-1.9,2.1-5.4,2.1c-4.3,0-7.1-3-7.1-6.8C454,191.9,456.8,188.7,461.1,188.7z"></path> <path class="st9" d="M469.5,191.8h-1.7v-2.6h1.8v-3.8h3.2v3.8h3v2.6h-3v5.1c0,2.2,1.7,2.5,2.6,2.5c0.4,0,0.6-0.1,0.6-0.1v2.8 c0,0-0.4,0.1-1,0.1c-1.8,0-5.4-0.5-5.4-4.9V191.8z"></path> <path class="st9" d="M484.3,188.7c3.8,0,5.8,2.7,5.8,6.2c0,0.4-0.1,1.3-0.1,1.3h-9c0.2,2.3,2,3.5,3.9,3.5c2.1,0,3.8-1.4,3.8-1.4 l1.3,2.3c0,0-2,1.9-5.2,1.9c-4.3,0-7-3.1-7-6.8C477.7,191.6,480.4,188.7,484.3,188.7z M486.8,194c-0.1-1.8-1.2-2.7-2.6-2.7 c-1.7,0-2.8,1-3.1,2.7H486.8z"></path> <path class="st9" d="M492.8,189h3.1v2.3c0,0.5-0.1,0.9-0.1,0.9h0.1c0.6-1.9,2.2-3.4,4.1-3.4c0.3,0,0.6,0.1,0.6,0.1v3.2 c0,0-0.3-0.1-0.8-0.1c-1.4,0-2.9,0.8-3.6,2.7c-0.2,0.6-0.3,1.4-0.3,2.1v5.2h-3.3V189z"></path> <path class="st9" d="M511.5,192.4L511.5,192.4c0-0.1-2.3-0.9-2.3-4c0-3.2,2.6-4.8,5.7-4.8c1.2,0,2.4,0.3,2.4,0.3l-0.8,2.6 c0,0-0.6-0.2-1.2-0.2c-1.5,0-2.8,0.8-2.8,2.4c0,1,0.6,2.4,2.8,2.4h2.9v-2.4h3.3v2.4h2.4v2.9h-2.4v2.2c0,3.7-2.4,6.2-6.5,6.2 c-3.9,0-6.5-2.4-6.5-5.5C508.4,195,509.6,193.1,511.5,192.4z M514.9,199.4c2,0,3.3-1.1,3.3-3.3v-2h-3.1c-2,0-3.3,0.9-3.3,2.7 C511.8,198.2,513,199.4,514.9,199.4z"></path> <path class="st9" d="M531.1,189h3.4l2.7,8.1c0.3,0.8,0.4,2,0.5,2h0.1c0,0,0.2-1.2,0.5-2l2.7-8.1h3.4l-4.7,13.1h-3.8L531.1,189z"></path> <path class="st9" d="M552.8,193.9h0.4v-0.2c0-1.7-1.1-2.3-2.5-2.3c-1.9,0-3.6,1.3-3.6,1.3l-1.2-2.3c0,0,2-1.6,5.1-1.6 c3.4,0,5.4,1.9,5.4,5.2v8.2h-3V201c0-0.5,0.1-0.9,0.1-0.9h-0.1c0,0-1,2.3-4,2.3c-2.3,0-4.4-1.5-4.4-4.1 C545,194.2,550.6,193.9,552.8,193.9z M550.3,199.9c1.7,0,2.9-1.8,2.9-3.4v-0.3h-0.6c-1.7,0-4.4,0.2-4.4,2 C548.3,199.1,549,199.9,550.3,199.9z"></path> <path class="st9" d="M559.6,183.9h3.2v13.6c0,1.4,0.5,1.8,1.3,1.8c0.3,0,0.5,0,0.5,0v2.8c0,0-0.5,0.1-1,0.1c-1.8,0-4-0.5-4-4.2 V183.9z"></path> <path class="st9" d="M566.9,189h3.3v7.7c0,1.6,0.4,2.7,2,2.7c2.4,0,3.7-2.1,3.7-4.4v-6h3.3v13.1H576v-1.5c0-0.5,0.1-0.9,0.1-0.9 H576c-0.6,1.4-2.3,2.7-4.5,2.7c-2.8,0-4.5-1.4-4.5-5V189z"></path> <path class="st9" d="M588.4,188.7c3.8,0,5.8,2.7,5.8,6.2c0,0.4-0.1,1.3-0.1,1.3h-9c0.2,2.3,2,3.5,3.9,3.5c2.1,0,3.8-1.4,3.8-1.4 l1.3,2.3c0,0-2,1.9-5.2,1.9c-4.3,0-7-3.1-7-6.8C581.7,191.6,584.5,188.7,588.4,188.7z M590.9,194c-0.1-1.8-1.2-2.7-2.6-2.7 c-1.7,0-2.8,1-3.1,2.7H590.9z"></path> </g> </svg> 