<?xml version="1.0" encoding="UTF-8"?> <svg xmlns="http://www.w3.org/2000/svg" xmlns:xlink="http://www.w3.org/1999/xlink" version="1.1" id="Layer_1" x="0px" y="0px" width="573px" height="80px" viewBox="0 0 573 80" style="enable-background:new 0 0 573 80;" xml:space="preserve"> <style type="text/css"> .st0{fill:#FFFFFF;} .st1{fill:#9C82BB;} .st2{clip-path:url(#SVGID_00000018231480361234243930000007511227829329081990_);} .st3{fill:none;stroke:#FFFFFF;stroke-width:2.5808;stroke-miterlimit:10;} .st4{fill:none;stroke:#76509B;stroke-width:2.5808;stroke-miterlimit:10;} .st5{fill:none;stroke:#C6B3D8;stroke-width:2.5808;stroke-miterlimit:10;} .st6{fill:none;stroke:#038CAD;stroke-width:2.5808;stroke-miterlimit:10;} .st7{fill:none;stroke:#37B8E0;stroke-width:2.5808;stroke-miterlimit:10;} .st8{fill:none;stroke:#3AAA35;stroke-width:2.5808;stroke-miterlimit:10;} .st9{fill:none;stroke:#FFD600;stroke-width:2.5808;stroke-miterlimit:10;} .st10{fill:none;stroke:#A0C519;stroke-width:2.5808;stroke-miterlimit:10;} .st11{fill:none;stroke:#F9B000;stroke-width:2.5808;stroke-miterlimit:10;} </style> <g> <path class="st0" d="M115.9,29.5c0.4,1.5,0.4,2.8,0.5,2.8h0.1c0,0,0.1-1.3,0.4-2.8l4.3-18.5h4.9l-6.7,26.7h-5.5l-4-15.8 c-0.4-1.7-0.7-3.5-0.7-3.5h-0.1c0,0-0.2,1.8-0.7,3.5l-1.2,4.7l-2.8,11.1H99L92.5,11h4.9l4.1,18.5c0.3,1.5,0.4,2.8,0.4,2.8h0.1 c0,0,0.1-1.3,0.5-2.8l4.7-18.5h4.1C111.2,11,115.9,29.5,115.9,29.5z"></path> <path class="st0" d="M136.4,18.1c5.7,0,10.3,4.2,10.3,10s-4.6,10-10.3,10c-5.7,0-10.3-4.1-10.3-10S130.7,18.1,136.4,18.1z M136.4,34.1c3,0,5.5-2.4,5.5-6s-2.5-6-5.5-6s-5.6,2.5-5.6,6C130.8,31.7,133.4,34.1,136.4,34.1z"></path> <path class="st0" d="M149.5,18.6h4.5v2.2c0,0.7-0.1,1.3-0.1,1.3h0.1c0.8-1.6,2.9-4,6.7-4c4.2,0,6.5,2.2,6.5,7.3v12.3h-4.6V26.4 c0-2.3-0.6-3.9-3-3.9s-4.3,1.6-5,3.9c-0.3,0.8-0.3,1.7-0.3,2.6v8.8h-4.7L149.5,18.6L149.5,18.6z"></path> <path class="st0" d="M178.3,18.1c4.1,0,5.4,2.5,5.4,2.5h0.1c0,0,0-0.5,0-1.1v-8.4h4.7v26.7H184v-1.6c0-0.7,0.1-1.2,0.1-1.2H184 c0,0-1.6,3.3-5.9,3.3c-5.1,0-8.3-4.1-8.3-10S173.4,18.1,178.3,18.1L178.3,18.1z M179.2,34.2c2.4,0,4.7-1.8,4.7-6.1 c0-3-1.5-5.9-4.7-5.9c-2.6,0-4.7,2.1-4.7,5.9C174.6,31.9,176.5,34.1,179.2,34.2L179.2,34.2z"></path> <path class="st0" d="M200.8,18.1c5.4,0,8.3,4,8.3,9.1c0,0.6-0.1,1.8-0.1,1.8H196c0.3,3.4,2.8,5.1,5.6,5.1c3,0,5.4-2.1,5.4-2.1 l1.8,3.4c0,0-2.9,2.7-7.5,2.7c-6.2,0-10.1-4.6-10.1-10C191.2,22.2,195.2,18.1,200.8,18.1L200.8,18.1z M204.4,25.8 c-0.1-2.6-1.7-4-3.7-4c-2.4,0-4,1.5-4.5,4H204.4z"></path> <path class="st0" d="M212.1,18.6h4.5v3.3c0,0.7-0.1,1.3-0.1,1.3h0.1c0.9-2.7,3.1-4.9,5.9-4.9c0.4,0,0.9,0.1,0.9,0.1V23 c0,0-0.5-0.1-1.1-0.1c-2,0-4.2,1.2-5.1,4c-0.3,0.9-0.4,2-0.4,3.1v7.6h-4.7L212.1,18.6L212.1,18.6z"></path> </g> <g> <g> <path class="st1" d="M232.9,11h4.8v22.5h11.4v4.2h-16.1C232.9,37.7,232.9,11,232.9,11z"></path> <path class="st1" d="M259.4,18.1c5.5,0,8.4,4,8.4,9.1c0,0.6-0.1,1.8-0.1,1.8h-13c0.3,3.3,2.8,5.1,5.7,5.1c3,0,5.5-2.1,5.5-2.1 l1.8,3.4c0,0-2.9,2.8-7.6,2.8c-6.3,0-10.1-4.6-10.1-10C249.8,22.3,253.8,18.1,259.4,18.1L259.4,18.1z M263.1,25.8 c-0.1-2.6-1.6-4-3.8-4c-2.4,0-4.1,1.5-4.5,4H263.1z"></path> <path class="st1" d="M280.4,25.7h0.6v-0.3c0-2.5-1.5-3.4-3.7-3.4c-2.7,0-5.2,1.8-5.2,1.8l-1.8-3.4c0,0,2.9-2.3,7.4-2.3 c5,0,7.9,2.8,7.9,7.6v12h-4.3v-1.6c0-0.7,0.1-1.4,0.1-1.4h-0.1c0,0-1.4,3.4-5.8,3.4c-3.4,0-6.4-2.1-6.4-6c0-6.1,8.1-6.5,11.2-6.5 L280.4,25.7z M276.8,34.4c2.5,0,4.3-2.7,4.3-5.1v-0.5h-0.8c-2.4,0-6.3,0.3-6.3,3C274,33.2,274.9,34.4,276.8,34.4z"></path> <path class="st1" d="M289.5,18.6h4.5v3.3c0,0.7-0.1,1.4-0.1,1.4h0.1c0.9-2.8,3.1-4.9,6-4.9c0.5,0,0.9,0.1,0.9,0.1V23 c0,0-0.5-0.1-1.1-0.1c-2,0-4.3,1.1-5.1,4c-0.3,0.9-0.4,2-0.4,3.1v7.6h-4.7L289.5,18.6L289.5,18.6z"></path> <path class="st1" d="M302.8,18.6h4.5v2.2c0,0.7-0.1,1.3-0.1,1.3h0.1c0.8-1.6,2.9-4,6.7-4c4.2,0,6.5,2.2,6.5,7.3v12.3h-4.7V26.4 c0-2.3-0.6-3.9-3-3.9c-2.4,0-4.4,1.6-5.1,3.9c-0.3,0.8-0.3,1.7-0.3,2.6v8.8h-4.7V18.6L302.8,18.6z"></path> <path class="st1" d="M324.5,11h4.7v4.2h-4.7V11z M324.5,18.6h4.7v19.2h-4.7V18.6z"></path> <path class="st1" d="M333.1,18.6h4.5v2.2c0,0.7-0.1,1.3-0.1,1.3h0.1c0.8-1.6,2.9-4,6.7-4c4.2,0,6.5,2.2,6.5,7.3v12.3h-4.7V26.4 c0-2.3-0.6-3.9-3-3.9c-2.4,0-4.4,1.6-5.1,3.9c-0.3,0.8-0.3,1.7-0.3,2.6v8.8h-4.7V18.6L333.1,18.6z"></path> <path class="st1" d="M362.1,41.5c2.9,0,5.3-1.3,5.3-4.6v-1.1c0-0.5,0.1-1,0.1-1h-0.1c-1.1,1.7-2.7,2.6-5.2,2.6 c-5.4,0-8.5-4.4-8.5-9.7s2.9-9.6,8.4-9.6c4.1,0,5.6,2.5,5.6,2.5h0.1c0,0,0-0.2,0-0.5v-1.5h4.4v18c0,6.6-5,9.1-10,9.1 c-2.4,0-4.9-0.7-6.7-1.7l1.4-3.7c0,0,2.4,1.3,5.2,1.3L362.1,41.5z M367.5,27.6c0-4.4-2.1-5.5-4.7-5.5c-2.8,0-4.4,2.1-4.4,5.3 s1.7,5.8,4.7,5.8C365.4,33.3,367.5,32,367.5,27.6z"></path> </g> <g> <path class="st1" d="M386.4,11h10.2c4.9,0,8.4,3.5,8.4,8.7s-3.4,8.8-8.4,8.8h-5.4v9.2h-4.8V11L386.4,11z M395.6,24.2 c2.8,0,4.4-1.8,4.4-4.6s-1.6-4.5-4.3-4.5h-4.6v9.1L395.6,24.2L395.6,24.2z"></path> <path class="st1" d="M416.9,25.7h0.6v-0.3c0-2.5-1.5-3.4-3.7-3.4c-2.7,0-5.2,1.8-5.2,1.8l-1.8-3.4c0,0,2.9-2.3,7.4-2.3 c5,0,7.9,2.8,7.9,7.6v12h-4.3v-1.6c0-0.7,0.1-1.4,0.1-1.4h-0.1c0,0-1.4,3.4-5.8,3.4c-3.4,0-6.4-2.1-6.4-6 C405.7,26,413.8,25.6,416.9,25.7L416.9,25.7z M413.3,34.4c2.5,0,4.3-2.7,4.3-5.1v-0.5h-0.8c-2.4,0-6.3,0.3-6.3,3 C410.4,33.2,411.4,34.4,413.3,34.4z"></path> <path class="st1" d="M426.1,18.5h4.5v3.3c0,0.7-0.1,1.4-0.1,1.4h0.1c0.9-2.8,3.1-4.9,6-4.9c0.5,0,0.9,0.1,0.9,0.1V23 c0,0-0.5-0.1-1.1-0.1c-2,0-4.3,1.1-5.1,4c-0.3,0.9-0.4,2-0.4,3.1v7.6h-4.7C426.1,37.7,426.1,18.5,426.1,18.5z"></path> <path class="st1" d="M440.9,22.6h-2.5v-3.8h2.6v-5.5h4.6v5.5h4.3v3.8h-4.3v7.5c0,3.2,2.5,3.6,3.8,3.6c0.5,0,0.9-0.1,0.9-0.1v4.2 c0,0-0.6,0.1-1.4,0.1c-2.6,0-7.9-0.8-7.9-7.2V22.6L440.9,22.6z"></path> <path class="st1" d="M452.9,18.5h4.5v2.2c0,0.7-0.1,1.3-0.1,1.3h0.1c0.8-1.6,2.9-4,6.7-4c4.2,0,6.6,2.2,6.6,7.3v12.3H466V26.3 c0-2.3-0.6-3.9-3-3.9c-2.4,0-4.4,1.6-5.1,3.9c-0.3,0.8-0.4,1.7-0.4,2.6v8.8h-4.7L452.9,18.5L452.9,18.5z"></path> <path class="st1" d="M482.9,18.1c5.5,0,8.4,4,8.4,9.1c0,0.6-0.1,1.8-0.1,1.8h-13.1c0.3,3.3,2.9,5.1,5.7,5.1c3,0,5.5-2.1,5.5-2.1 l1.8,3.4c0,0-2.9,2.8-7.6,2.8c-6.3,0-10.2-4.6-10.2-10C473.2,22.3,477.2,18.1,482.9,18.1L482.9,18.1z M486.6,25.8 c-0.1-2.6-1.6-4-3.8-4c-2.4,0-4.1,1.5-4.5,4H486.6z"></path> <path class="st1" d="M494.3,18.5h4.5v3.3c0,0.7-0.1,1.4-0.1,1.4h0.1c0.9-2.8,3.1-4.9,6-4.9c0.5,0,0.9,0.1,0.9,0.1V23 c0,0-0.5-0.1-1.1-0.1c-2,0-4.3,1.1-5.1,4c-0.3,0.9-0.4,2-0.4,3.1v7.6h-4.7C494.3,37.7,494.3,18.5,494.3,18.5z"></path> <path class="st1" d="M508.6,32c0,0,2.1,2.1,5.1,2.1c1.3,0,2.5-0.6,2.5-1.7c0-2.9-9.2-2.5-9.2-8.7c0-3.6,3.1-5.6,7.3-5.6 s6.3,2.2,6.3,2.2l-1.7,3.5c0,0-1.7-1.7-4.6-1.7c-1.2,0-2.4,0.5-2.4,1.7c0,2.7,9.2,2.3,9.2,8.6c0,3.2-2.7,5.7-7.3,5.7 c-4.7,0-7.4-2.8-7.4-2.8L508.6,32L508.6,32z"></path> <path class="st1" d="M523.8,11h4.7v9.2c0,0.9-0.1,1.6-0.1,1.6h0.1c0.9-1.8,3.2-3.8,6.5-3.8c4.2,0,6.6,2.2,6.6,7.3v12.3H537V26.3 c0-2.3-0.6-3.9-3-3.9c-2.4,0-4.4,1.7-5.1,4c-0.2,0.7-0.3,1.6-0.3,2.5v8.8h-4.7L523.8,11L523.8,11z"></path> <path class="st1" d="M545.5,11h4.7v4.2h-4.7V11z M545.5,18.5h4.7v19.2h-4.7V18.5z"></path> <path class="st1" d="M554.2,18.5h4.3v1.4c0,0.7-0.1,1.3-0.1,1.3h0.1c0,0,1.6-3.2,6.1-3.2c5.1,0,8.4,4.1,8.4,10s-3.7,10-8.6,10 c-3.8,0-5.4-2.6-5.4-2.6h-0.1c0,0,0.1,0.7,0.1,1.7v8h-4.7V18.5L554.2,18.5z M563.5,34.1c2.6,0,4.7-2.1,4.7-5.9s-1.9-6-4.7-6 c-2.5,0-4.7,1.8-4.7,6.1C558.8,31.2,560.3,34.1,563.5,34.1z"></path> </g> </g> <g> <path class="st0" d="M92.5,52.6h9.1V55h-6.3v4h5.1v2.4h-5.1v4.1h6.7v2.4h-9.4V52.7V52.6z"></path> <path class="st0" d="M107.5,56.6c2.4,0,3.2,1.4,3.2,1.4l0,0c0,0,0-0.3,0-0.6v-4.8h2.7v15.1h-2.6v-0.9c0-0.4,0-0.7,0-0.7l0,0 c0,0-0.9,1.8-3.4,1.8c-2.9,0-4.8-2.3-4.8-5.7S104.7,56.6,107.5,56.6L107.5,56.6z M108,65.7c1.4,0,2.7-1,2.7-3.4 c0-1.7-0.9-3.3-2.7-3.3c-1.5,0-2.7,1.2-2.7,3.4C105.3,64.5,106.4,65.8,108,65.7L108,65.7z"></path> <path class="st0" d="M115.5,56.9h2.7v6.4c0,1.3,0.3,2.2,1.7,2.2c1.9,0,3.1-1.7,3.1-3.7v-5h2.7v10.9H123v-1.2c0-0.4,0-0.8,0-0.8l0,0 c-0.6,1.1-1.9,2.3-3.8,2.3c-2.3,0-3.8-1.2-3.8-4.2V56.9z"></path> <path class="st0" d="M133,56.6c2.8,0,4.2,1.6,4.2,1.6l-1.2,1.8c0,0-1.1-1.2-2.8-1.2c-2,0-3.3,1.5-3.3,3.4c0,1.9,1.3,3.4,3.4,3.4 c1.8,0,3.2-1.4,3.2-1.4l1.1,1.9c0,0-1.6,1.8-4.5,1.8c-3.6,0-5.9-2.6-5.9-5.7C127,59.2,129.4,56.6,133,56.6L133,56.6z"></path> <path class="st0" d="M144.4,60.9h0.4v-0.2c0-1.4-0.9-1.9-2.1-1.9c-1.6,0-3,1.1-3,1.1l-1-1.9c0,0,1.7-1.3,4.3-1.3 c2.9,0,4.6,1.6,4.6,4.3v6.8H145v-0.9c0-0.4,0-0.8,0-0.8l0,0c0,0-0.8,1.9-3.3,1.9c-1.9,0-3.7-1.2-3.7-3.4 C138,61.2,142.6,60.9,144.4,60.9z M142.3,65.9c1.4,0,2.4-1.6,2.4-2.9v-0.3h-0.4c-1.4,0-3.6,0.2-3.6,1.7 C140.7,65.2,141.3,65.9,142.3,65.9L142.3,65.9z"></path> <path class="st0" d="M149.7,59.2h-1.4v-2.2h1.5v-3.2h2.7v3.2h2.5v2.2h-2.5v4.2c0,1.8,1.4,2.1,2.2,2.1c0.3,0,0.5,0,0.5,0v2.4 c0,0-0.3,0.1-0.8,0.1c-1.5,0-4.6-0.4-4.6-4.1L149.7,59.2L149.7,59.2z"></path> <path class="st0" d="M161,56.6c3.2,0,4.8,2.3,4.8,5.2c0,0.3-0.1,1.1-0.1,1.1h-7.5c0.2,1.9,1.7,2.9,3.3,2.9c1.8,0,3.2-1.2,3.2-1.2 l1.1,1.9c0,0-1.7,1.6-4.4,1.6c-3.6,0-5.8-2.6-5.8-5.7C155.5,58.9,157.8,56.6,161,56.6L161,56.6z M163.1,61c0-1.5-0.9-2.3-2.2-2.3 c-1.4,0-2.3,0.8-2.6,2.3H163.1z"></path> <path class="st0" d="M172.9,51h1.3v20.2h-1.3V51z"></path> <path class="st0" d="M182.6,52.6h9.1V55h-6.3v4h5.1v2.4h-5.1v4.1h6.7v2.4h-9.4V52.7V52.6z"></path> <path class="st0" d="M193.6,56.9h2.6v1.3c0,0.4,0,0.7,0,0.7l0,0c0.6-1.1,1.8-2.3,3.6-2.3s2.7,0.8,3.2,2.2l0,0 c0.6-1.2,2-2.2,3.7-2.2c2.3,0,3.6,1.3,3.6,4.2v7h-2.7v-6.5c0-1.2-0.2-2.2-1.5-2.2c-1.4,0-2.3,1.1-2.6,2.5c-0.1,0.4-0.1,0.9-0.1,1.4 v4.8h-2.7v-6.5c0-1.2-0.2-2.2-1.5-2.2c-1.4,0-2.3,1.1-2.7,2.5c-0.1,0.4-0.1,0.9-0.1,1.4v4.8h-2.7L193.6,56.9L193.6,56.9z"></path> <path class="st0" d="M212.4,56.9h2.5v0.8c0,0.4,0,0.7,0,0.7l0,0c0,0,0.9-1.8,3.5-1.8c2.9,0,4.8,2.3,4.8,5.7c0,3.4-2.1,5.7-5,5.7 c-2.2,0-3.1-1.5-3.1-1.5l0,0c0,0,0,0.4,0,0.9V72h-2.7V56.9z M217.7,65.8c1.5,0,2.7-1.2,2.7-3.4s-1.1-3.4-2.7-3.4 c-1.4,0-2.7,1-2.7,3.4C215,64,215.9,65.7,217.7,65.8L217.7,65.8z"></path> <path class="st0" d="M230,56.6c3.3,0,6,2.4,6,5.7c0,3.3-2.7,5.7-6,5.7c-3.3,0-6-2.3-6-5.7S226.7,56.6,230,56.6z M230,65.7 c1.8,0,3.2-1.4,3.2-3.4c0-2-1.5-3.4-3.2-3.4c-1.7,0-3.3,1.4-3.3,3.4C226.7,64.3,228.2,65.7,230,65.7z"></path> <path class="st0" d="M235.9,56.9h2.9l1.9,7.2c0.2,0.6,0.2,1.2,0.2,1.2l0,0c0,0,0.1-0.6,0.3-1.2l2-7.2h2.4l2,7.2 c0.2,0.6,0.2,1.2,0.2,1.2l0,0c0,0,0.1-0.6,0.2-1.2l1.9-7.2h2.8l-3.3,10.9h-3l-1.8-6.2c-0.2-0.6-0.3-1.2-0.3-1.2l0,0 c0,0-0.1,0.6-0.3,1.2l-1.8,6.2h-3.1L235.9,56.9L235.9,56.9z"></path> <path class="st0" d="M258.4,56.6c3.2,0,4.8,2.3,4.8,5.2c0,0.3-0.1,1.1-0.1,1.1h-7.5c0.2,1.9,1.7,2.9,3.3,2.9c1.8,0,3.2-1.2,3.2-1.2 l1.1,1.9c0,0-1.7,1.6-4.4,1.6c-3.6,0-5.8-2.6-5.8-5.7C252.9,58.9,255.2,56.6,258.4,56.6L258.4,56.6z M260.5,61 c0-1.5-0.9-2.3-2.2-2.3c-1.4,0-2.3,0.8-2.6,2.3H260.5z"></path> <path class="st0" d="M264.8,56.9h2.6v1.9c0,0.4,0,0.8,0,0.8l0,0c0.5-1.6,1.8-2.8,3.4-2.8c0.3,0,0.5,0,0.5,0v2.7c0,0-0.3,0-0.7,0 c-1.2,0-2.4,0.7-3,2.3c-0.2,0.6-0.2,1.1-0.2,1.8v4.3h-2.7L264.8,56.9L264.8,56.9z"></path> <path class="st0" d="M278.1,51h1.3v20.2h-1.3V51z"></path> <path class="st0" d="M287.7,52.6h9.1V55h-6.3v4h5.1v2.4h-5.1v4.1h6.7v2.4h-9.4V52.7V52.6z"></path> <path class="st0" d="M298.8,56.9h2.6v1.3c0,0.4,0,0.7,0,0.7l0,0c0.4-0.9,1.7-2.3,3.9-2.3c2.4,0,3.8,1.3,3.8,4.2v7h-2.7v-6.4 c0-1.3-0.3-2.2-1.7-2.2c-1.4,0-2.5,0.9-2.9,2.2c-0.2,0.4-0.2,0.9-0.2,1.4v5h-2.7C298.8,67.8,298.8,56.9,298.8,56.9z"></path> <path class="st0" d="M315.3,70c1.7,0,3.1-0.7,3.1-2.7v-0.7v-0.6l0,0c-0.7,0.9-1.6,1.5-3.1,1.5c-3.1,0-4.9-2.5-4.9-5.5 s1.7-5.4,4.8-5.4c2.4,0,3.2,1.4,3.2,1.4h0.1c0,0,0-0.1,0-0.3v-0.8h2.6v10.2c0,3.7-2.9,5.2-5.8,5.2c-1.4,0-2.8-0.4-3.9-0.9l0.8-2.1 C312.3,69.3,313.6,70,315.3,70L315.3,70z M318.5,62.1c0-2.5-1.2-3.2-2.7-3.2c-1.7,0-2.6,1.2-2.6,3.1c0,1.8,1,3.3,2.7,3.3 C317.2,65.3,318.4,64.6,318.5,62.1L318.5,62.1z"></path> <path class="st0" d="M328.9,60.9h0.4v-0.2c0-1.4-0.9-1.9-2.1-1.9c-1.6,0-3,1.1-3,1.1l-1-1.9c0,0,1.7-1.3,4.3-1.3 c2.9,0,4.6,1.6,4.6,4.3v6.8h-2.5v-0.9c0-0.4,0-0.8,0-0.8l0,0c0,0-0.8,1.9-3.3,1.9c-1.9,0-3.7-1.2-3.7-3.4 C322.5,61.2,327.1,60.9,328.9,60.9z M326.8,65.9c1.4,0,2.4-1.6,2.4-2.9v-0.3h-0.4c-1.4,0-3.6,0.2-3.6,1.7 C325.2,65.2,325.8,65.9,326.8,65.9L326.8,65.9z"></path> <path class="st0" d="M338.2,70c1.7,0,3.1-0.7,3.1-2.7v-0.7v-0.6l0,0c-0.7,0.9-1.6,1.5-3.1,1.5c-3.1,0-4.9-2.5-4.9-5.5 s1.7-5.4,4.8-5.4c2.4,0,3.2,1.4,3.2,1.4h0.1c0,0,0-0.1,0-0.3v-0.8h2.6v10.2c0,3.7-2.9,5.2-5.8,5.2c-1.4,0-2.8-0.4-3.9-0.9l0.8-2.1 C335.1,69.3,336.5,70,338.2,70L338.2,70z M341.3,62.1c0-2.5-1.2-3.2-2.7-3.2c-1.7,0-2.6,1.2-2.6,3.1c0,1.8,1,3.3,2.7,3.3 C340.1,65.3,341.3,64.6,341.3,62.1L341.3,62.1z"></path> <path class="st0" d="M351,56.6c3.2,0,4.8,2.3,4.8,5.2c0,0.3-0.1,1.1-0.1,1.1h-7.5c0.2,1.9,1.7,2.9,3.3,2.9c1.8,0,3.2-1.2,3.2-1.2 l1.1,1.9c0,0-1.7,1.6-4.4,1.6c-3.6,0-5.8-2.6-5.8-5.7C345.5,58.9,347.8,56.6,351,56.6L351,56.6z M353.1,61c0-1.5-0.9-2.3-2.2-2.3 c-1.4,0-2.3,0.8-2.6,2.3H353.1z"></path> <path class="st0" d="M362.9,51h1.3v20.2h-1.3V51z"></path> <path class="st0" d="M372.6,52.6h9.1V55h-6.3v4h5.1v2.4h-5.1v4.1h6.7v2.4h-9.4V52.7V52.6z"></path> <path class="st0" d="M383.6,56.9h2.6v1.3c0,0.4,0,0.7,0,0.7l0,0c0.4-0.9,1.7-2.3,3.9-2.3c2.4,0,3.8,1.3,3.8,4.2v7h-2.7v-6.4 c0-1.3-0.3-2.2-1.7-2.2c-1.4,0-2.5,0.9-2.9,2.2c-0.2,0.4-0.2,0.9-0.2,1.4v5h-2.7C383.6,67.8,383.6,56.9,383.6,56.9z"></path> <path class="st0" d="M395.9,56.9h2.6v1.9c0,0.4,0,0.8,0,0.8l0,0c0.5-1.6,1.8-2.8,3.4-2.8c0.3,0,0.5,0,0.5,0v2.7c0,0-0.3,0-0.7,0 c-1.2,0-2.4,0.7-3,2.3c-0.2,0.6-0.2,1.1-0.2,1.8v4.3h-2.7L395.9,56.9L395.9,56.9z"></path> <path class="st0" d="M403.4,52.6h2.7v2.4h-2.7V52.6z M403.4,56.9h2.7v10.9h-2.7C403.4,67.8,403.4,56.9,403.4,56.9z"></path> <path class="st0" d="M413.5,56.6c2.8,0,4.2,1.6,4.2,1.6l-1.2,1.8c0,0-1.1-1.2-2.8-1.2c-2,0-3.3,1.5-3.3,3.4c0,1.9,1.3,3.4,3.4,3.4 c1.8,0,3.2-1.4,3.2-1.4l1.1,1.9c0,0-1.6,1.8-4.5,1.8c-3.6,0-5.9-2.6-5.9-5.7C407.5,59.2,409.8,56.6,413.5,56.6L413.5,56.6z"></path> <path class="st0" d="M419.1,52.6h2.7v5.3c0,0.6,0,0.9,0,0.9l0,0c0.6-1.1,1.8-2.2,3.8-2.2c2.4,0,3.8,1.3,3.8,4.2v7h-2.7v-6.4 c0-1.3-0.3-2.2-1.7-2.2c-1.4,0-2.6,0.9-2.9,2.3c-0.1,0.4-0.2,0.9-0.2,1.4v5h-2.7L419.1,52.6L419.1,52.6z"></path> </g> <g> <defs> <path id="SVGID_1_" d="M39.9,0C17.9,0,0,17.9,0,39.9s17.9,39.9,39.9,39.9S79.9,62,79.9,39.9S62,0,39.9,0z M40,55.6 c-8.7,0-15.7-7-15.7-15.7s7-15.7,15.7-15.7s15.7,7,15.7,15.7S48.6,55.6,40,55.6z"></path> </defs> <clipPath id="SVGID_00000065044210872760363600000001597306712794218129_"> <use xlink:href="#SVGID_1_" style="overflow:visible;"></use> </clipPath> <g style="clip-path:url(#SVGID_00000065044210872760363600000001597306712794218129_);"> <g> <line class="st3" x1="25.4" y1="76.7" x2="21" y2="3.6"></line> <circle class="st3" cx="40" cy="39.9" r="16.8"></circle> <line class="st3" x1="45" y1="80.7" x2="6.2" y2="17.3"></line> <line class="st3" x1="77.9" y1="55.7" x2="3.8" y2="59.1"></line> <line class="st3" x1="7.2" y1="64.5" x2="42.9" y2="-1.1"></line> <line class="st3" x1="33.9" y1="81.1" x2="13.3" y2="8.8"></line> <line class="st3" x1="0.8" y1="51.6" x2="56.3" y2="2.2"></line> <line class="st3" x1="30.7" y1="-0.1" x2="16.1" y2="73.2"></line> <line class="st4" x1="1.2" y1="25.3" x2="76" y2="20.8"></line> <line class="st5" x1="80" y1="31.7" x2="6.7" y2="16.5"></line> <line class="st3" x1="0.1" y1="30.5" x2="57.9" y2="76.9"></line> <line class="st6" x1="55.3" y1="1.1" x2="58.4" y2="76.5"></line> <line class="st3" x1="79.1" y1="27.1" x2="24.8" y2="77.8"></line> <line class="st3" x1="65.2" y1="72" x2="-1" y2="38.6"></line> <line class="st7" x1="49" y1="80.4" x2="63.9" y2="6.4"></line> <line class="st8" x1="81.3" y1="32.6" x2="17.9" y2="74.1"></line> <line class="st9" x1="38.1" y1="-2.1" x2="73.8" y2="72.8"></line> <line class="st10" x1="36.1" y1="80.8" x2="74.3" y2="13.2"></line> <line class="st11" x1="78.4" y1="52.7" x2="24" y2="2.4"></line> </g> </g> </g> </svg> 