<?xml version="1.0" encoding="utf-8"?>
<!-- Generator: Adobe Illustrator 28.3.0, SVG Export Plug-In . SVG Version: 6.00 Build 0)  -->
<svg version="1.1" id="Layer_1" xmlns="http://www.w3.org/2000/svg" xmlns:xlink="http://www.w3.org/1999/xlink" x="0px" y="0px"
	 width="469px" height="433.8px" viewBox="0 0 469 433.8" style="enable-background:new 0 0 469 433.8;" xml:space="preserve">
<style type="text/css">
	.st0{fill:#FFFFFF;}
	.st1{fill:#cbd512;}
	.st2{clip-path:url(#SVGID_00000147199184132739892860000000728031739432330400_);}
	.st3{fill:none;stroke:#FFFFFF;stroke-width:8.0205;stroke-miterlimit:10;}
	.st4{fill:none;stroke:#FFFFFF;stroke-width:8.0201;stroke-miterlimit:10;}
	.st5{fill:none;stroke:#09416B;stroke-width:8.0205;stroke-miterlimit:10;}
	.st6{fill:none;stroke:#9679B5;stroke-width:8.0206;stroke-miterlimit:10;}
	.st7{fill:none;stroke:#C6B3D8;stroke-width:8.0205;stroke-miterlimit:10;}
	.st8{fill:none;stroke:#038CAD;stroke-width:8.0201;stroke-miterlimit:10;}
	.st9{fill:none;stroke:#37B8E0;stroke-width:8.0201;stroke-miterlimit:10;}
	.st10{fill:none;stroke:#3AAA35;stroke-width:8.0205;stroke-miterlimit:10;}
	.st11{fill:none;stroke:#FFD600;stroke-width:8.0205;stroke-miterlimit:10;}
	.st12{fill:none;stroke:#A0C519;stroke-width:8.0205;stroke-miterlimit:10;}
	.st13{fill:none;stroke:#F9B000;stroke-width:8.0205;stroke-miterlimit:10;}
</style>
<g>
	<g>
		<g>
			<path class="st0" d="M116.3,314c1.1,4.2,1.2,7.7,1.3,7.7h0.2c0,0,0.3-3.6,1.2-7.7l12.1-50.7h13.7L126,336.6h-15.4l-11.3-43.4
				c-1.2-4.8-1.9-9.6-1.9-9.6h-0.2c0,0-0.6,4.9-1.9,9.6l-3.4,13l-7.9,30.4H68.7l-18.4-73.4h13.7L75.7,314c0.9,4.1,1.2,7.7,1.2,7.7
				h0.2c0.1,0,0.2-3.5,1.3-7.7l13.2-50.7h11.6L116.3,314z"/>
			<path class="st0" d="M174,282.7c16.1,0,29,11.5,29,27.6c0,16.2-12.9,27.6-28.9,27.6c-16.1,0-29-11.4-29-27.6
				C145,294.1,158,282.7,174,282.7z M174.1,326.7c8.5,0,15.6-6.6,15.6-16.4c0-9.7-7.1-16.4-15.6-16.4c-8.6,0-15.7,6.7-15.7,16.4
				C158.4,320.1,165.5,326.7,174.1,326.7z"/>
			<path class="st0" d="M210.8,283.9h12.6v6.1c0,2-0.2,3.6-0.2,3.6h0.2c2.3-4.4,8.1-11,18.7-11c11.7,0,18.3,6.1,18.3,20v33.9h-13
				v-31.2c0-6.4-1.7-10.7-8.4-10.7c-7,0-12.2,4.4-14.2,10.7c-0.7,2.2-0.9,4.5-0.9,7v24.2h-13.1V283.9z"/>
			<path class="st0" d="M292.1,282.7c11.6,0,15.2,6.7,15.2,6.7h0.2c0,0-0.1-1.3-0.1-3v-23.1h13.1v73.4h-12.4v-4.3
				c0-2,0.2-3.4,0.2-3.4h-0.2c0,0-4.4,9-16.5,9c-14.3,0-23.4-11.3-23.4-27.6C268.2,293.5,278.1,282.7,292.1,282.7z M294.6,326.8
				c6.8,0,13.2-5,13.2-16.6c0-8.2-4.3-16.2-13.1-16.2c-7.2,0-13.2,5.9-13.2,16.3C281.4,320.3,286.8,326.8,294.6,326.8z"/>
			<path class="st0" d="M355.1,282.7c15.2,0,23.4,11.1,23.4,25c0,1.6-0.3,5.1-0.3,5.1h-36.4c0.8,9.2,8,13.9,15.8,13.9
				c8.5,0,15.2-5.8,15.2-5.8l5.1,9.4c0,0-8.1,7.5-21.2,7.5c-17.5,0-28.3-12.6-28.3-27.6C328.4,294,339.4,282.7,355.1,282.7z
				 M365.3,303.7c-0.2-7.1-4.6-11-10.4-11c-6.7,0-11.4,4.1-12.6,11H365.3z"/>
			<path class="st0" d="M386.9,283.9h12.6v9.1c0,2-0.2,3.7-0.2,3.7h0.2c2.4-7.5,8.7-13.5,16.7-13.5c1.2,0,2.4,0.2,2.4,0.2v12.9
				c0,0-1.3-0.2-3.1-0.2c-5.6,0-11.9,3.2-14.4,11.1c-0.8,2.6-1.1,5.5-1.1,8.6v20.9h-13.1V283.9z"/>
		</g>
		<g>
			<g>
				<path class="st1" d="M0,355.3h6.6v30.6h15.7v5.7H0V355.3z"/>
				<path class="st1" d="M36.6,364.9c7.5,0,11.5,5.5,11.5,12.4c0,0.8-0.2,2.5-0.2,2.5H30c0.4,4.5,3.9,6.9,7.8,6.9
					c4.2,0,7.5-2.9,7.5-2.9l2.5,4.6c0,0-4,3.7-10.5,3.7c-8.6,0-14-6.2-14-13.6C23.3,370.5,28.8,364.9,36.6,364.9z M41.6,375.3
					c-0.1-3.5-2.3-5.4-5.2-5.4c-3.3,0-5.6,2-6.2,5.4H41.6z"/>
				<path class="st1" d="M65.5,375.2h0.9v-0.4c0-3.4-2.1-4.6-5-4.6c-3.7,0-7.2,2.5-7.2,2.5l-2.5-4.6c0,0,4-3.2,10.2-3.2
					c6.8,0,10.8,3.8,10.8,10.4v16.3h-6v-2.1c0-1,0.1-1.8,0.1-1.8h-0.1c0.1,0-2,4.6-7.9,4.6c-4.6,0-8.8-2.9-8.8-8.1
					C50.1,375.8,61.3,375.2,65.5,375.2z M60.5,387.1c3.4,0,5.9-3.7,5.9-6.8v-0.6h-1.1c-3.3,0-8.7,0.5-8.7,4.1
					C56.6,385.5,57.9,387.1,60.5,387.1z"/>
				<path class="st1" d="M78.1,365.5h6.2v4.5c0,1-0.1,1.8-0.1,1.8h0.1c1.2-3.7,4.3-6.7,8.3-6.7c0.6,0,1.2,0.1,1.2,0.1v6.4
					c0,0-0.7-0.1-1.5-0.1c-2.8,0-5.9,1.6-7.1,5.5c-0.4,1.3-0.6,2.7-0.6,4.2v10.3h-6.5V365.5z"/>
				<path class="st1" d="M96.3,365.5h6.2v3c0,1-0.1,1.8-0.1,1.8h0.1c1.1-2.2,4-5.4,9.2-5.4c5.8,0,9,3,9,9.9v16.8h-6.4v-15.4
					c0-3.2-0.8-5.3-4.1-5.3c-3.5,0-6,2.2-7,5.3c-0.4,1.1-0.5,2.2-0.5,3.5v12h-6.5V365.5z"/>
				<path class="st1" d="M126.2,355.3h6.4v5.8h-6.4V355.3z M126.2,365.5h6.5v26h-6.5V365.5z"/>
				<path class="st1" d="M138.2,365.5h6.2v3c0,1-0.1,1.8-0.1,1.8h0.1c1.1-2.2,4-5.4,9.2-5.4c5.8,0,9,3,9,9.9v16.8h-6.4v-15.4
					c0-3.2-0.8-5.3-4.1-5.3c-3.5,0-6,2.2-7,5.3c-0.4,1.1-0.5,2.2-0.5,3.5v12h-6.5V365.5z"/>
				<path class="st1" d="M178.1,396.7c4,0,7.4-1.7,7.4-6.3v-1.5c0-0.6,0.1-1.4,0.1-1.4h-0.1c-1.5,2.3-3.8,3.5-7.3,3.5
					c-7.5,0-11.7-6-11.7-13.2s4-13,11.5-13c5.7,0,7.7,3.3,7.7,3.3h0.2c0,0,0-0.3,0-0.7v-2h6.1V390c0,8.9-6.9,12.3-13.7,12.3
					c-3.3,0-6.7-0.9-9.2-2.2l1.9-5C170.9,395.1,174.1,396.7,178.1,396.7z M185.6,377.9c0-5.9-2.9-7.5-6.4-7.5
					c-3.9,0-6.1,2.9-6.1,7.3c0,4.5,2.3,7.9,6.5,7.9C182.7,385.6,185.6,383.8,185.6,377.9z"/>
			</g>
			<g>
				<path class="st1" d="M211.6,355.2h14c6.8,0,11.6,4.8,11.6,11.8c0,7.1-4.8,12-11.6,12h-7.4v12.5h-6.6V355.2z M224.4,373.3
					c3.8,0,6.1-2.5,6.1-6.2c0-3.7-2.2-6.1-6-6.1h-6.3v12.4H224.4z"/>
				<path class="st1" d="M253.7,375.2h0.9v-0.4c0-3.4-2.1-4.6-5-4.6c-3.7,0-7.2,2.5-7.2,2.5l-2.5-4.7c0,0,4-3.2,10.2-3.2
					c6.9,0,10.8,3.8,10.8,10.4v16.3h-6v-2.1c0-1,0.1-1.8,0.1-1.8h-0.1c0.1,0-2,4.6-7.9,4.6c-4.7,0-8.8-2.9-8.8-8.1
					C238.3,375.7,249.5,375.2,253.7,375.2z M248.8,387.1c3.4,0,5.9-3.7,5.9-6.9v-0.6h-1.1c-3.3,0-8.7,0.5-8.7,4.1
					C244.8,385.4,246.1,387.1,248.8,387.1z"/>
				<path class="st1" d="M266.4,365.5h6.2v4.5c0,1-0.1,1.8-0.1,1.8h0.1c1.2-3.7,4.3-6.7,8.3-6.7c0.6,0,1.2,0.1,1.2,0.1v6.4
					c0,0-0.7-0.1-1.5-0.1c-2.8,0-5.9,1.6-7.1,5.5c-0.4,1.3-0.6,2.7-0.6,4.2v10.3h-6.5V365.5z"/>
				<path class="st1" d="M286.9,371h-3.4v-5.2h3.5v-7.5h6.3v7.5h5.9v5.2h-5.9v10.1c0,4.3,3.4,4.9,5.2,4.9c0.7,0,1.2-0.1,1.2-0.1v5.7
					c0,0-0.8,0.2-2,0.2c-3.6,0-10.8-1.1-10.8-9.8V371z"/>
				<path class="st1" d="M303.3,365.5h6.2v3c0,1-0.1,1.8-0.1,1.8h0.1c1.1-2.2,4-5.4,9.3-5.4c5.8,0,9,3,9,9.9v16.8h-6.4v-15.4
					c0-3.2-0.8-5.3-4.1-5.3c-3.5,0-6,2.2-7,5.3c-0.4,1.1-0.5,2.2-0.5,3.5v12h-6.5V365.5z"/>
				<path class="st1" d="M344.7,364.8c7.5,0,11.6,5.5,11.6,12.4c0,0.8-0.2,2.5-0.2,2.5h-18c0.4,4.5,3.9,6.9,7.8,6.9
					c4.2,0,7.5-2.9,7.5-2.9l2.5,4.7c0,0-4,3.7-10.5,3.7c-8.6,0-14-6.2-14-13.7C331.5,370.5,337,364.8,344.7,364.8z M349.7,375.3
					c-0.1-3.5-2.3-5.4-5.2-5.4c-3.3,0-5.6,2-6.2,5.4H349.7z"/>
				<path class="st1" d="M360.4,365.5h6.2v4.5c0,1-0.1,1.8-0.1,1.8h0.1c1.2-3.7,4.3-6.7,8.3-6.7c0.6,0,1.2,0.1,1.2,0.1v6.4
					c0,0-0.7-0.1-1.5-0.1c-2.8,0-5.9,1.6-7.1,5.5c-0.4,1.3-0.6,2.7-0.6,4.2v10.3h-6.5V365.5z"/>
				<path class="st1" d="M380.2,383.8c0,0,2.9,2.9,7.1,2.9c1.8,0,3.4-0.8,3.4-2.4c0-3.9-12.7-3.4-12.7-11.8c0-4.9,4.3-7.7,10-7.7
					c5.9,0,8.7,3,8.7,3l-2.4,4.8c0,0-2.4-2.3-6.4-2.3c-1.7,0-3.3,0.7-3.3,2.4c0,3.7,12.7,3.2,12.7,11.6c0,4.3-3.8,7.8-10,7.8
					c-6.5,0-10.1-3.8-10.1-3.8L380.2,383.8z"/>
				<path class="st1" d="M401.2,355.2h6.5v12.6c0,1.3-0.1,2.2-0.1,2.2h0.1c1.3-2.5,4.4-5.2,9-5.2c5.8,0,9,3,9,9.9v16.8h-6.4v-15.4
					c0-3.2-0.8-5.3-4.1-5.3c-3.4,0-6.1,2.2-7.1,5.4c-0.3,1-0.4,2.1-0.4,3.4v12h-6.5V355.2z"/>
				<path class="st1" d="M431.1,355.2h6.4v5.8h-6.4V355.2z M431.1,365.5h6.5v26.1h-6.5V365.5z"/>
				<path class="st1" d="M443.1,365.5h5.9v1.9c0,1-0.1,1.8-0.1,1.8h0.1c0,0,2.2-4.3,8.4-4.3c7.1,0,11.6,5.6,11.6,13.7
					c0,8.3-5.1,13.7-11.9,13.7c-5.2,0-7.5-3.6-7.5-3.6h-0.1c0,0,0.1,0.9,0.1,2.2v10.9h-6.5V365.5z M455.9,386.7
					c3.6,0,6.5-2.9,6.5-8.1c0-5-2.7-8.2-6.5-8.2c-3.4,0-6.5,2.5-6.5,8.2C449.4,382.7,451.6,386.7,455.9,386.7z"/>
			</g>
		</g>
		<g>
			<path class="st0" d="M50.3,412.3h9.9v2.6h-6.9v4.3h5.6v2.6h-5.6v4.5h7.3v2.6H50.3V412.3z"/>
			<path class="st0" d="M66.8,416.7c2.6,0,3.4,1.5,3.4,1.5h0c0,0,0-0.3,0-0.7v-5.2h3v16.6h-2.8v-1c0-0.4,0-0.8,0-0.8h0
				c0,0-1,2-3.7,2c-3.2,0-5.3-2.5-5.3-6.2C61.4,419.1,63.7,416.7,66.8,416.7z M67.4,426.6c1.5,0,3-1.1,3-3.8c0-1.8-1-3.7-3-3.7
				c-1.6,0-3,1.3-3,3.7C64.4,425.2,65.7,426.6,67.4,426.6z"/>
			<path class="st0" d="M75.5,416.9h3v7.1c0,1.4,0.4,2.4,1.8,2.4c2.1,0,3.3-1.9,3.3-4v-5.5h3v11.9h-2.8v-1.4c0-0.5,0-0.8,0-0.8h0
				c-0.6,1.2-2.1,2.5-4.1,2.5c-2.5,0-4.1-1.3-4.1-4.5V416.9z"/>
			<path class="st0" d="M94.7,416.7c3.1,0,4.6,1.8,4.6,1.8l-1.3,2c0,0-1.2-1.3-3.1-1.3c-2.2,0-3.6,1.7-3.6,3.7c0,2,1.4,3.7,3.7,3.7
				c2,0,3.5-1.5,3.5-1.5l1.1,2.1c0,0-1.7,1.9-4.9,1.9c-3.9,0-6.5-2.8-6.5-6.2C88.2,419.5,90.7,416.7,94.7,416.7z"/>
			<path class="st0" d="M107.1,421.4h0.4v-0.2c0-1.6-1-2.1-2.3-2.1c-1.7,0-3.3,1.1-3.3,1.1l-1.1-2.1c0,0,1.8-1.5,4.7-1.5
				c3.1,0,5,1.7,5,4.7v7.5h-2.7v-1c0-0.5,0-0.8,0-0.8h0c0,0-0.9,2.1-3.6,2.1c-2.1,0-4-1.3-4-3.7
				C100.1,421.6,105.2,421.4,107.1,421.4z M104.9,426.8c1.6,0,2.7-1.7,2.7-3.1v-0.3H107c-1.5,0-4,0.2-4,1.9
				C103.1,426.1,103.7,426.8,104.9,426.8z"/>
			<path class="st0" d="M113,419.5h-1.5v-2.4h1.6v-3.4h2.9v3.4h2.7v2.4h-2.7v4.6c0,2,1.5,2.2,2.4,2.2c0.3,0,0.5,0,0.5,0v2.6
				c0,0-0.4,0.1-0.9,0.1c-1.7,0-5-0.5-5-4.5V419.5z"/>
			<path class="st0" d="M125.2,416.7c3.4,0,5.3,2.5,5.3,5.7c0,0.4-0.1,1.1-0.1,1.1h-8.2c0.2,2.1,1.8,3.2,3.6,3.2
				c1.9,0,3.4-1.3,3.4-1.3l1.1,2.1c0,0-1.8,1.7-4.8,1.7c-3.9,0-6.4-2.8-6.4-6.2C119.2,419.2,121.7,416.7,125.2,416.7z M127.5,421.4
				c0-1.6-1.1-2.5-2.4-2.5c-1.5,0-2.6,0.9-2.8,2.5H127.5z"/>
			<path class="st0" d="M138.3,410.4h1.5v22.1h-1.5V410.4z"/>
			<path class="st0" d="M148.9,412.3h9.9v2.6h-6.9v4.3h5.6v2.6h-5.6v4.5h7.3v2.6h-10.3V412.3z"/>
			<path class="st0" d="M160.9,416.9h2.8v1.4c0,0.4,0,0.8,0,0.8h0c0.6-1.2,2-2.5,3.9-2.5c1.8,0,3,0.8,3.5,2.5h0
				c0.7-1.3,2.2-2.5,4.1-2.5c2.5,0,3.9,1.4,3.9,4.5v7.7h-3v-7.1c0-1.4-0.3-2.4-1.6-2.4c-1.5,0-2.5,1.2-2.9,2.7
				c-0.1,0.5-0.1,1-0.1,1.5v5.2h-3v-7.1c0-1.3-0.2-2.4-1.6-2.4c-1.5,0-2.5,1.2-2.9,2.7c-0.1,0.4-0.1,1-0.1,1.5v5.2h-3V416.9z"/>
			<path class="st0" d="M181.4,416.9h2.7v0.9c0,0.4,0,0.8,0,0.8h0c0,0,1-2,3.8-2c3.2,0,5.3,2.5,5.3,6.2c0,3.8-2.3,6.2-5.4,6.2
				c-2.4,0-3.4-1.6-3.4-1.6h0c0,0,0,0.4,0,1v5h-3V416.9z M187.3,426.6c1.6,0,3-1.3,3-3.7c0-2.3-1.2-3.7-3-3.7c-1.5,0-3,1.1-3,3.8
				C184.3,424.8,185.3,426.6,187.3,426.6z"/>
			<path class="st0" d="M200.7,416.7c3.6,0,6.6,2.6,6.6,6.2c0,3.7-2.9,6.2-6.5,6.2c-3.6,0-6.6-2.6-6.6-6.2
				C194.2,419.3,197.1,416.7,200.7,416.7z M200.7,426.6c1.9,0,3.5-1.5,3.5-3.7c0-2.2-1.6-3.7-3.5-3.7c-1.9,0-3.6,1.5-3.6,3.7
				C197.2,425.1,198.8,426.6,200.7,426.6z"/>
			<path class="st0" d="M207.2,416.9h3.1l2.1,7.8c0.2,0.6,0.2,1.3,0.2,1.3h0c0,0,0.1-0.6,0.3-1.3l2.2-7.8h2.6l2.2,7.8
				c0.2,0.6,0.3,1.3,0.3,1.3h0c0,0,0.1-0.6,0.3-1.3l2.1-7.8h3.1l-3.6,11.9h-3.3l-2-6.8c-0.2-0.6-0.3-1.3-0.3-1.3h0
				c0,0-0.1,0.7-0.3,1.3l-2,6.8h-3.3L207.2,416.9z"/>
			<path class="st0" d="M231.8,416.7c3.4,0,5.3,2.5,5.3,5.7c0,0.4-0.1,1.1-0.1,1.1h-8.2c0.2,2.1,1.8,3.2,3.6,3.2
				c1.9,0,3.4-1.3,3.4-1.3l1.1,2.1c0,0-1.8,1.7-4.8,1.7c-3.9,0-6.4-2.8-6.4-6.2C225.7,419.2,228.2,416.7,231.8,416.7z M234.1,421.4
				c0-1.6-1.1-2.5-2.4-2.5c-1.5,0-2.6,0.9-2.8,2.5H234.1z"/>
			<path class="st0" d="M238.8,416.9h2.8v2.1c0,0.4,0,0.8,0,0.8h0c0.5-1.7,2-3.1,3.8-3.1c0.3,0,0.5,0,0.5,0v2.9c0,0-0.3,0-0.7,0
				c-1.3,0-2.7,0.7-3.2,2.5c-0.2,0.6-0.3,1.2-0.3,1.9v4.7h-3V416.9z"/>
			<path class="st0" d="M253.3,410.4h1.5v22.1h-1.5V410.4z"/>
			<path class="st0" d="M263.8,412.3h9.9v2.6h-6.9v4.3h5.6v2.6h-5.6v4.5h7.3v2.6h-10.3V412.3z"/>
			<path class="st0" d="M275.9,416.9h2.8v1.4c0,0.4,0,0.8,0,0.8h0c0.5-1,1.8-2.5,4.2-2.5c2.6,0,4.1,1.4,4.1,4.5v7.7h-2.9v-7.1
				c0-1.4-0.4-2.4-1.9-2.4c-1.6,0-2.8,1-3.2,2.4c-0.2,0.5-0.2,1-0.2,1.6v5.5h-3V416.9z"/>
			<path class="st0" d="M294,431.2c1.8,0,3.4-0.8,3.4-2.9v-0.7c0-0.3,0-0.6,0-0.6h0c-0.7,1.1-1.7,1.6-3.3,1.6c-3.4,0-5.3-2.8-5.3-6
				c0-3.3,1.8-5.9,5.3-5.9c2.6,0,3.5,1.5,3.5,1.5h0.1c0,0,0-0.1,0-0.3v-0.9h2.8v11.2c0,4.1-3.2,5.6-6.3,5.6c-1.5,0-3.1-0.4-4.2-1
				l0.9-2.3C290.7,430.5,292.2,431.2,294,431.2z M297.4,422.6c0-2.7-1.3-3.4-2.9-3.4c-1.8,0-2.8,1.3-2.8,3.3c0,2.1,1.1,3.6,3,3.6
				C296.1,426.1,297.4,425.3,297.4,422.6z"/>
			<path class="st0" d="M308.8,421.4h0.4v-0.2c0-1.6-1-2.1-2.3-2.1c-1.7,0-3.3,1.1-3.3,1.1l-1.1-2.1c0,0,1.8-1.5,4.7-1.5
				c3.1,0,5,1.7,5,4.7v7.5h-2.7v-1c0-0.5,0-0.8,0-0.8h0c0,0-0.9,2.1-3.6,2.1c-2.1,0-4-1.3-4-3.7
				C301.8,421.6,306.9,421.4,308.8,421.4z M306.5,426.8c1.6,0,2.7-1.7,2.7-3.1v-0.3h-0.5c-1.5,0-4,0.2-4,1.9
				C304.7,426.1,305.3,426.8,306.5,426.8z"/>
			<path class="st0" d="M319,431.2c1.8,0,3.4-0.8,3.4-2.9v-0.7c0-0.3,0-0.6,0-0.6h0c-0.7,1.1-1.7,1.6-3.3,1.6c-3.4,0-5.3-2.8-5.3-6
				c0-3.3,1.8-5.9,5.3-5.9c2.6,0,3.5,1.5,3.5,1.5h0.1c0,0,0-0.1,0-0.3v-0.9h2.8v11.2c0,4.1-3.2,5.6-6.3,5.6c-1.5,0-3.1-0.4-4.2-1
				l0.9-2.3C315.7,430.5,317.2,431.2,319,431.2z M322.4,422.6c0-2.7-1.3-3.4-2.9-3.4c-1.8,0-2.8,1.3-2.8,3.3c0,2.1,1.1,3.6,3,3.6
				C321.1,426.1,322.4,425.3,322.4,422.6z"/>
			<path class="st0" d="M333,416.7c3.4,0,5.3,2.5,5.3,5.7c0,0.4-0.1,1.1-0.1,1.1h-8.2c0.2,2.1,1.8,3.2,3.6,3.2
				c1.9,0,3.4-1.3,3.4-1.3l1.1,2.1c0,0-1.8,1.7-4.8,1.7c-3.9,0-6.4-2.8-6.4-6.2C326.9,419.2,329.4,416.7,333,416.7z M335.2,421.4
				c0-1.6-1.1-2.5-2.4-2.5c-1.5,0-2.6,0.9-2.8,2.5H335.2z"/>
			<path class="st0" d="M346,410.4h1.5v22.1H346V410.4z"/>
			<path class="st0" d="M356.6,412.3h9.9v2.6h-6.9v4.3h5.6v2.6h-5.6v4.5h7.3v2.6h-10.3V412.3z"/>
			<path class="st0" d="M368.6,416.9h2.8v1.4c0,0.4,0,0.8,0,0.8h0c0.5-1,1.8-2.5,4.2-2.5c2.6,0,4.1,1.4,4.1,4.5v7.7h-2.9v-7.1
				c0-1.4-0.4-2.4-1.9-2.4c-1.6,0-2.8,1-3.2,2.4c-0.2,0.5-0.2,1-0.2,1.6v5.5h-3V416.9z"/>
			<path class="st0" d="M382.1,416.9h2.8v2.1c0,0.4,0,0.8,0,0.8h0c0.5-1.7,2-3.1,3.8-3.1c0.3,0,0.5,0,0.5,0v2.9c0,0-0.3,0-0.7,0
				c-1.3,0-2.7,0.7-3.2,2.5c-0.2,0.6-0.3,1.2-0.3,1.9v4.7h-3V416.9z"/>
			<path class="st0" d="M390.3,412.3h2.9v2.6h-2.9V412.3z M390.3,416.9h3v11.9h-3V416.9z"/>
			<path class="st0" d="M401.3,416.7c3.1,0,4.6,1.8,4.6,1.8l-1.3,2c0,0-1.2-1.3-3.1-1.3c-2.2,0-3.6,1.7-3.6,3.7c0,2,1.4,3.7,3.7,3.7
				c2,0,3.5-1.5,3.5-1.5l1.1,2.1c0,0-1.7,1.9-4.9,1.9c-3.9,0-6.5-2.8-6.5-6.2C394.8,419.5,397.3,416.7,401.3,416.7z"/>
			<path class="st0" d="M407.4,412.3h3v5.7c0,0.6,0,1,0,1h0c0.6-1.1,2-2.4,4.1-2.4c2.6,0,4.1,1.4,4.1,4.5v7.7h-2.9v-7.1
				c0-1.4-0.4-2.4-1.9-2.4c-1.6,0-2.8,1-3.2,2.5c-0.1,0.5-0.2,1-0.2,1.5v5.5h-3V412.3z"/>
		</g>
	</g>
	<g>
		<g>
			<defs>
				<path id="SVGID_1_" d="M234.5,0c-68.3,0-123.6,55.3-123.6,123.6s55.3,123.6,123.6,123.6s123.6-55.3,123.6-123.6S302.8,0,234.5,0
					z M234.8,172.1c-26.8,0-48.5-21.7-48.5-48.5s21.7-48.5,48.5-48.5s48.5,21.7,48.5,48.5S261.6,172.1,234.8,172.1z"/>
			</defs>
			<clipPath id="SVGID_00000043446197711939004300000002298848818963392429_">
				<use xlink:href="#SVGID_1_"  style="overflow:visible;"/>
			</clipPath>
			<g style="clip-path:url(#SVGID_00000043446197711939004300000002298848818963392429_);">
				<g>
					<line class="st3" x1="189.6" y1="237.4" x2="175.9" y2="11"/>
					<circle class="st3" cx="234.8" cy="123.6" r="51.9"/>
					<line class="st3" x1="250.3" y1="249.9" x2="130.2" y2="53.6"/>
					<line class="st3" x1="352.1" y1="172.6" x2="122.6" y2="182.9"/>
					<line class="st4" x1="133.3" y1="199.8" x2="243.6" y2="-3.6"/>
					<line class="st3" x1="215.8" y1="251.1" x2="152.1" y2="27.2"/>
					<path class="st5" d="M159.5,21.3"/>
					<path class="st5" d="M361.7,135"/>
					<line class="st3" x1="113.3" y1="159.7" x2="285.4" y2="6.9"/>
					<line class="st3" x1="206.1" y1="-0.2" x2="160.6" y2="226.7"/>
					<line class="st6" x1="114.7" y1="78.4" x2="346.1" y2="64.5"/>
					<line class="st7" x1="358.6" y1="98.1" x2="131.6" y2="51.2"/>
					<line class="st3" x1="111.2" y1="94.6" x2="290.2" y2="238.3"/>
					<line class="st8" x1="282" y1="3.3" x2="291.8" y2="236.9"/>
					<line class="st3" x1="355.9" y1="83.8" x2="187.6" y2="240.9"/>
					<line class="st3" x1="312.8" y1="223.1" x2="108" y2="119.6"/>
					<line class="st9" x1="262.7" y1="248.9" x2="308.7" y2="19.9"/>
					<line class="st10" x1="362.6" y1="101.1" x2="166.3" y2="229.5"/>
					<line class="st11" x1="229" y1="-6.6" x2="339.4" y2="225.4"/>
					<line class="st12" x1="222.7" y1="250.2" x2="341" y2="40.9"/>
					<line class="st13" x1="353.7" y1="163.3" x2="185.3" y2="7.4"/>
				</g>
			</g>
		</g>
	</g>
</g>
</svg>
